<svg xmlns="http://www.w3.org/2000/svg" viewBox="0 0 40 40">
  <path fill="#222" d="M31.6 14.6l-2.4 1a42.9 42.9 0 0 0-3.8-6.4l2.3-1a71.1 71.1 0 0 1 3.9 6.4zm5.3-2.2l-2.3 1.1a45.7 45.7 0 0 0-3.9-6.4l2.2-1a51.4 51.4 0 0 1 4 6.3zM15 36a11 11 0 0 1-4.2-.8l.8-1.8a9 9 0 0 0 3.4.6v2zm4.2-.8l-.8-1.8a9 9 0 0 0 2.9-2l1.4 1.4a11 11 0 0 1-3.5 2.4zm-12-2.4a11 11 0 0 1-2.4-3.6l1.8-.8a9 9 0 0 0 2 2.9zm17.9-3.6l-1.8-.8A9 9 0 0 0 24 25h2a11 11 0 0 1-.8 4.2zM4 25a10.9 10.9 0 0 1 .8-4.2l1.8.8A9 9 0 0 0 6 25H4zm19.3-3.5a9 9 0 0 0-2-2.9l1.4-1.4a11 11 0 0 1 2.4 3.6zM8.6 18.7l-1.4-1.5a10.9 10.9 0 0 1 3.6-2.4l.8 1.8a9 9 0 0 0-3 2.1zm9.8-2A8.9 8.9 0 0 0 15 16v-2a11 11 0 0 1 4.2.8z"/>
</svg>