<svg xmlns="http://www.w3.org/2000/svg" xmlns:xlink="http://www.w3.org/1999/xlink" viewBox="0 0 300 300">
    <defs>
        <style>
            g {display: none; fill: #222}
            g:target,
            g:target g {display: inline}
        </style>
        <symbol id="1"><path d="M114.8,30.5q1.2-3.5,7.6-1.8c4.3,1.2,8.8,3.7,13.5,7.6s4.1,6.8.6,11.1-6.1,13.9-7.6,28.7q28.1-7,42.2-13.5t22.3-2.9c5.5,2.3,6.6,5.1,3.5,8.2s-26.2,10.5-69.1,22.3q-2.4,22.3-3.5,42.2a160.3,160.3,0,0,1,34-11.7,128,128,0,0,0-.6-13.5q-0.6-5.3,8.8-1.8t7,14.1a148.1,148.1,0,0,1,31.1,2.9,60.9,60.9,0,0,1,25.2,12.3,43.3,43.3,0,0,1,16.4,21.7q4.7,13.5,2.3,31.1T235,220.9q-11.2,17-32.2,29.9t-41.6,15.8q-20.5,4.1-20.5,2.9t18.2-8.8A173,173,0,0,0,198,241.4q18.7-14.1,28.1-32.2t7-36.9q-2.4-19.9-17-31.6t-43.9-10.5q-7,24.6-16.4,42.2a358.6,358.6,0,0,1-23.4,37.5q5.9,12.9,11.1,18.8t2.9,10.5c-1.6,2.3-4.7,3.7-9.4,4.1s-10.2-6.8-16.4-21.7a157.4,157.4,0,0,1-18.2,15.8,87,87,0,0,1-17,10,41,41,0,0,1-17,1.2q-8.8-1.2-15.8-14.1t2.9-38.7q9.9-24.6,55.7-57.4,1.2-21.1,2.3-45.7-14.1,1.2-22.9,1.2a88.9,88.9,0,0,1-19.3-2.3q-10.5-2.3-12.3-5.9c-1.2-2.3,1.8-3.1,8.8-2.3S81,83,88.5,82.6a265.2,265.2,0,0,0,26.4-2.9q3.5-31.6.6-39.3T114.8,30.5Zm-2.3,123a169.5,169.5,0,0,0-32.8,29.3q-14.1,16.4-15.2,31.6t5.3,18.8q7.6,3.5,18.2,0T116,207.4Q112.5,192.2,112.5,153.5ZM157,132.4q-16.4,3.5-32.8,14.1a416.8,416.8,0,0,0,2.3,48Q146.5,167.6,157,132.4Z"/></symbol>
        <symbol id="2"><path d="M52.7,75q2.3-2.3,10.5.6a28.3,28.3,0,0,1,12.9,8.8q4.7,4.7,0,11.7T68,118.4q-4.7,14.1-5.9,34.6t7,35.7q7,15.2,11.7,18.2t9.4-2.9q3.5-5.9,14.6-25.2T116,162.9q0,3.5-5.3,19.9a263,263,0,0,0-7.6,28.1,170.6,170.6,0,0,0-2.9,18.8c-0.4,4.7-2.2,7.4-5.3,8.2S84.6,234,75.6,226.2,59,207.4,52.7,193.4s-7.8-31.4-4.7-52.1,5.5-34.6,7-41.6S55.3,85.9,53.3,82,51.2,75.8,52.7,75ZM184,91.4q1.2-2.3,16.4,6.4a130,130,0,0,1,27,20.5,79.3,79.3,0,0,1,15.8,26.4,84.5,84.5,0,0,1,5.3,28.7q0,14.1-2.9,22.3a37.4,37.4,0,0,1-8.8,14.1q-5.9,5.9-11.1-1.8t-19.3-17q-14.1-10.5-15.2-12.9t11.7,2.3q12.9,3.5,19.3,4.7t8.8-1.2c0.8-1.6,1.2-5.3,1.2-11.1a106.9,106.9,0,0,0-2.3-20.5q-3.5-12.9-12.9-26.4a109.1,109.1,0,0,0-21.1-22.9Q182.8,92.6,184,91.4Z"/></symbol>
        <symbol id="3"><path d="M165.2,94.9q15.2-3.5,31.1,4.7t20.5,31.6q4.7,22.3-2.9,51t-25.2,47.5A127.5,127.5,0,0,1,150,258.4q-21.1,9.9-31.6,12.3t-11.7.6q0-1.8,25.8-13.5a144.4,144.4,0,0,0,42.8-34q18.2-21.1,24-45.7t2.9-41q-1.8-15.2-10-23.4t-21.7-7.6q-13.5.6-39.3,15.8L96.1,141.8a15.5,15.5,0,0,1-16.4,0q-8.2-5.9-9.4-8.8c-0.8-1.9,1.6-2.9,7-2.9A83.1,83.1,0,0,0,93.8,126q8.2-2.9,32.8-14.6T165.2,94.9ZM112.5,35.2q1.2-1.2,9.4,1.8t30.5,5.3q21.1,2.4,29.3,6.4c5.5,2.7,9,5.3,10.5,7.6a13.5,13.5,0,0,1,2.3,7.6c0,2.7-4.3,4.1-12.9,4.1a133.4,133.4,0,0,0-28.7,3.5c-10.5,2.3-16.2,3.1-17,2.3s1.2-2.3,5.9-4.7,9-4.7,12.9-7,4.7-4.3,4.7-5.9-3.5-2.7-10.5-3.5A128,128,0,0,1,130.7,48a63.3,63.3,0,0,1-13.5-7C112.5,37.9,110.9,35.9,112.5,35.2Z"/></symbol>
        <symbol id="4"><path d="M140.6,109q19.9-9.4,24-11.7t13.5,2.3q8.2,4.7,10.5,10c1.6,3.5.8,6.8-2.3,10s-10.5,9.2-19.9,20.5-24.2,29.5-44.5,54.5q18.7-7,27-2.3a26.9,26.9,0,0,1,11.7,12.9q3.5,8.2,4.1,23.4t4.1,21.1q3.5,4.7,15.2,4.7a101.8,101.8,0,0,0,22.3-2.3q9.4-3.5,15.8-6.4t14.6,1.8q7,4.7,6.4,8.2t-17,7a238.4,238.4,0,0,1-34,4.7q-17.6,1.2-28.1-3.5t-12.3-23.4q-1.8-17.6-2.9-24.6a20,20,0,0,0-5.3-11.1,13.6,13.6,0,0,0-10-4.1,23.8,23.8,0,0,0-12.9,1.2q-5.9,2.4-25.8,28.1T70.3,262.5q-4.7,7-8.2,7t-6.4-5.3a31.5,31.5,0,0,1-1.8-10q0-5.9,9.4-12.9t29.3-29.3q19.9-22.2,46.9-58t28.1-40.4q1.2-5.9-11.1-1.2t-32.2,14.1Q103.1,136,94.9,140t-15.2,1.8a32.2,32.2,0,0,1-12.9-9.4q-4.7-5.9,9.4-5.9a105.8,105.8,0,0,0,28.7-4.1Q119.5,118.4,140.6,109ZM123,43.4l18.2,4.1,17,4.1A46.4,46.4,0,0,1,173.4,58c3.9,2.7,6.6,5.3,8.2,7.6a8.8,8.8,0,0,1,1.2,7.6q-1.2,4.1-9.4,5.3t-26.4,4.1q-18.2,4.1-20.5,2.9t7.6-5.9a88.6,88.6,0,0,0,14.6-8.2c2.3-2.3,3.7-4.3,4.1-5.9s-1.8-3.1-6.4-4.7a155.9,155.9,0,0,1-21.1-11.7Q112.5,41,123,43.4Z"/></symbol>
        <symbol id="6"><path d="M116,52.7a37.4,37.4,0,0,1,12.9,5.9q7,4.7,8.2,9.4T131.8,82q-5.3,10.5-13.5,30.5,19.9-7,34-5.3T175.8,123q9.4,12.9-1.2,53.3T157,230.9q-8.2,12.9-15.2,18.8a56,56,0,0,1-16.4,9.4q-9.4,3.5-13.5-5.9a69.5,69.5,0,0,0-8.8-15.2L92,224.4q-5.3-6.4,2.9-2.9t15.2,7a66.3,66.3,0,0,0,15.2,4.7q7,1.2,15.2-10.5t15.2-36.3q7-25.8,7-40.4T157,125.4a19.9,19.9,0,0,0-14.6-5.9q-8.8,0-27.5,5.9-21.1,49.2-35.7,73.8T58.6,235.5q-7,10.5-11.7,14.6t-8.2-5.3q-3.5-10.5,2.9-16.4a102.6,102.6,0,0,0,11.1-11.7q4.7-7,18.2-31.1a394.6,394.6,0,0,0,25.2-55.7q-25.8,7-35.2,12.3t-16.4-1.8q-7-8.2-7.6-12.3c-0.4-2.7,1.8-4.1,6.4-4.1q25.8,2.4,57.4-8.2,8.2-21.1,10-30.5a83.8,83.8,0,0,0,1.8-14.1A60.9,60.9,0,0,0,110.7,58Q109,50.4,116,52.7Zm91.4,55.1q-2.4-3.5,17,8.2t31.1,24.6q11.7,12.9,14.6,24a41.5,41.5,0,0,1-.6,22.9q-3.5,11.7-10,17t-11.1-.6a85.4,85.4,0,0,0-14.1-11.1,190.6,190.6,0,0,0-17.6-10q-10.5-5.9-4.1-5.3t19.3,2.9q11.7,1.2,14.6,0t4.1-7q0-7-5.3-18.2A89.4,89.4,0,0,0,232,134.8q-9.4-10.5-16.4-17C210.9,113.5,208.2,110.2,207.4,107.8Z"/></symbol>
        <symbol id="7"><path d="M104.3,45.7a39.8,39.8,0,0,1,14.6-2.3q8.8,0,10,7c0,3.9,1.4,9.2,4.1,15.8a235.2,235.2,0,0,0,11.1,22.9,179,179,0,0,0,24.6-12.3q10.5-6.4,17.6-10A12.6,12.6,0,0,1,198,65.6c3.9,1.6,5.5,3.5,4.7,5.9S194.9,77,184,83.2a271.2,271.2,0,0,1-34,16.4q8.2,14.1,19.9,30.5L191,118.4q8.2-4.7,15.2-9.4t14.1-1.8q8.2,2.9,0,8.8l-18.2,10.5q-10,5.9-26.4,14.1,26.9,36.3,35.2,44.5T221.5,198c0.8,2.3.6,5.7-.6,10a21.9,21.9,0,0,1-5.3,10q-3.5,3.5-12.3-4.7t-33.4-16.4q-25.8-8.2-48-5.3T91.4,203.9q-8.2,8.2-5.9,19.9t15.2,22.3q12.9,9.4,34.6,9.4t33.4-2.3a96.4,96.4,0,0,1,19.3-4.1q7.6-.6,8.8,2.9t-6.4,9.4q-7.6,5.9-22.9,9.4a173.8,173.8,0,0,1-32.2,1.8,88.4,88.4,0,0,1-31.1-6.4q-15.2-7-24.6-18.2a51,51,0,0,1-11.7-24q-2.4-14.1,7-26.4t43.4-17q32.8-5.9,77.3,10.5-15.2-19.9-32.8-45.7a239.5,239.5,0,0,1-27.5,6.4,126.5,126.5,0,0,1-19.3,1.8,70.1,70.1,0,0,1-15.8-1.8c-5.1-1.2-8.8-2.5-11.1-4.1s-0.6-3.5,7.6-3.5a204.7,204.7,0,0,0,28.7-2.3,173.2,173.2,0,0,0,30.5-7l-18.7-30.5q-24.6,7-35.2,6.4t-17.6-4.1q-8.2-3.5-8.2-5.3c0-1.2,5.9-1.4,17.6-.6s23.4-2.3,37.5-7Q120.7,75,116,68a93.5,93.5,0,0,0-11.7-14.1Q97.3,46.9,104.3,45.7Z"/></symbol>
        <symbol id="8"><path d="M168.8,34q0-9.4,11.1-1.2T193.4,48c0.8,3.9-.6,7.6-4.1,11.1s-12.7,12.3-27.5,26.4-28.5,26.8-41,38.1-19.2,18.6-19.9,21.7,4.9,9.6,19.3,19.3,27.1,19,38.1,27.5,19.7,16.8,26.4,24.6,11.1,15.6,13.5,23.4,1.2,13.1-1.2,18.2-5.5,8-9.4,8.8-8.4-5.1-13.5-17.6a185.3,185.3,0,0,0-17-32.8q-9.4-14.1-25.2-28.7t-26.4-22.9q-11.7-9.4-14.6-16.4t24-34q25.8-26.9,37.5-42.8t14.1-21.7C167.2,45.7,168,40.2,168.8,34Z"/></symbol>
        <symbol id="9"><path d="M59.8,45.7q-2.4-9.4,6.4-5.9a43.2,43.2,0,0,1,14.6,9.4q5.9,5.9,2.3,14.6T75,89.1A378.4,378.4,0,0,0,63.3,126a113.8,113.8,0,0,0-3.5,42.8q1.2,21.1,5.9,29.3t9.4-1.2q3.5-10.5,11.7-29.3t9.4-14.1q0,4.7-4.7,22.3a270.1,270.1,0,0,0-7,36.3q-2.4,17.6-3.5,25.2t-10.5-.6q-9.4-8.2-17.6-25.8t-9.4-39.8Q42.2,147.7,51,116t10-41c0.8-7,1.2-12.3,1.2-15.8A51.5,51.5,0,0,0,59.8,45.7Zm126.6-7c0-2.3,2.1-3.1,6.4-2.3A36.7,36.7,0,0,1,205.1,41q5.9,2.4,8.2,5.3t0,7.6q-2.4,4.7-2.9,12.9t-0.6,24.6q25.8-4.7,31.6-7.6c3.9-1.9,8.2-1.8,12.9.6s6,4.5,6.4,6.4-0.6,3.7-2.9,5.3-8.8,2-17,3.5-18.6,3.1-31.1,4.7q0,50.4-3.5,75t-16.4,43.4q-14.1,17.6-36.9,29.3t-27.5,11.7q-4.7-1.2,14.6-13.5a135.8,135.8,0,0,0,33.4-29.9,105.5,105.5,0,0,0,17-39.8q4.1-21.1,4.1-73.8-27,2.4-41,1.2T133.6,102q-7-5.9,4.1-5.3t22.9,0.6q10.5,0,34-3.5,0-31.6-4.7-41.6C186.7,45.5,185.5,41,186.3,38.7Z"/></symbol>
        <symbol id="10"><path d="M73.8,166.4q10.5-17.6,6.4-7A85,85,0,0,0,75,182.8a37.7,37.7,0,0,0,2.9,23.4Q83.2,218,100.8,225t43.9,4.1q27.5-1.8,45.1-6.4t25.8-7.6q8.2-2.9,10.5,2.9c0.8,3.1,0,6.4-2.3,10s-7.8,6.8-16.4,10-22.7,5.5-42.2,7-37.5.8-53.9-2.3-28.3-8.8-35.7-17-11.5-17-12.3-26.4S66,178.1,73.8,166.4ZM94.9,62.1q-7-5.9,10.5-1.8t41,2.9q22.2-1.2,31.6-4.1c6.2-1.9,11.3-1.8,15.2.6a16.3,16.3,0,0,1,7.6,9.4q1.8,5.9-5.3,8.2a68.6,68.6,0,0,0-17.6,5.3q-9.4,4.1-27,13.5t-22.9,8.8q-5.3.6,4.1-6.4t27-22.3a205.5,205.5,0,0,1-28.7-1.8,155,155,0,0,1-20.5-4.1A55.1,55.1,0,0,1,94.9,62.1Z"/></symbol>
        <symbol id="11"><path d="M110.2,30.5a21.1,21.1,0,0,1,12.9-.6c3.9,1.2,4.7,3.3,2.3,6.4s-1.8,5.5,1.8,9.4,8,8.6,13.5,14.1,11.7,13.3,21.1,23.4q16.4-5.9,25.8-11.7l12.9-8.2q2.3-2.3,11.1,0t6.4,7q-3.5,4.7-19.3,12.3a251.6,251.6,0,0,1-29.9,12.3q21.1,24.6,33.4,42.2T218,162.9a32.6,32.6,0,0,1,1.2,14.6,36.5,36.5,0,0,1-4.7,12.3q-4.7,4.7-12.3-3.5a88.7,88.7,0,0,0-19.3-15.2q-11.7-7-28.1-10a126.2,126.2,0,0,0-31.6-1.8q-16.4,1.2-27,7.6a26.7,26.7,0,0,0-12.9,18.2q-3.5,10.5,5.3,22.9a44.7,44.7,0,0,0,24,17,99.1,99.1,0,0,0,32.8,4.1,182.5,182.5,0,0,0,29.3-2.9q10.5-3.5,12.9,1.8T184,239.1q-5.9,5.9-25.2,7t-32.2-1.2a106.9,106.9,0,0,1-28.7-9.4,62.6,62.6,0,0,1-24-19.9q-9.4-14.1-7.6-29.9t18.2-27.5q16.4-11.7,51-12.3t62.7,17q-18.8-30.5-43.4-63.3-22.3,5.9-35.2,7t-21.1-1.2q-9.4-2.3-14.6-8.2t7.6-4.7a174.4,174.4,0,0,0,28.7,0q15.8-1.2,25.2-4.7-10.5-11.7-21.1-24t-16.4-17c-4.7-3.9-6.8-7.4-6.4-10.5S104.7,31.3,110.2,30.5Z"/></symbol>
        <symbol id="12"><path d="M77.3,41q8.2,0,17.6,5.3t4.7,11.1Q93.7,63.3,90.8,99a597.6,597.6,0,0,0-1.8,69.7q0,34,2.9,49.2t18.2,24.6q14.1,8.2,38.7,1.2t52.7-29.3q26.9-22.2,28.7-20.5t-10,17a186.1,186.1,0,0,1-28.1,27,137.9,137.9,0,0,1-34,19.9,92,92,0,0,1-37.5,4.1q-19.9-1.8-32.8-15.8T73.2,194.5q-0.6-36.3.6-71.5t1.8-49.8q0.6-14.6-2.9-24T77.3,41Z"/></symbol>
        <symbol id="13"><path d="M150,36.3a42.9,42.9,0,0,1,14.6,2.3c4.3,1.6,7.2,3.5,8.8,5.9s1.6,4.3,0,8.2-2.3,16-2.3,36.3q44.5-5.9,60.4-7.6t24,1.8a16.4,16.4,0,0,1,10,8.2c1.9,3.9-.6,5.9-7.6,5.9s-19-1-33.4-.6-32.2,1.8-53.3,4.1q0,17.6,1.2,41,3.5,14.1,2.9,35.2a106.2,106.2,0,0,1-8.8,39.8A86.1,86.1,0,0,1,143,248.4q-15.2,12.9-30.5,18.8T92,271.9q-4.1-1.2,10-7t30.5-24q17.6-17,25.8-43.9-8.2,10.5-20.5,12.3t-19.3-5.3q-8.2-7-11.1-20.5a61,61,0,0,1-.6-25.2,43,43,0,0,1,9.4-19.9,31.7,31.7,0,0,1,17.6-10.5q10.5-2.3,24.6,5.9,0-11.7-1.2-31.6-34,4.7-52.7,8.2a304.5,304.5,0,0,0-30.5,7q-12.9,3.5-19.9,0a34.3,34.3,0,0,1-11.7-9.4q-5.9-7,11.1-5.9t41.6-2.3L157,90.2q-1.2-26.9-3.5-34a42.1,42.1,0,0,0-7-12.9Q141.8,36.3,150,36.3ZM138.3,139.5c-3.9,0-7.8,2.2-11.7,6.4a27.9,27.9,0,0,0-7,15.8,57.3,57.3,0,0,0,0,16.4,24.1,24.1,0,0,0,7,14.1q4.7,5.9,12.3,3.5a28.4,28.4,0,0,0,13.5-9.4q4.7-7,5.3-17.6c0.4-7,.2-12.5-0.6-16.4s-4.1-8-7.6-10A22.7,22.7,0,0,0,138.3,139.5Z"/></symbol>
        <symbol id="14"><path d="M179.3,62.1q-5.9-9.4,4.7-8.2t16.4,4.7q5.9,3.5,3.5,8.8c-1.6,3.5-2.3,8.8-2.3,15.8s-1.6,16.4-2.3,30.5q19.9-3.5,32.2-5.3t20.5,1.8q7,3.5,7,9.4t-14.1,4.7q-14.1-1.2-45.7,2.3a253.6,253.6,0,0,1-2.9,41q-2.9,17.6-10,25.8T174,201c-2.7.4-4.9-1.8-6.4-6.4a50.3,50.3,0,0,0-11.1-14.1q-7.6-7-6.4-8.2c0-.8,3.1-0.2,9.4,1.8s10.9,3.3,14.1,4.1,4.7-2.9,7-8.8,3.9-19.7,4.7-41.6l-71.5,11.7q0,58.6,3.5,71.5t12.9,19.9q8.2,7,25.2,8.2a184,184,0,0,0,35.7-1.2q18.7-2.3,26.4-4.1c5.1-1.2,8.4-.2,10,2.9s0.8,6.3-2.3,9.4-10.9,5.5-23.4,7-27.9,1-43.9.6-28.7-4.1-38.1-11.1-15.2-18.9-17.6-35.7-3.1-38.5-2.3-65q-29.3,5.9-39.8,8.8t-17.6-1.8c-4.7-3.1-7.4-6-8.2-8.8s1.9-4.1,8.2-4.1h17q7.6,0,40.4-5.9,0-32.8-1.2-39.8a36.4,36.4,0,0,0-5.9-14.1q-4.7-8.2,5.9-7T114.8,75c3.1,2.3,3.7,5.7,1.8,10s-2.9,18.6-2.9,42.8q37.5-5.9,71.5-11.7,0-22.2-.6-34T179.3,62.1Z"/></symbol>
        <symbol id="15"><path d="M175.8,42.2q8.2-4.7,14.1-1.2a62.4,62.4,0,0,1,11.7,9.4q4.7,5.9,5.9,10.5c0.8,3.1-1.2,5.9-5.9,8.2s-20.1,11.5-43.9,27.5S104.7,130.5,70.3,150q46.9-8.2,75.6-15.2t41.6-9.4q12.9-3.5,24.6-5.9t21.1,2.3q8.2,4.7,7,8.2c-0.8,2.3-4.7,3.9-11.7,4.7s-14.5.2-19.9,0.6-11.7,2.2-18.7,5.3-18.2,9.8-33.4,22.3-23.3,25-24,37.5,1.2,20.9,5.9,27.5A40.9,40.9,0,0,0,157,242.6q11.7,4.7,30.5,4.7t17.6,10.5q-2.4,9.4-19.9,10T150,259q-18.8-9.4-27.5-29.3t-0.6-42.2q8.2-22.2,49.2-48-32.8,7-60.4,14.6T72.7,167.6q-11.7,4.7-19.9-3.5t-3.5-12.9q5.9-2.3,15.2-5.3t27-13.5q22.2-11.7,52.1-36.3t35.7-32.8q4.7-10.5.6-13.5T150,57.4q-22.3,11.7-31.6,13.5a27,27,0,0,1-17.6-2.3A29.2,29.2,0,0,1,87.9,55.7q-4.7-8.8,7-6.4,9.4,2.4,20.5,5.9t32.2-2.3Q167.6,45.7,175.8,42.2Z"/></symbol>
        <symbol id="16"><path d="M102,50.4c-0.8-7.8,1-11.1,5.3-10s9.2,3.7,14.6,7.6,5.7,6.6,2.9,10.5a46.5,46.5,0,0,0-6.4,14.1q-2.4,8.2-5.9,23.4,17.6-5.9,27.5-11.7t18.2-5.9q8.2,0,9.4,5.3T146.5,98.4q-22.3,9.4-36.3,12.9-4.7,21.1-10,42.8a389.5,389.5,0,0,1-14.6,46.3q-9.4,23.5-17,36.9T57.4,255.5c-2.3,3.1-5.3,2-8.8-3.5s-2.2-12.1,4.1-19.9,11.7-19.9,18.8-36.3,14.8-43.7,23.4-82q-15.2,1.2-21.7.6a78.9,78.9,0,0,1-14.6-2.9q-8.2-2.3-11.7-5.9t11.7-2.3q15.2,0,38.7-3.5a218.9,218.9,0,0,0,4.7-27A107.7,107.7,0,0,0,102,50.4Zm41,143c3.1-5.5,5.1-7.6,5.9-6.4s0,6.1-2.3,14.6-3.7,16.4-1.8,23.4,7.2,12.1,15.8,15.2,19.5,3.1,32.8,2.3,22.7-1.6,28.1-2.3a61,61,0,0,1,12.9-2.9q5.9-.6,11.7,5.3t0,10q-5.9,4.1-38.7,5.3T157,252q-16.4-5.9-21.1-17.6t-1.8-23.4A46.1,46.1,0,0,1,143,193.4Zm52.7-83.2,22.3-5.3q7-1.8,15.2,4.1c5.5,3.1,9.4,6.1,11.7,8.8s3.5,5.3,3.5,7.6-4.1,3.9-10,4.7a83.3,83.3,0,0,0-18.2,4.7,204,204,0,0,0-22.9,9.4c-8.2,3.9-12.7,5.5-13.5,4.7s1-3.7,7.6-8.8,13.1-9.6,19.3-13.5,7.6-6.6,6.4-8.2-7.2-1.6-18.2,0l-24.6,3.5q-8.2,1.2-14.1-3.5t5.9-5.3Q179.3,112.5,195.7,110.2Z"/></symbol>
        <symbol id="17"><path d="M111.3,43.4q-2.4-10.5,5.3-8.8a45.2,45.2,0,0,1,15.8,7.6q7,5.9,1.8,12.3T121.9,87.9q26.9-3.5,39.3-6.4t20.5-5.3q8.2-2.3,14.6,4.1t-1.8,8.8q-9.4,2.4-31.1,5.9t-43.9,5.9q-22.3,66.8-19.9,70.3a111.5,111.5,0,0,1,38.7-27q22.2-9.4,42.2-10.5t35.2,7.6q15.2,8.8,21.1,22.9t0,34q-5.9,19.9-25.8,34T157,247.9q-34,2.9-36.3.6t22.9-6.4q25.2-2.9,45.1-12.3T215,203.9q7.6-16.4,5.3-28.1A32.2,32.2,0,0,0,208,155.3q-10-7.6-26.4-8.8t-40.4,8.8q-24,11.2-34.6,25.2T90.8,196.3c-3.5,1.2-6.4-1.4-8.8-7.6s-2.3-13.5,0-19.3S92.2,141,105.5,102q-16.4,1.2-24,.6a78.4,78.4,0,0,1-15.8-2.9,40.4,40.4,0,0,1-12.9-8.2q-4.7-4.7,5.9-2.3a194.7,194.7,0,0,0,21.7,1.2q11.1,0,27.5-1.2a151.1,151.1,0,0,0,4.7-24.6A62.1,62.1,0,0,0,111.3,43.4Z"/></symbol>
        <symbol id="18"><path d="M175.8,71.5a84.3,84.3,0,0,1,41,8.2q19.9,9.4,29.3,25.8a70.7,70.7,0,0,1,8.2,34q0,18.8-11.7,41t-39.3,36.9q-27.5,15.8-63.9,20.5t-41,0q-4.7-3.5,19.9-5.9T167,219.7a149.2,149.2,0,0,0,43.9-26.4q17.6-16.4,22.9-38.7T232,117.2q-8.2-16.4-18.7-24t-31.6-8.8Q160.5,82,132.4,92t-41,17a125.3,125.3,0,0,0-24,12.9q-10,7-17,1.2a45.5,45.5,0,0,1-12.3-12.3q-4.1-6.4,10-6.4a84.3,84.3,0,0,0,25.8-4.1q12.9-4.1,27-10t34-12.3A132.8,132.8,0,0,1,175.8,71.5Z"/></symbol>
        <symbol id="19"><path d="M189.8,58.6q28.1-5.9,38.1-5.9t15.8,5.9c3.1,3.9,4.7,7.6,4.7,11.1s-2.3,5.3-7,5.3-15.1.2-28.7,2.9-27.5,10-41.6,21.7-25.6,23.1-32.2,36.3-10,25.8-10,37.5a69.6,69.6,0,0,0,5.9,33.4q7,15.8,19.9,22.9t23.4,8.2a74.5,74.5,0,0,0,18.8,0c4.7-.8,8.2.6,10.5,4.1s1.2,6.8-3.5,10-11.5,4.5-20.5,4.1-19.3-3.3-31.1-8.8-21.3-15.8-28.7-28.7-10.7-27.9-10-45.1,6.6-35.2,19.9-53.9S167.2,84,194.5,69.1a695,695,0,0,0-70.3,14.6q-38.7,10-50.4,12.3T53.9,93.2q-8.2-4.1-9.4-7.6t17.6-4.7q18.7,0,58.6-8.2Z"/></symbol>
        <symbol id="20"><path d="M106.6,43.4q2.3-3.5,10.5,0a41.1,41.1,0,0,1,12.9,8.2q3.5,4.7,0,10.5t-4.7,18.8q-2.4,12.9,1.2,28.7a59.8,59.8,0,0,0,14.1,27.5q36.3-16.4,44.5-20.5t9.4-7.6a12.5,12.5,0,0,1,4.1-7c1.9-1.6,5.3-.4,10,3.5s7,8,7,12.3-5.5,8.4-16.4,12.3a293.5,293.5,0,0,0-31.1,10q-13.5,5.3-29.9,13.5a198.7,198.7,0,0,0-30.5,18.8q-14.1,10.5-18.7,23.4a32.6,32.6,0,0,0-.6,26.4q5.3,13.5,24,19.3t46.3,2.9q27.5-1.8,41.6-6.4t17.6-1.8a12.5,12.5,0,0,1,5.9,7.6q1.2,4.7-10,10.5t-52.1,7q-41,1.2-63.3-9.4T72.7,222.7A55.5,55.5,0,0,1,77.3,184q9.4-18.7,49.2-39.8-12.9-18.7-15.8-38.1T109,75q1.2-12.9-1.8-21.1T106.6,43.4Z"/></symbol>
        <symbol id="21"><path d="M121.9,49.2c-0.8-3.1-.4-5.5,1.2-7s4.3-1.2,8.2,1.2a42,42,0,0,1,10,8.2q4.1,4.7.6,9.4T121.9,93.8q14.1-2.3,22.3-5.9a161.2,161.2,0,0,0,16.4-8.2q7-4.7,14.1,0t3.5,8.2q-3.5,2.4-19.3,8.8T116,105.5q-21.1,39.9-34.6,60.9T60.9,194.5c-4.7,4.7-8.4,7.4-11.1,8.2s-4.5,0-5.3-2.3-1.6-7.4,0-12.9,5.1-10.1,10.5-14.1,11.1-11.9,19.3-21.7,17.8-25.2,28.7-46.3q-21.1-1.2-31.1-7t-10-8.2q-1.2-3.5,5.3-1.2a71.8,71.8,0,0,0,15.8,3.5A218.1,218.1,0,0,0,109,93.8q9.4-17.6,11.1-29.3A134.9,134.9,0,0,0,121.9,49.2Zm68,43.4q2.3-2.3,21.7,4.1t29.9,15.8q9.4,9.4,10.5,17.6t-1.2,11.7q-2.4,3.5-10.5-1.2a46.7,46.7,0,0,0-16.4-5.9,48.9,48.9,0,0,0-17,.6q-7.6,1.8-14.6,8.8t-8.8,23.4q-0.6,17.6,1.8,49.2a171.5,171.5,0,0,1,22.3,12.9,65.1,65.1,0,0,1,12.9,11.7,30.5,30.5,0,0,1,4.1,13.5q0.6,7.6-2.9,11.1t-14.1-10.5A84,84,0,0,0,184,232q-3.5,17.6-16.4,27t-30.5,9.4q-18.8,0-30.5-6.4T91.4,243.8q-4.7-12.9,5.9-25.2t29.3-14.6q17.6-2.3,44.5,7-3.5-32.8-1.2-53.3T191,128.9a69.1,69.1,0,0,1,39.8-4.7,53.8,53.8,0,0,0-15.2-15.8,88.3,88.3,0,0,0-18.7-10Q187.5,93.8,189.8,92.6ZM150,215.6a82,82,0,0,0-23.4-1.2Q116,215.6,109,225t-3.5,17q4.7,8.8,16.4,12.3a63.2,63.2,0,0,0,22.9.6q12.3-1.8,19.3-10a47.1,47.1,0,0,0,7-19.9A51.8,51.8,0,0,0,150,215.6Z"/></symbol>
        <symbol id="22"><path d="M66.8,70.3q5.9,2.4,12.9,10t1.2,19.3a197.6,197.6,0,0,0-11.1,24q-5.3,13.5-7.6,33.4a120.8,120.8,0,0,0-1.8,35.2,77.8,77.8,0,0,0,8.8,29.3l11.7-25.8q5.9-12.9,8.2-14.1t-0.6,11.7a209,209,0,0,0-4.1,23.4A130,130,0,0,0,81.4,235c-0.4,5.1-.6,9.6-0.6,13.5s-1.2,6.3-3.5,7-5.9-1.6-10.5-7-9.2-13.5-13.5-24-6.8-23.2-7.6-38.1A158.9,158.9,0,0,1,50.4,140q5.9-24,9.4-35.7t1.2-21.1c-1.6-5.5-2-9.4-1.2-11.7S62.9,68.8,66.8,70.3ZM123,185.2c3.9-7,6.4-10.1,7.6-9.4s0.2,6.3-2.9,16.4-2.9,18,.6,25.8,11.1,13.7,22.9,17.6a105.8,105.8,0,0,0,35.7,3.5,114.8,114.8,0,0,0,34.6-7q15.2-5.9,17.6.6t-3.5,12.3q-7,5.9-24.6,8.2a205.3,205.3,0,0,1-38.7,1.2q-21.1-2.3-34-8.8t-18.7-18.2q-5.9-11.7-4.1-22.3A53.9,53.9,0,0,1,123,185.2ZM199.2,73.8q9.4-3.5,14.1-2.9t10.5,5.3c3.1,3.1,4.7,6.3,4.7,9.4s-2.3,5.1-7,5.9-12.3,3.5-20.5,8.2a132.4,132.4,0,0,0-20.5,14.1q-9.4,5.9-14.1,8.2t-3.5,0q1.2-3.5,11.7-14.6T191,89.1q5.9-7-5.3-4.1l-24,6.4q-14.1,3.5-19.9.6t-7-7.6c-1.6-3.1,1.2-4.1,8.2-2.9s16.4,0.6,28.1-1.8S192.2,75.4,199.2,73.8Z"/></symbol>
        <symbol id="23"><path d="M127.7,59.8c-2.3-6.2-1-9,4.1-8.2a30.1,30.1,0,0,1,14.6,7q5.9,4.7,2.9,11.1t-5.3,20.5q30.5-8.2,57.4,2.3t36.3,41q8.2,30.5-9.4,72.7,14.1,8.2,21.7,14.6t8.8,13.5q0,7-4.1,11.1t-11.1-6.4a104.3,104.3,0,0,0-21.1-19.9,81.4,81.4,0,0,1-22.3,21.1q-12.9,8.2-30.5,7t-24.6-10.5q-7-9.4-5.9-19.9T150,198.6q9.4-7.6,29.3-7.6a85.2,85.2,0,0,1,36.3,8.2q9.4-21.1,9.4-39.8t-4.7-30.5a50.6,50.6,0,0,0-16.4-20.5,48.1,48.1,0,0,0-24.6-8.8Q165.2,97.3,143,102a355.6,355.6,0,0,1-14.6,47.5,268.4,268.4,0,0,1-24,48.6,49,49,0,0,0,15.2,12.3c5.5,2.7,7,6.1,4.7,10a10.8,10.8,0,0,1-11.1,2.9q-6.5-1.8-15.8-13.5a150.2,150.2,0,0,1-24,27q-12.3,10.5-22.9,7T35.7,223.8q-4.1-15.2.6-32.8t24.6-48q-4.7-21.1-6.4-31.1a82.6,82.6,0,0,0-5.3-18.2q-4.7-9.4,0-10t14.1,4.1q8.2,3.5,5.9,14.1t2.3,31.6q19.9-19.9,58.6-39.8c0.8-9.4,1.2-16,1.2-19.9S130.1,65.2,127.7,59.8ZM66.8,157q-12.9,18.8-17.6,33.4t-2.3,24c0.8,6.3,2.5,11.1,5.3,14.6s7.2,3.3,13.5-.6,13.3-14.1,23.4-28.1Q77.3,185.2,66.8,157Zm60.9-49.2q-28.1,12.9-51.6,38.7,5.9,19.9,19.9,41A288.3,288.3,0,0,0,127.7,107.8Zm58.6,96.1a58,58,0,0,0-20.5,1.2q-8.8,2.4-11.1,10.5t1.2,12.9q4.7,5.9,15.2,7a39.9,39.9,0,0,0,20.5-5.9q9.9-5.9,18.2-17.6Q196.9,203.9,186.3,203.9Z"/></symbol>
        <symbol id="24"><path d="M75,48q-3.5-8.2,3.5-7a36.4,36.4,0,0,1,14.1,5.9q7,3.5,4.7,11.1a43.9,43.9,0,0,0-2.3,12.3q-1.2,3.5-2.3,28.1,12.9-5.9,13.5-1.2T92.6,109v24.6q25.8-26.9,53.3-39.3t51-7.6q22.2,4.7,35.7,32.2t-2.9,86.1q19.9,8.2,28.1,14.1t9.4,12.9a12.7,12.7,0,0,1-2.3,10.5q-3.5,4.7-12.9-4.7t-27-18.7q-12.9,18.8-30.5,27t-34,5.9q-17.6-3.5-23.4-15.2a27.4,27.4,0,0,1-1.2-23.4q3.5-12.9,24-19.9t55.7,5.9a157.9,157.9,0,0,0,7-36.9q1.2-18.2-1.2-31.1a53.3,53.3,0,0,0-12.9-24q-9.4-9.9-25.8-10T140,110.2q-25.2,14.1-47.5,37.5,0,58.6.6,68t1.8,18.8a29.8,29.8,0,0,1-4.1,15.2A35.3,35.3,0,0,1,82,260.2q-5.9,2.3-8.8-7a81.9,81.9,0,0,0-8.8-18.7A124.9,124.9,0,0,0,48,212.1Q41,225,37.5,232t-7,7q-3.5,0-5.3-8.2t6.4-18.7q8.2-11.7,23.4-39.3a368.9,368.9,0,0,0,25.8-58,136.2,136.2,0,0,0-15.2,7.6q-4.7,2.9-12.9,7.6t-15.2,1.2q-7-3.5-7-7c-0.8-2.3.8-3.7,4.7-4.1s9.4-1.8,16.4-4.1,16.8-7,29.3-14.1q0-25.8-1.2-35.7A65.6,65.6,0,0,0,75,48Zm5.9,110.2q-18.8,29.3-30.5,49.2Q71.5,223.8,75,227.3t4.7-4.7a98.8,98.8,0,0,0,1.2-12.9V158.2Zm106.6,46.9a50.3,50.3,0,0,0-22.9.6q-11.2,2.9-14.6,11.1t1.2,14.6q4.7,6.5,16.4,6.4t22.3-5.3q11.7-5.3,21.1-20.5Q198,206.3,187.5,205.1Z"/></symbol>
        <symbol id="25"><path d="M152.3,44.5a131.3,131.3,0,0,1,41,4.1,79.6,79.6,0,0,1,34,18.2,75.3,75.3,0,0,1,19.3,27.5,107.2,107.2,0,0,1,7.6,33.4,155.4,155.4,0,0,1-2.3,36.9q-3.5,20.5-18.7,40.4a103,103,0,0,1-36.3,28.7q-21.1,10-38.7,13.5t-21.7.6q-2.9-1.8,21.7-8.8a139,139,0,0,0,45.1-25.2q20.5-17,27.5-36.9t6.4-38.1a128.3,128.3,0,0,0-5.3-33.4,68.4,68.4,0,0,0-16.4-28.7q-11.7-12.3-31.6-17a121.3,121.3,0,0,0-44.5-1.2q12.9,35.2,10.5,65a165,165,0,0,1-14.1,55.7q-12.9,24.6-27.5,37.5T82,230.9q-12.9,1.2-24.6-8.2t-17.6-34Q34,164.1,41,135.4T66.8,86.7q17.6-21.1,41-31.1T152.3,44.5ZM132.4,59.8Q99.6,69.2,80.3,90.8T55.1,138.3q-5.9,25.8-2.3,42.8t10.5,26.4a18.4,18.4,0,0,0,15.8,8.2q9.9,0,22.9-10.5t21.7-32.8a159.9,159.9,0,0,0,13.5-46.9Q140.6,98.4,132.4,59.8Z"/></symbol>
        <symbol id="26"><path d="M58.6,65.6q-2.4-12.9,5.3-10.5T77.3,65.6q5.9,8.2,1.2,15.2T64.5,125.4q-10.5,36.3-12.3,56.8t4.1,36.9q9.4-21.1,15.2-34t5.9-9.4q0,2.4-4.7,25.8t-4.7,34q0,10.5-1.8,15.8t-11.1-4.1q-10.5-10.5-15.8-31.6t5.3-64.5Q53.9,106.6,57.4,92T58.6,65.6Zm109-19.9c0.8-2.3,4.1-2.5,10-.6s10.3,4.5,13.5,7.6,2.5,5.3.6,8.8-2.9,8.8-2.9,15.8a265.1,265.1,0,0,0-1.2,28.1q17.6-4.7,28.1-9.4t18.8,0q8.2,4.7-4.1,10t-42.8,12.3q1.2,51.6,1.2,89.1a117,117,0,0,1,28.7,14.6q12.3,8.8,13.5,17T226.8,252q-4.1,4.7-13.5-8.2t-25.8-22.3Q184,241.4,172.3,252t-30.5,11.7q-19.9,0-31.1-8.8A31.2,31.2,0,0,1,98.4,232q-1.2-14.1,9.4-24t30.5-10a95.4,95.4,0,0,1,36.3,4.7q0-30.5-1.2-80.9-24.6,3.5-35.7,1.8t-17-5.3q-7-4.7,3.5-4.7H143q8.2,0,30.5-4.7,0-36.3-3.5-48C167.6,53.1,166.8,48,167.6,45.7Zm5.9,169.9q-10.5-4.7-25.8-6.4t-25.8,4.1q-10.5,5.9-9.4,16.4t8.2,15.2q7,4.7,17.6,5.3t21.1-5.3Q169.9,237.9,173.4,215.6Z"/></symbol>
        <symbol id="27"><path d="M97.3,59.8q10.5-5.9,15.8-7c3.5-.8,7.2.8,11.1,4.7s6.4,7.2,7.6,10-1,5.7-6.4,8.8S113.7,84.6,106.6,92s-14.1,17.4-21.1,29.9-12.1,21.7-15.2,29.9-4.7,17.8-4.7,28.7a86.8,86.8,0,0,0,7,33.4q7,17,18.8,25.2t31.6,4.7q19.9-2.3,38.7-25.8t25.2-60.4q6.4-35.7,4.1-53.3t-5.3-27.5Q182.8,68,184,64.5t9.4-5.3c5.5-1.2,9.8-.2,12.9,2.9s4.7,7.6,7,15.8a239.1,239.1,0,0,0,9.4,26.4,140.5,140.5,0,0,0,11.7,24.6A90,90,0,0,0,252,150q10.5,8.2,7,14.1t-10.5,3.5q-8.2-2.3-19.3-17.6T202.7,86.7q4.7,50.4-2.3,80.3t-18.7,49.8q-11.7,18.8-28.1,29.3A83.5,83.5,0,0,1,118.4,259a59.2,59.2,0,0,1-35.2-8.8q-16.4-9.9-24.6-31.1a106.6,106.6,0,0,1-7-44.5q1.2-23.4,15.2-48T93.2,86.1q13.5-15.8,12.3-17t-17,4.7Q73.8,79.7,65.6,85.5t-17-.6Q41,79.7,39.8,75t7.6-4.1q9.9,0.6,24-2.9A199.6,199.6,0,0,0,97.3,59.8Z"/></symbol>
        <symbol id="28"><path d="M128.9,150q-7-12.9-2.9-24.6t29.9-30.5q-8.2-8.2-15.8-17a86.4,86.4,0,0,1-12.3-18.2c-3.9-6.2-5.3-9.8-4.1-10.5s4.9,2,11.1,8.2a146.9,146.9,0,0,0,19.3,16.4q9.9,7,18.2,11.7t8.8,10a21.1,21.1,0,0,1-.6,8.8q-1.2,3.5-8.2,4.1t-17.6,5.3a32.2,32.2,0,0,0-15.8,14.6q-5.3,10,1.8,22.9a245.1,245.1,0,0,0,14.1,21.1q17.6-8.2,32.8-7.6t28.7,11.7q13.5,11.2,19.3,25.2t2.3,23.4q-2.4,10.5-8.8,14.6t-10.5-2.9q-4.1-7-16.4-14.6t1.2-5.3q13.5,2.4,18.2-2.3t0-15.8q-4.7-11.1-18.7-22.9T157,177a74,74,0,0,1,14.1,18.8q3.5,8.2,4.1,22.3a36.4,36.4,0,0,1-7.6,24.6q-9.4,10.5-25.2,10.5t-27.5-11.7q-11.7-12.9-11.7-16.4t14.1,7q12.9,9.4,21.7,8.8a31.7,31.7,0,0,0,15.8-5.3q5.9-5.9,5.9-17.6a52.1,52.1,0,0,0-5.9-23.4l-9.4-12.9q-30.5,12.9-49.2,29.3Q82,223.8,73.2,232.6T57.4,243.8q-8.2,1.2-10-1.8t-0.6-8.8a167.6,167.6,0,0,0-1.2-17.6c-0.8-7-.8-11.3,0-12.9s2.5,0,5.3,7,4.5,11.3,5.3,12.9,2.7,1.6,5.9,0,9.8-5.5,19.9-11.7,18-12.1,23.4-15.2q4.7-3.5,37.5-18.7A296.1,296.1,0,0,1,128.9,150Z"/></symbol>
        <symbol id="29"><path d="M112.5,80.9q7-4.7,16.4,1.2t23.4,23.4q12.9,16.4,29.3,35.7t30.5,31.1A133.5,133.5,0,0,0,237.9,191q12.9,7,17.6,11.7t1.8,8.8q-2.9,5.3-17,1.8t-31.1-21.1a385.5,385.5,0,0,1-34.6-38.7q-18.8-23.4-29.3-37.5T127.7,96.1q-7-7-14.6-.6T90.2,121.9Q75,141.8,68.6,148.2A33.3,33.3,0,0,1,52.7,157q-10.5,2.4-17-3.5t0.6-8.2a97.3,97.3,0,0,0,16.4-7.6q9.4-5.3,21.1-17L94.9,97.3Q105.5,85.6,112.5,80.9Z"/></symbol>
        <symbol id="30"><path d="M70.3,53.9a28.2,28.2,0,0,1,13.5,8.2c3.5,3.9,4.1,8.2,1.8,12.9s-7.6,18.4-13.5,43.4-9.6,45.3-11.1,60.9-0.8,28.1,2.3,39.8q12.9-22.2,17.6-31.6t7-8.2-3.5,14.6q-4.7,14.7-8.2,28.7a162.6,162.6,0,0,0-4.7,22.3q-1.2,9.4-4.7,8.2t-10-12.9q-6.5-11.7-8.8-29.3t4.7-63.3q8.2-44.5,11.7-57.4t0-26.4Q60.9,51.6,70.3,53.9ZM192.2,66.8q14.1-3.5,21.1-5.9a17.8,17.8,0,0,1,14.1,1.2c4.7,1.6,6.4,3.5,5.3,5.9s-5.3,4.3-12.3,5.9-20.7,3.5-38.7,5.9q14.1,5.9,11.7,12.3t-3.5,19.3q-1.2,11.7-1.2,28.1a102.3,102.3,0,0,0,23.4-7q10.5-4.7,16.4-5.9t11.1,1.8q6.4,4.1-8.8,12.3t-42.2,11.7v66.8q19.9,9.4,30.5,17T232,250.8a11.4,11.4,0,0,1-1.2,11.1q-3.5,5.3-14.1-6.4A128.9,128.9,0,0,0,187.5,232q-4.7,18.8-16.4,28.7a46.3,46.3,0,0,1-27,11.1,63.3,63.3,0,0,1-27.5-5.9q-12.3-5.9-14.6-17.6a30.2,30.2,0,0,1,2.9-24q6.4-11.1,24-14.6t46.9,4.7V153.5a248,248,0,0,1-27.5-1.2c-6.6-.8-11.9-2.3-15.8-4.7s-5.3-4.1-4.1-5.3,6.8-1.4,17-.6,19.5-.4,30.5-1.2q1.2-48-3.5-59.8Q148.8,82,140,79.1c-5.9-1.9-9.2-3.7-10-5.3s1.9-3.5,10.5-3.5h24.6Q176.9,69.2,192.2,66.8Zm-41,153.5a50.9,50.9,0,0,0-21.7,0q-11.2,2.4-14.6,11.7a20.3,20.3,0,0,0-.6,15.8q2.9,7.6,14.6,11.1a45.6,45.6,0,0,0,20.5,0,31.4,31.4,0,0,0,17-10.5q5.9-8.2,8.2-21.1Q161.7,221.5,151.2,220.3Z"/></symbol>
        <symbol id="31"><path d="M150,38.7a32.4,32.4,0,0,1,13.5,4.7c3.5,2.3,4.9,5.5,4.1,9.4s-2.7,9.4-3.5,16.4a212.2,212.2,0,0,0-1.2,23.4,123.7,123.7,0,0,0,25.8-7l17.6-7q5.9-2.3,10.5,0c3.1,1.6,5.1,3.5,5.9,5.9s-2,3.7-8.2,6.4a185.8,185.8,0,0,1-21.1,7.6,306.9,306.9,0,0,1-30.5,7v39.8q19.9-4.7,28.7-8.8a83.5,83.5,0,0,1,13.5-5.3c2.3-.8,5.5,0,9.4,2.3s3.1,5.1-2.3,8.2a180.6,180.6,0,0,1-21.1,8.8,234.3,234.3,0,0,1-28.1,7.6v49.2Q185.1,218,195.7,225a195.9,195.9,0,0,1,18.8,14.1q7,5.9,8.2,11.7a16.1,16.1,0,0,1-2.3,11.7q-4.7,5.9-13.5-4.7a125.4,125.4,0,0,0-19.3-18.7,296.7,296.7,0,0,0-25.8-17.6q-4.7,22.3-18.2,32.2t-28.7,10q-16.4,0-26.4-5.3T73.8,240.2q-5.9-12.9,1.8-25.8T104.3,198q21.1-3.5,44.5,4.7V160.5q-23.5,2.4-35.7.6t-18.2-6.4q-7-5.9,5.3-4.7t20.5,1.2l28.1-3.5v-41c-8.6.8-15.2,1-19.9,0.6s-10.2-1-16.4-1.8a37.4,37.4,0,0,1-17-6.4q-7.6-5.3,5.3-4.1a167.2,167.2,0,0,0,24.6.6q12.9-.6,23.4-1.8V71.5a89.6,89.6,0,0,0-1.2-16.4L143,43.4Q140.6,37.5,150,38.7ZM130.1,209.8a140.7,140.7,0,0,0-17-1.2c-5.1,0-10.4,1.6-15.8,4.7s-10.2,6.1-11.7,11.1-0.4,10.4,3.5,15.8,9.4,8.8,18.8,10a39.3,39.3,0,0,0,25.8-5.3q10.5-8.2,14.1-29.3A58.8,58.8,0,0,0,130.1,209.8Z"/></symbol>
        <symbol id="32"><path d="M159.4,46.9c3.1-2.3,6.4-2.3,10,0a75.6,75.6,0,0,1,11.1,9.4q4.7,4.7,0,9.4a44.6,44.6,0,0,0-8.2,11.7q-4.7,5.9-14.1,22.9t-24.6,43.9q24.6,4.7,36.3,8.8A254.9,254.9,0,0,1,198,165.2a86.7,86.7,0,0,0,6.4-21.7c1.2-7.4,1.4-13.5.6-18.2s1-7.8,5.3-7,8.8,3.1,13.5,7,4.9,7.4,2.9,10.5a54.6,54.6,0,0,0-5.3,11.7q-3.5,7-10.5,23.4,26.9,16.4,32.8,25.8t2.3,17.6q-4.7,7-11.1-.6t-10-12.3q-4.7-4.7-19.9-16.4-17.6,28.1-35.7,43.4T135.9,252q-15.2,7-16.4,5.3t15.2-13.5q16.4-11.7,34-31.6t23.4-34a143.1,143.1,0,0,0-38.1-17q-19.3-5.3-26.4-6.4a411.7,411.7,0,0,1-24.6,38.1A229.5,229.5,0,0,1,82,218q-9.4,9.4-20.5,12.3t-19.3-2.9q-8.2-7-8.2-22.3a57.3,57.3,0,0,1,8.2-29.3q8.2-15.2,29.3-24.6t46.9-8.2q10.5-17.6,19.9-35.2t22.3-46.9q-39.9,9.4-46.9,11.7A38.3,38.3,0,0,1,102,75a40.6,40.6,0,0,1-10-4.1c-3.5-1.9-5.7-4.1-6.4-6.4s0.2-3.5,5.3-3.5h17q8.2,0,27-5.3T159.4,46.9ZM112.5,153.5a86.1,86.1,0,0,0-32.2,5.9q-14.7,5.9-21.7,15.2A54.7,54.7,0,0,0,48,193.9q-3.5,11.2,0,18.2c2.3,4.7,5.7,6.8,10,6.4s10.7-4.9,19.3-13.5S97.7,178.5,112.5,153.5Z"/></symbol>
        <symbol id="33"><path d="M87.9,59.8q-4.7-11.7,4.1-10a46,46,0,0,1,14.6,5.3q5.9,3.5,3.5,8.8A51.5,51.5,0,0,0,106.6,75q-1.2,5.9-1.2,23.4A105.4,105.4,0,0,0,123,93.2c4.7-1.9,9.4-4.1,14.1-6.4s9-2.5,12.9-.6,4.7,4.5,2.3,7.6-8.2,5.5-17.6,9.4a124.8,124.8,0,0,1-29.3,8.2v39.8q7,11.7,2.3,30.5a233.7,233.7,0,0,1-10.5,32.8q-7,14.1-7,21.7t12.9,13.5q11.7,4.7,34,3.5a214.8,214.8,0,0,0,41-5.9q18.7-4.7,25.2-9.4c4.3-3.1,6.4-5.9,6.4-8.2a92,92,0,0,0-.6-10q-0.6-5.3-4.1-18.2t-1.8-13.5c1.2-.4,3.7,2.9,7.6,10a154.6,154.6,0,0,0,11.1,17.6q5.3,7,8.8,9.4a4.2,4.2,0,0,1,2.3,4.1c0,2-1.6,5.3-4.7,10s-9.6,8.2-19.3,12.9a134.4,134.4,0,0,1-33.4,10.5,248.5,248.5,0,0,1-38.1,4.1,149.2,149.2,0,0,1-35.7-2.9Q85.5,259,80.3,251.4T75,236.7q0-8.2,9.4-28.1-15.2,5.9-27,1.2T43.4,194.5a55.9,55.9,0,0,1,0-22.9,35.2,35.2,0,0,1,9.4-18.2q5.9-8.2,17-12.3A25,25,0,0,1,91.4,143V113.7q-14.1,1.2-24.6-1.2t-15.2-7q-5.9-4.7,2.3-4.1c5.5,0.4,11.3.6,17.6,0.6s12.1-.4,19.9-1.2Q92.6,71.5,87.9,59.8Zm-4.7,91.4q-7-2.3-15.2,3.5a26.4,26.4,0,0,0-10.5,16.4q-3.5,9.4-2.3,16.4c0.8,4.7,2.3,7.8,4.7,9.4a19.3,19.3,0,0,0,8.8,2.9A22.7,22.7,0,0,0,79.7,198q5.9-2.3,8.2-12.3t3.5-18.2a80.3,80.3,0,0,0-.6-12.3C90.4,153.3,87.9,152,83.2,151.2ZM194.5,87.9q2.3-1.2,18.2,10t22.9,21.7q5.9,9.4,4.7,17c-0.8,5.1-2.7,8.8-5.9,11.1s-6.1-.8-8.8-7-6.4-13.7-11.1-22.3a186.5,186.5,0,0,0-15.8-21.7C193.5,90.8,192.2,87.9,194.5,87.9Z"/></symbol>
        <symbol id="34"><path d="M155.9,58.6q-2.4-9.4,7-6.4T177,59.8q3.5,4.7,0,10t-9.4,27.5q29.3,1.2,48,14.1T241.4,143q7,18.8,0,44.5T210.9,232q-23.5,18.8-49.8,25.8t-28.7,4.7q-2.4-2.4,12.3-6.4t34.6-14.6a138.2,138.2,0,0,0,32.2-27.5,74.9,74.9,0,0,0,17-36.9q3.5-21.1-4.7-35.7a57.6,57.6,0,0,0-23.4-22.9q-15.2-8.2-35.2-9.4a290.9,290.9,0,0,1-37.5,84.4,98.2,98.2,0,0,0,12.9,11.1q5.9,4.1,2.3,8.8a11.7,11.7,0,0,1-10,2.3q-5.3-1.2-13.5-10.5a120,120,0,0,1-18.2,18.8,102.4,102.4,0,0,1-21.7,12.9q-14.1,4.7-24.6-.6T42.2,214.5q-3.5-16.4,5.9-39.8t32.8-45.7Q75,110.2,71.5,98.4a67.7,67.7,0,0,0-9.4-19.9q-7-9.4-1.8-11.1c3.5-1.2,8.4-1,14.6.6s9.2,4.1,8.8,7.6,0.2,8.8,1.8,15.8,3.1,16.8,7,29.3q10.5-8.2,28.1-15.8t32.8-7.6q2.3-11.7,3.5-21.1A44,44,0,0,0,155.9,58.6Zm-70.3,82q-29.3,30.5-31.6,66.8,1.2,14.1,11.7,17.6,19.9,1.2,45.7-30.5Q97.3,177,85.5,140.6ZM151.2,109a90.8,90.8,0,0,0-27,6.4,149.9,149.9,0,0,0-28.1,15.8q7,23.5,12.9,34t10.5,17.6Q138.3,154.7,151.2,109Z"/></symbol>
        <symbol id="35"><path d="M126.6,44.5q-2.4-7,5.3-5.3a35.4,35.4,0,0,1,14.6,7.6q5.9,5.9,2.3,11.7A58.8,58.8,0,0,0,143,72.7q-2.4,8.2-8.2,36.3,16.4,0,23.4-.6t11.7,1.8q3.5,2.4,3.5,5.3c0,2-2.7,3.7-8.2,5.3s-17.2,2-32.8,1.2l-10.5,56.3q23.4,1.2,31.6,0t12.9,1.2a13.8,13.8,0,0,1,6.4,5.9q1.8,3.5-11.1,5.9t-42.2-1.2a84.7,84.7,0,0,0-.6,26.4,48.6,48.6,0,0,0,10,24A29.5,29.5,0,0,0,146.5,252a96.3,96.3,0,0,0,21.1,2.3q9.4-1.2,19.9-7.6t17.6-22.9q7-16.4,6.4-40.4t-1.8-32.2q-1.2-9.4,4.1,4.1t7.6,34.6a84.6,84.6,0,0,1-4.7,39.3q-7,19.3-19.9,28.7a63,63,0,0,1-29.9,9.4,74.7,74.7,0,0,1-32.2-4.7q-16.4-5.9-25.2-25.2t-4.1-49.8q-12.9-2.3-21.1-7a37.2,37.2,0,0,1-12.9-11.7q-5.9-8.2,1.2-4.7a170.7,170.7,0,0,0,16.4,7q8.2,2.4,18.8,4.7l10.5-55.1a73.9,73.9,0,0,1-21.7-7q-8.8-4.7-13.5-10.5t2.9-3.5l15.8,4.7a87.7,87.7,0,0,0,18.8,3.5q4.7-25.8,5.9-34.6a116.6,116.6,0,0,0,1.2-14.6A86.8,86.8,0,0,0,126.6,44.5Z"/></symbol>
        <symbol id="36"><path d="M75,69.1q8.2-7,17.6-4.7T102,68t-5.3,1.8a19.7,19.7,0,0,0-8.8,4.1q-4.7,3.5-2.3,10.5l17.6,35.2q41-21.1,70.3-28.7t46.9-6.4q17.6,1.2,27.5,7.6a40.6,40.6,0,0,1,14.6,15.8q3.5,9.4,1.8,24a57.1,57.1,0,0,1-10,26.4q-8.2,11.7-24,17t-35.7.6q-21.1-5.9-34-19.9t-11.7-15.2c0-.8,3.1,1.2,9.4,5.9a136.7,136.7,0,0,0,21.1,12.9,59.3,59.3,0,0,0,24,6.4,74.3,74.3,0,0,0,21.7-1.8q8.2-3.5,14.6-12.3a51.5,51.5,0,0,0,8.8-19.3,43.3,43.3,0,0,0-3.5-21.7q-4.7-11.1-21.1-12.3T180.5,102q-27,5.9-71.5,29.3,7,14.1,17.6,34.6t18.8,39.3a236.4,236.4,0,0,1,10.5,32.2Q159.4,252,157,259c-2.3,3.9-5.1,6-8.2,6.4s-5.9-5.3-8.2-17-8-26.6-14.6-44.5-16.6-39.8-29.9-65.6q-22.3,12.9-34.6,21.1t-18.2,7A19.4,19.4,0,0,1,31.6,160q-4.7-5.3,5.9-7.6a117.6,117.6,0,0,0,21.7-8.2,324.6,324.6,0,0,0,31.1-17.6L71.5,89.1Q65.6,75,75,69.1Zm60.9-25.8q2.3-1.2,14.6,3.5t19.3,11.7q7,5.9,7,14.1a23.4,23.4,0,0,1-5.9,15.2q-5.9,5.9-11.7,0T143,76.2c-7-3.9-10.4-6.4-10-7.6s3.7-.6,10,1.8A126.1,126.1,0,0,0,157,73.2c3.1,0.4,4.3-1,3.5-4.1s-3.3-6.8-7.6-11.1a52.6,52.6,0,0,0-13.5-10Q132.4,44.5,135.9,43.4Z"/></symbol>
        <symbol id="37"><path d="M151.2,49.2q9.4-2.3,21.1,5.9t14.1,25.8q32.8,2.4,52.7,21.1t21.1,49.2q0,29.3-10.5,48t-34,28.1a87.6,87.6,0,0,1-49.2,4.7,107.7,107.7,0,0,1-24.6,22.3,152.5,152.5,0,0,1-24.6,12.9q-12.9,3.5-19.9,3.5t5.9-4.7a207.5,207.5,0,0,0,25.2-15.2,105,105,0,0,0,24-23.4,67.8,67.8,0,0,1-25.8-25.8q-9.4-16.4-11.7-31.6t-1.2-16.4q2.3-1.2,5.9,10.5t11.1,25.8q8.8,15.2,27.5,25.8,7-11.7,12.9-46.9t2.3-75q-36.3,8.2-54.5,30.5T92.6,166.4Q84.4,185.2,82,197.5a116.6,116.6,0,0,0-2.3,21.7q-1.2,8.2-3.5,11.1t-8.2-.6q-5.9-3.5-11.1-15.8t-6.4-32.2a175.8,175.8,0,0,1,2.9-42.8q4.1-21.7,7.6-33.4t0-22.3c-1.6-6.2,0-9,4.7-8.2s7.8,2,11.7,5.9,5.1,8.2,3.5,12.9-3.9,10.5-7,19.9-5.9,21.9-8.2,37.5A118.6,118.6,0,0,0,68,198q5.9-26.9,16.4-46.9a162.2,162.2,0,0,1,23.4-34q12.9-15.2,27.5-22.9T171.1,82a36.7,36.7,0,0,0-4.7-12.9,19.2,19.2,0,0,0-9.4-8.2,19.1,19.1,0,0,0-14.6-1.2,83.6,83.6,0,0,0-10,3.5c-2.3,0-1.6-1.9,2.3-5.9S144.1,50.8,151.2,49.2Zm36.3,43.4a314,314,0,0,1-1.2,71.5q-4.7,36.3-14.1,56.3a86,86,0,0,0,32.2-3.5,53,53,0,0,0,24-15.2,52.4,52.4,0,0,0,12.3-23.4,116.6,116.6,0,0,0,2.9-25.8,96.4,96.4,0,0,0-5.3-25.2q-4.1-11.1-15.8-20.5T187.5,92.6Z"/></symbol>
        <symbol id="38"><path d="M146.5,192.2q-2.4,23.5-12.3,34.6t-28.7,12.3q-18.8,1.2-29.9-8.2t-8.8-24.6q2.3-16.4,18.8-24t48-5.3q2.3-58.6,2.9-79.1t-0.6-28.7q-2.4-9.4-4.7-17t7-5.3a32.5,32.5,0,0,1,14.6,5.9q6.4,4.7,4.1,10.5t-5.9,27q22.2,1.2,38.1-1.8t21.7-.6q4.7,1.2,2.3,5.9T201.6,102a92.2,92.2,0,0,1-22.3,2.3q-12.9,0-28.1-5.9-2.4,52.7-3.5,80.9,23.4,5.9,37.5,17T198,216.8q-1.2,8.2-5.3,8.2c-2.7,0-5.7-1.9-8.8-5.9s-7.8-9.6-14.1-14.6A74.2,74.2,0,0,0,146.5,192.2Zm-14.1-3.5q-16.4-1.2-28.7,1.2T85.5,198a13.5,13.5,0,0,0-5.3,12.3,16.6,16.6,0,0,0,6.4,12.3q5.9,3.5,17,3.5a28.8,28.8,0,0,0,19.3-7Q130.1,211,132.4,188.7Z"/></symbol>
        <symbol id="39"><path d="M130.1,37.5q1.2-1.2,7.6,7a83.2,83.2,0,0,0,15.8,15.2,62.3,62.3,0,0,0,19.3,11.1Q184,75,187.5,78.5t1.8,11.1a33.7,33.7,0,0,1-2.9,12.3c-1.6,2.3-5.3,1.6-11.1-2.3a56.9,56.9,0,0,0-20.5-8.2q-12.9-3.5-28.7,3.5t-22.9,27q-7,19.9-12.9,53.9,36.3-28.1,67.4-29.3t48.6,8.2q16.4,9.4,20.5,25.8a71.7,71.7,0,0,1,.6,32.8,56.4,56.4,0,0,1-16.4,25.8q-11.7,10.5-36.3,17.6a177.5,177.5,0,0,1-51,6.4q-25.2-.6-26.4-2.9c-0.8-1.6,4.1-2.5,14.6-2.9a293.6,293.6,0,0,0,36.9-4.1,148.5,148.5,0,0,0,36.3-13.5q16.4-8.8,22.3-19.3a58.8,58.8,0,0,0,4.7-24q0-13.5-7-22.9t-25.8-12.9a87,87,0,0,0-37.5,1.2,84.7,84.7,0,0,0-34.6,18.2q-15.8,13.5-20.5,20.5t-10.5,2.9c-3.9-2.7-5.9-5.7-5.9-8.8s0-8.6,2.3-14.1S78.1,164.8,82,150a182.7,182.7,0,0,1,12.9-39.8q8.2-17.6,28.1-24.6t41-1.2a177.4,177.4,0,0,1-19.3-17.6,74.1,74.1,0,0,1-12.3-17.6Q127.7,38.7,130.1,37.5Z"/></symbol>
        <symbol id="40"><path d="M104.3,41c3.1,0,7.4,2.2,12.9,6.4s7,8.8,4.7,13.5q-3.5,2.4-5.9,10t-4.7,19.3q9.4-15.2,32.8-30.5,17.6-9.4,30.5-8.2T198,62.1q9.4,9.4,12.9,38.1t-3.5,63.9q-7,34-25.2,59.2T143,262.5q-22.3,14.1-26.4,13.5t14.6-13.5q17.6-14.1,34.6-37.5a149.7,149.7,0,0,0,24-50.4q7-28.1,7-48a191.1,191.1,0,0,0-3.5-37.5q-3.5-17.6-11.7-22.9T157,65.6q-12.9,4.7-32.8,21.1t-20.5,45.7q-0.6,29.3,9.4,38.1t6.4,14.1q-3.5,5.3-11.7,0T93.8,165.2a97.6,97.6,0,0,1-4.7-31.1q0-17,4.7-27.5A152,152,0,0,0,102,77.3q2.3-14.1-1.2-25.8Q99.6,41,104.3,41Z"/></symbol>
        <symbol id="41"><path d="M165.2,57.4q12.9-7,19.9-7.6t14.1,8.8q5.9,8.2,5.9,11.7c0,2.3-2.3,5.1-7,8.2s-15.2,12.9-31.6,29.3-32,33.6-46.9,51.6q31.6-15.2,58.6-14.6T220.3,157a44.8,44.8,0,0,1,17.6,27.5q3.5,17-3.5,35.7t-24.6,29.3a97.9,97.9,0,0,1-38.7,15.2q-22.3,3.5-36.3.6t-22.3-12.3q-9.4-9.4-10.5-19.9t7-18.7q8.2-9.4,24-7.6t28.7,13.5A46.8,46.8,0,0,1,177,249.6q30.5-9.4,40.4-30.5t1.8-38.7q-8.2-17.6-27-21.1a94.7,94.7,0,0,0-36.3,0,94,94,0,0,0-33.4,11.1q-15.8,8.8-25.2,17a127.5,127.5,0,0,0-18.2,17q-7.6,8.8-11.1,2.9A26.1,26.1,0,0,1,65,193.4q0.6-7,13.5-15.2t34-29.9q22.2-21.7,42.2-45.1t24.6-30.5c3.1-4.7,3.5-7.4,1.2-8.2s-9.8.8-19.9,4.7-18,7-23.4,9.4a147.4,147.4,0,0,0-21.7,7.6Q103.1,91.4,92.6,82t0-9.4a189.5,189.5,0,0,0,21.1-1.2l24-5.3A158.4,158.4,0,0,0,165.2,57.4ZM139.5,220.3c-6.3-1.6-11.7-1.4-16.4.6s-6.6,6.1-5.9,12.3,3.9,10.7,11.7,15.8,21.5,6.1,41,2.9q-5.9-14.1-14.1-22.3T139.5,220.3Z"/></symbol>
        <symbol id="42"><path d="M79.7,43.4c0.8-1.6,2.3-2.1,4.7-1.8a50,50,0,0,1,9.4,2.9c3.9,1.6,6.6,3.5,8.2,5.9s1.2,6.3-1.2,11.7-3.5,17.6-3.5,36.3q9.4-2.3,12.9-.6c2.3,1.2,3.5,2.5,3.5,4.1s-2,4.1-5.9,7.6a92.4,92.4,0,0,0-10.5,11.1v8.2q23.4-21.1,35.2-31.1t21.1-14.6a69.5,69.5,0,0,1,17.6-7q9.4-2.3,18.8,3.5t10,14.6q1.8,8.8.6,25.2t-7,42.2q-4.7,27-4.7,42.2t4.1,22.9q5.3,7.6,18.2,6.4t25.2-11.1a194.5,194.5,0,0,0,21.7-18.2q7-8.2,8.8-7t-8.8,17.6a80.4,80.4,0,0,1-28.7,25.2q-17,8.8-32.2,5.3T177,226.2q-4.7-15.2,1.2-52.7t7.6-52.7q1.8-15.2-.6-23.4c-1.6-5.5-4.7-8.4-9.4-8.8s-12.1,2.9-22.3,10S123.8,119.5,97.3,143q1.2,64.5,1.2,76.2t1.2,16.4q0,4.7-3.5,12.9c-2.3,5.5-5.1,9.4-8.2,11.7s-6.8.6-8.8-5.3a142.4,142.4,0,0,0-7.6-18.2q-5.9-9.4-16.4-23.4A211.4,211.4,0,0,0,44.5,235q-3.5,8.8-7,7.6T31.1,235q-1.8-6.4,1.8-11.1t10-17.6q7.6-11.7,20.5-38.7t17.6-38.7c3.1-7.8,4.7-12.1,4.7-12.9s-4.9.8-12.3,4.7-13.1,7-17,9.4-9.2,2.3-13.5,0-6.8-4.7-7.6-7,1.6-3.7,7-4.1A101.7,101.7,0,0,0,59.8,116q9.4-3.5,25.8-12.9,0-12.9-.6-27.5T80.9,52.7C78.5,47.3,78.1,44.1,79.7,43.4Zm5.9,116q-14.1,23.5-27,49.2,18.7,18.8,22.3,19.3c2.3,0.4,3.9-1,4.7-4.1V159.4Z"/></symbol>
        <symbol id="43"><path d="M145.3,59.8q29.3-9.4,34.6-10.5c3.5-.8,7.2,1.6,11.1,7s6.2,9.8,7,12.9-1.2,5.5-5.9,7S159.8,103.9,109,157q30.5-17.6,60.9-17.6t48,9.4a43,43,0,0,1,21.1,27.5q4.7,18.2-3.5,39.3T208,246.1a111.4,111.4,0,0,1-39.3,11.7,141.5,141.5,0,0,1-38.7-.6q-17.6-2.9-16.4-5.3t25.8-1.8a129,129,0,0,0,48-7.6q21.1-9.4,28.7-24t8.8-25.2a52.9,52.9,0,0,0-5.3-22.9q-5.3-11.1-25.2-15.8a94.3,94.3,0,0,0-41.6-2.3q-20.5,3.5-41.6,16.4T79.1,190.4q-10,8.8-14.6,10t-6.4-10q-0.6-11.1,12.3-17t31.1-25.8q19.3-18.7,40.4-41T168.2,75q5.3-9.4,5.3-11.7t-9.4,0q-8.2,2.4-23.4,8.2t-28.1,9.4q-11.7,4.7-23.4-4.7t7.6-9.4Q116,68,145.3,59.8Z"/></symbol>
        <symbol id="44"><path d="M86.7,51.6Q82,42.2,92,43.9t15.8,5.3q4.7,3.5,1.8,10.5T106.6,102q8.2-4.7,11.1-2.3a7.3,7.3,0,0,1,2.9,5.9,82.5,82.5,0,0,1-6.4,9.4,92.4,92.4,0,0,0-8.8,14.1v5.9q24.6-22.2,45.7-29.3a94.6,94.6,0,0,1,44.5-3.5A72.2,72.2,0,0,1,235,118.4q17,14.1,20.5,34T252,195.1q-7,22.9-25.8,35.7t-38.1,17.6q-19.3,4.7-20.5,2.3t12.9-6.4q14.1-4.1,30.5-14.6a72.3,72.3,0,0,0,23.4-26.4q8.2-15.8,8.2-36.9t-14.1-35.2a59.1,59.1,0,0,0-31.6-16.4,99.5,99.5,0,0,0-38.7.6q-19.9,4.1-52.7,35.7v72.7q2.3,21.1-2.9,29.9t-7.6,8.8q-3.5,0-8.8-11.1T59.8,219.1q-4.7,9.4-7,15.2c-1.6,3.9-3.5,6.6-5.9,8.2s-5.9-1.2-8.2-8.2-1.2-13.7,3.5-19.9,12.1-18.2,22.3-35.7,19.5-34.6,28.1-51v-9.4q-8.2,4.7-17,9.4a108.1,108.1,0,0,0-13.5,8.2q-4.7,2.4-11.1,0t-8.8-5.9c-2.3-3.1-.4-5.1,5.9-5.9a86.1,86.1,0,0,0,21.1-5.9l23.4-10.5q0-26.9-.6-37.5A42.3,42.3,0,0,0,86.7,51.6Zm4.7,113.7q-4.7,5.9-29.3,49.2,22.2,16.4,26.4,17t2.9-17V165.2Z"/></symbol>
        <symbol id="45"><path d="M201,123.6q13.5,1.8,18.2,10.5t-1.2,17q-5.9,8.2-22.3,16.4T160.5,184q0,27-1.8,34.6c-1.2,5.1-3.3,8.8-6.4,11.1s-5.9,2.2-8.2-.6-2.7-6.8-1.2-12.3,2.7-15.6,3.5-28.1q-25.8,11.7-38.7,22.9t-15.2,17q-2.4,5.9.6,14.1t13.5,12.9q12.9,4.7,42.2,4.1t41-4.1c7-2.3,12.1-3.1,15.2-2.3s4.7,3.1,4.7,7-4.1,6.2-10,9.4-19,4.7-39.3,4.7-36.3-1.4-45.7-4.1S98.4,263.7,93.8,259a36.4,36.4,0,0,1-8.2-22.9q0-12.3,10.5-21.7,12.9-12.9,50.4-31.6,0-25.8-5.3-32.8c-3.5-4.7-8-7-13.5-7s-12.1,1.8-19.9,5.3a75.4,75.4,0,0,0-22.3,15.8q-11.7,9.4-18.2,17.6t-10,3.5q-3.5-5.9-1.8-14.6t14.6-18.2Q82,141.8,109,100.8q-21.1,0-30.5-5.3T68,85.5q-2.4-4.7,11.7-.6T116,89.1a147.1,147.1,0,0,0,10.5-20.5,115.3,115.3,0,0,0,4.7-13.5q0-4.7-.6-11.1c-0.4-4.3,1.8-5.7,6.4-4.1A30.6,30.6,0,0,1,148.2,48q5.3,5.9.6,12.9T131.3,89.1q8.2,0,24.6-4.7t25.8-8.2q9.4-4.7,15.8-1.2c4.3,2.3,5.3,5.1,2.9,8.2s-11.9,6.1-28.7,11.1-32.6,7.6-47.5,7.6L87.9,152.3q26.9-19.9,40.4-21.1t24,12.9Q187.5,121.9,201,123.6ZM160.5,177q14.1-8.2,23.4-14.6A148,148,0,0,0,199.8,150c4.3-3.9,5.9-8,4.7-12.3s-3.7-6.4-7.6-6.4-8.8,1-14.6,2.9-15.1,6.4-27.5,13.5Q159.4,157,160.5,177Z"/></symbol>
        <symbol id="46"><path d="M124.2,50.4q1.2-3.5,7.6.6a37.9,37.9,0,0,1,10,8.8c1.6,3.1,2.3,5.7,2.3,7.6s-2,5.7-5.9,11.1S114.8,119.1,82,184q19.9-19.9,31.1-25.8t20.5-5.9a24.3,24.3,0,0,1,17.6,4.7q8.2,5.9,9.4,21.1T160,211.5q-0.6,18.2,1.8,26.4a16.3,16.3,0,0,0,7,11.1q5.9,4.1,17.6,2.9t24-14.6q12.3-12.3,26.4-35.7t13.5-22.3q0.6,2.4-4.1,17.6t-16.4,34q-11.7,18.8-22.3,25.8a77.9,77.9,0,0,1-21.7,8.2,40.9,40.9,0,0,1-21.7-1.2,26.4,26.4,0,0,1-15.8-17q-4.1-12.3-2.9-32.2t-0.6-33.4q-0.6-12.3-7.6-14.6t-21.7,5.3q-14.7,8.8-27.5,27.5a282.5,282.5,0,0,0-26.4,39.8q-12.3,22.3-17,23.4c-3.1,0-6.1-2.7-8.8-8.2s-0.6-13.3,6.4-23.4S62.5,194.5,82,154.7s31.2-64.8,35.2-75,5.7-17,5.3-20.5A12.7,12.7,0,0,1,124.2,50.4Z"/></symbol>
        <symbol id="47"><path d="M118.4,50.4a28.8,28.8,0,0,1,13.5,6.4c4.3,3.5,6.4,7.2,6.4,11.1s-3.1,7.8-7,14.1-8.6,16-14.1,29.3q25.8-5.9,36.9-4.7t19.3,10.5q8.2,8.2,1.8,37.5t-13.5,51.6q-8.2,21.1-12.9,29.3a51.1,51.1,0,0,1-11.7,14.1,44.9,44.9,0,0,1-15.8,7.6c-5.1,1.2-8.4-.2-10-4.1a69.1,69.1,0,0,0-8.2-15.8,97.7,97.7,0,0,0-11.7-14.6q-5.9-7-3.5-8.2t10.5,4.7a143.5,143.5,0,0,0,15.8,10q7.6,4.1,13.5,1.8t10.5-12.3A173.6,173.6,0,0,0,150,193.4a336.3,336.3,0,0,0,8.8-38.1q4.1-22.9.6-28.7t-14.1-7.6q-9.4-.6-31.6,4.1-18.8,43.4-32.8,69.7T58.6,233.2Q50.4,247.3,45.7,249c-3.1,1.2-5.5-1.4-7-7.6s-1.6-12.3,2.3-15.8,9.4-10.3,16.4-20.5,19.9-35.9,38.7-77.3q-18.8,5.9-29.9,10t-17,1.8q-5.9-3.5-10-11.7t5.3-7a128,128,0,0,0,18.2,1.2q9.9,0,38.1-8.2,7-17.6,10.5-28.7t3.5-14.6c0-3.1-.8-7.6-2.3-13.5S112.9,48.8,118.4,50.4ZM196.9,48q-8.2-7,4.7-3.5t21.1,9.4c5.5,3.1,8.2,7.2,8.2,12.3s-1.6,9.2-4.7,12.3-6.1,1.2-8.8-3.5a110.2,110.2,0,0,0-8.8-12.9A93.5,93.5,0,0,0,196.9,48Zm11.7,64.5q-23.5-23.4,2.9-7.6T252,137.1q12.9,15.2,14.6,28.1a74,74,0,0,1-.6,24.6q-3.5,10.5-10,16.4t-12.3-1.2A77.8,77.8,0,0,0,227.9,191q-8.8-5.9-18.2-11.7t5.3-2.9l22.9,4.1q7,0,8.8-6.4t-6.4-22.9Q232,134.8,208.6,112.5Zm12.9-87.9c3.9,0,8.8,1,14.6,2.9A66.6,66.6,0,0,1,252,35.2c4.7,2.3,7.2,5.7,7.6,10s-1,8.4-4.1,12.3-7.2,2-12.3-5.9a72.9,72.9,0,0,0-17-18.7Q215.6,24.6,221.5,24.6Z"/></symbol>
        <symbol id="48"><path d="M86.7,43.4a39.5,39.5,0,0,1,13.5,0q7.6,1.2,7.6,7T111.3,65a159.8,159.8,0,0,0,10.5,22.9q21.1-9.4,33.4-17.6t18.2-7a12.7,12.7,0,0,1,9.4,3.5c2.3,2.3.8,5.1-4.7,8.2L157.6,85q-11.2,5.3-31.1,13.5a285.3,285.3,0,0,0,17.6,29.3q28.1-14.1,34-18.7c3.9-3.1,7.8-4.7,11.7-4.7a17.2,17.2,0,0,1,10.5,3.5q4.7,3.5-4.7,9.4t-44.5,22.3Q181.6,177,188.7,184a118.3,118.3,0,0,1,10.5,11.7q2.3,3.5,1.2,11.1t-4.7,10q-3.5,1.2-10.5-4.1a65.6,65.6,0,0,0-16.4-8.8q-9.4-4.7-28.7-9.4a95.1,95.1,0,0,0-39.3-1.2q-21.1,2.4-30.5,11.7t-4.7,22.3q3.5,12.9,20.5,19.9a79.2,79.2,0,0,0,35.7,5.9q18.7-1.2,32.8-6.4t21.1-1.8q7,3.5-1.2,10T152.3,266a174.6,174.6,0,0,1-33.4,4.1,84.7,84.7,0,0,1-33.4-5.3,62.4,62.4,0,0,1-27-18.2Q48,234.4,48,220.3a34.7,34.7,0,0,1,10-24.6q9.9-10.5,39.3-15.2t76.2,9.4a532.8,532.8,0,0,1-34-45.7,112.3,112.3,0,0,1-33.4,8.2q-15.8,1.2-24,0c-6.3-1.6-10.5-3.3-12.9-5.3s-1.2-2.9,3.5-2.9,11.7-.4,21.1-1.2,22.3-3.9,38.7-9.4q-7-11.7-17.6-30.5-22.3,7-36.9,5.9t-19.3-4.7c-3.1-2.3-4.5-3.9-4.1-4.7s5.7-.8,15.8,0,23-2.3,38.7-7q-5.9-11.7-11.7-21.1A87.5,87.5,0,0,0,85.5,56.3c-4.7-3.9-6.8-6.8-6.4-8.8S82,44.1,86.7,43.4ZM201.6,48c-0.8-2.3,2.9-1.9,11.1,1.2s14.2,6.3,18.2,9.4a21.3,21.3,0,0,1,7,10q2.3,6.5-2.3,14.6t-11.7-3.5a98.4,98.4,0,0,0-12.9-19.9Q202.7,50.4,201.6,48Zm27-16.4c3.1,0,7.8,1,14.1,2.9s10.9,4.1,14.1,6.4a16.4,16.4,0,0,1,7,6.4q2.3,4.1,1.2,10t-4.7,8.2q-3.5,2.4-9.4-5.9a131.2,131.2,0,0,0-16.4-18.2Q223.8,31.7,228.5,31.6Z"/></symbol>
        <symbol id="49"><path d="M146.5,31.6c1.6-.8,4.7.6,9.4,4.1a43.9,43.9,0,0,1,11.7,13.5q3.5,7-3.5,12.3t-27,25.2Q116,106.7,96.7,125.4T78.5,148.8q0,3.5,19.3,17t32.2,24q12.9,10.5,21.7,19.3a87.4,87.4,0,0,1,14.6,19.3q5.9,10.5,5.9,19.3c0,5.9-1.2,10.7-3.5,14.6s-4.9,5.9-7.6,5.9-6.8-6.6-12.3-19.9a166.7,166.7,0,0,0-19.9-35.7,190.4,190.4,0,0,0-24.6-27.5q-12.9-11.7-22.9-19.9T69.1,152.3q-3.5-5.9,14.1-26.4t35.2-41.6q16.4-21.1,20.5-29.9c2.7-5.9,4.1-10.7,4.1-14.6S144.1,32.4,146.5,31.6ZM191,85.5q2.3-1.2,10,1.8l13.5,5.3a23.6,23.6,0,0,1,8.2,7c2.3,3.1,3.1,7,2.3,11.7a17.6,17.6,0,0,1-5.9,10q-4.7,4.1-10.5-7.6T195.1,93.2C190,88.1,188.7,85.5,191,85.5Zm24.6-21.1c0.8-.8,4.7-0.4,11.7,1.2s12.1,3.5,15.2,5.9a18,18,0,0,1,7,5.9q2.3,3.5,2.3,10.5a16.1,16.1,0,0,1-5.3,9.4q-4.1,3.5-10-7a97.3,97.3,0,0,0-14.6-17.6Q214.4,65.6,215.6,64.5Z"/></symbol>
        <symbol id="50"><path d="M41,49.2q1.2-2.3,8.8,1.2a33.5,33.5,0,0,1,12.3,9.4q4.7,5.9,1.8,11.7T56.3,91.4q-5.9,12.9-11.1,36.9a147.4,147.4,0,0,0-1.8,51q2.3,25.8,5.9,31.6t9.4-7a166.6,166.6,0,0,1,10.5-25.2q5.9-11.1,4.7,1.8L68,212.7q-3.5,19.3-4.7,31.1t-13.5,0q-11.2-11.7-17-34T27,157.6A220.7,220.7,0,0,1,36.3,102q7-26.9,5.9-32.8L39.8,57.4Q38.7,50.4,41,49.2Zm128.9,7q-5.9-10.5,1.2-10.5a31.2,31.2,0,0,1,14.1,3.5q5.9,3.5,8.2,7t0,10.5Q191,72.7,191,98.4q19.9-4.7,27.5-7.6t17,2.9q8.2,5.9,0,8.8t-44.5,10q1.2,49.2-3.5,73.8a103.4,103.4,0,0,1-18.7,43.4,105.9,105.9,0,0,1-34.6,29.9q-20.5,11.1-27.5,12.3t14.6-14.6q21.7-14.6,34.6-33.4a105.6,105.6,0,0,0,17-41.6q4.1-22.9,2.9-66.2-25.8,3.5-34,3.5a114.8,114.8,0,0,1-16.4-1.2,46.7,46.7,0,0,1-15.8-5.3q-7.6-4.1,4.1-4.1t28.1-1.8a309.2,309.2,0,0,0,34-5.3Q174.6,65.6,169.9,56.3Zm44.5-16.4q-1.2-3.5,14.6,3.5t20.5,11.7q4.7,4.7,4.1,12.3c-0.4,5.1-1.8,8.4-4.1,10s-6.8-2.1-11.1-8.8a112.1,112.1,0,0,0-14.6-18.2C217.6,44.9,214.5,41.4,214.5,39.8Zm24.6-18.7c0.8-.8,4.7.2,11.7,2.9a143.9,143.9,0,0,1,18.8,8.8c4.7,3.1,7.8,6.4,9.4,10a13.8,13.8,0,0,1,0,11.1c-1.6,3.9-3.3,5.9-5.3,5.9s-5.3-3.5-10-10.5a135.7,135.7,0,0,0-17.6-18.7Q236.7,22.3,239.1,21.1Z"/></symbol>
        <symbol id="51"><path d="M58.6,171.1q9.4-14.1,4.1-.6a47.7,47.7,0,0,0-2.9,26.4q1.2,12.9,12.3,22.9t35.7,13.5a177.7,177.7,0,0,0,45.7-1.2q22.2-3.5,34-8.2t18.2-5.9c4.3-.8,6.4,1.6,6.4,7s-4.5,10.2-11.1,14.1-17,7-31.1,9.4-26.4,3.3-36.9,2.9a186,186,0,0,1-32.2-4.1q-16.4-3.5-27.5-10.5t-17-16.4a52.2,52.2,0,0,1-6.4-23.4Q49.2,184,58.6,171.1Zm14.1-109q0-2.3,16.4,1.8A149.1,149.1,0,0,0,125.4,68q18.7-1.2,31.1-4.1t19.3,0.6c4.7,2.3,7.8,5.3,9.4,8.8s0,6.1-4.7,7.6-12.1,2.9-19.9,6.4-17.2,8.4-28.1,14.6-18.2,8.6-21.7,9.4-2.5-1.2,2.9-5.9S128.9,92.6,143,80.9a202.9,202.9,0,0,1-25.2-1.2q-8.8-1.2-19.3-3.5A86.9,86.9,0,0,1,80.3,68C75.2,64.9,72.7,62.9,72.7,62.1ZM198,44.5q1.2-2.3,14.1,3.5T232,59.8c4.7,3.9,6.8,8.2,6.4,12.9s-2.2,8.2-5.3,10.5-6.6,0-10.5-7a90.9,90.9,0,0,0-15.2-19.9Q196.9,45.7,198,44.5ZM223.8,27c0.8-.8,4.3,0,10.5,2.3A122.9,122.9,0,0,1,252,37.5a21.3,21.3,0,0,1,10,9.4q2.9,5.9-1.8,14.1t-12.3-4.7a96.1,96.1,0,0,0-17-19.9Q221.5,28.1,223.8,27Z"/></symbol>
        <symbol id="52"><path d="M93.8,44.5a32.9,32.9,0,0,1,12.3,0c3.5,0.8,4.9,2.7,4.1,5.9a8.9,8.9,0,0,0,.6,7q1.8,3.5,8.8,10.5t28.1,29.3q18.7-8.2,27-13.5T188.7,75q4.7-4.7,14.1-1.2t3.5,9.4a173,173,0,0,1-20.5,11.1q-13.5,6.5-31.1,13.5,19.9,24.6,31.6,41.6t15.2,26.4a33.5,33.5,0,0,1,2.9,15.8c-0.4,5.1-1.8,9.2-4.1,12.3s-6.1,1.6-11.1-2.3a105.8,105.8,0,0,0-17-10.5q-9.4-5.9-25.8-10.5a132.5,132.5,0,0,0-36.3-4.7q-19.9-1.2-32.2,7.6T66.8,206.3q1.2,14.1,14.6,23.4t33.4,11.7q18.7,1.2,29.9-.6t21.7-4.1q10.5-2.3,8.8,5.3t-10,12.3q-9.4,4.7-29.9,4.7a147.2,147.2,0,0,1-38.1-4.7q-18.8-5.9-29.9-16.4T52.7,215.6q-3.5-11.7,1.2-26.4t25.8-21.7q21.1-8.2,51-4.7t52.1,15.2q-14.1-29.3-42.2-65.6-10.5,3.5-27,4.7A116.9,116.9,0,0,1,84.4,116q-12.9-3.5-16.4-6.4t10.5-1.8q14.1,0,28.7-1.2a106.8,106.8,0,0,0,25.2-4.7Q123,91.4,109,77.3T90.2,59.8c-3.9-3.1-5.7-6.4-5.3-10S88.3,44.5,93.8,44.5ZM198,38.7q0-2.3,14.1,3.5T232,53.9q5.9,4.7,5.3,11.1c-0.4,4.3-1.8,7.6-4.1,10s-7-.2-11.7-7.6a80.2,80.2,0,0,0-15.2-18.2Q198,41,198,38.7Zm22.3-18.7c0.8-.8,5.3.4,13.5,3.5s14.6,7,19.3,11.7,6.6,8.2,5.9,12.9-2.3,7.8-4.7,9.4-5.7-1-10-7.6a120.2,120.2,0,0,0-15.8-19.3Q219.1,21.1,220.3,19.9Z"/></symbol>
        <symbol id="53"><path d="M78.5,37.5a61.9,61.9,0,0,1,17.6,6.4q7,4.1,2.3,12.3t-8.2,41q-2.4,34-2.3,66.8t3.5,48q3.5,16.4,14.1,25.8t31.1,5.9q20.5-2.3,40.4-14.1a251.9,251.9,0,0,0,36.3-25.8q16.4-14.1,17.6-11.7t-8.2,13.5a195.5,195.5,0,0,1-23.4,25.2,160.5,160.5,0,0,1-36.3,20.5q-21.1,8.8-41,8.8a47.5,47.5,0,0,1-33.4-15.8Q75,229.7,72.7,196.9t0-77.9Q75,75,75,64.5a55,55,0,0,0-3.5-20.5Q68,35.2,78.5,37.5Zm63.3,31.6c0.8-.8,5.7.6,14.6,4.1s15.8,7.2,20.5,11.1,5.7,8.4,5.3,13.5-2.2,8.8-5.3,11.1-7-1.6-11.7-9.4a83.3,83.3,0,0,0-16.4-19.9Q139.4,70.3,141.8,69.1Zm28.1-17.6q3.5,0,13.5,3.5a73.2,73.2,0,0,1,18.2,9.4c4.7,3.9,7,8.2,7,12.9a15.9,15.9,0,0,1-4.7,11.7q-4.7,3.5-11.1-7a89.1,89.1,0,0,0-17-19.9Q165.2,51.6,169.9,51.6Z"/></symbol>
        <symbol id="54"><path d="M128.9,44.5q5.9-1.2,14.1,1.8c5.5,2,9.4,4.1,11.7,6.4s2.3,5.7,0,10-3.5,15.4-3.5,33.4q53.9-5.9,65-8.2t19.3,3.5c5.5,3.9,7.6,7,6.4,9.4s-7.6,3.5-19.3,3.5-36.3.4-71.5,3.5q0,24.6,1.2,39.8,7,14.1,5.3,39.8a95.4,95.4,0,0,1-17,48q-15.2,21.1-34,31.6T78.5,278.9q-9.4,1.2-4.7-1.8L91.4,266a155.5,155.5,0,0,0,25.2-23.4,91.8,91.8,0,0,0,18.2-31.6q-5.9,4.7-17,5.3t-19.3-5.3Q89,205.1,85,189.3t0.6-28.7q3.5-14.1,13.5-19.9t19.3-5.9q8.2,0,19.9,4.7,0-10.5-1.2-30.5-32.8,4.7-50.4,8.2t-27,7a47.8,47.8,0,0,1-18.2,1.2,27.1,27.1,0,0,1-15.8-8.2q-7-8.2,9.4-7.6a236.8,236.8,0,0,0,36.3-1.8q19.9-3.5,65.6-10.5-1.2-23.4-2.9-30.5a45.5,45.5,0,0,0-6.4-14.1C124.6,47.3,125,44.5,128.9,44.5Zm0,103.1q-10.5-3.5-19.3,1.2T98.4,165.2q-2.4,11.7-.6,19.3a33,33,0,0,0,6.4,13.5c3.1,3.1,7.6,4.7,13.5,4.7s10.7-1.6,14.6-4.7,5.9-10,5.9-18.2V159.4C138.3,153.9,135.2,150,128.9,147.7ZM212.1,42.2q0-2.3,14.1,3.5t21.1,11.7q5.9,5.9,4.7,13.5t-4.7,8.8q-4.7,1.2-11.1-8.8a87.5,87.5,0,0,0-15.8-18.2Q210.9,43.4,212.1,42.2Zm25.8-18.7q1.2-1.2,12.9,3.5a95.8,95.8,0,0,1,19.9,10.5q8.2,4.7,8.8,12.3c0.4,5.1-1,8.8-4.1,11.1s-6.8-1-11.1-7.6a96.6,96.6,0,0,0-17-19.3Q236.7,24.6,237.9,23.4Z"/></symbol>
        <symbol id="55"><path d="M167.6,60.9c-3.1-5.5-2.3-8.2,2.3-8.2s10.1,2,16.4,5.9,6.8,8.8,4.1,14.6-4.5,19-5.3,39.3q21.1-3.5,32.8-4.7t18.8,2.3q5.9,3.5,6.4,8.8T228.5,123q-15.2-1.2-43.4,2.3l-1.8,28.1q-0.6,9.4-1.8,18.8a46.6,46.6,0,0,1-7,14.6A57.2,57.2,0,0,1,164.1,198q-7,3.5-9.4-3.5t-9.4-14.1c-5.5-5.5-8.2-8.8-8.2-10s2.7-1,8.2.6a120.2,120.2,0,0,0,12.3,3.5q5.3,1.2,8.8-7t4.7-39.8q-44.5,7-71.5,11.7,0,38.7,1.2,58t11.7,28.7q9.4,9.4,29.3,10.5a279.1,279.1,0,0,0,36.3,0,203.2,203.2,0,0,0,26.4-3.5q11.1-2.3,13.5,1.2t-0.6,9.4q-2.9,5.9-14.6,8.2t-29.9,1.2q-17,0-36.9-1.2a55.7,55.7,0,0,1-34.6-14.1Q86.7,225,86.7,200.4t-1.2-58.6q-29.3,5.9-38.7,8.8c-6.3,2-11.7,2.2-16.4.6s-7.8-5.5-9.4-9.4,1.2-5.9,8.2-5.9,13.5-.2,19.3-0.6,18.2-2.5,36.9-6.4q0-23.4-1.2-35.7T79.7,73.8q-4.7-8.2,4.1-7a37.8,37.8,0,0,1,17,7q7,5.9,2.9,12.9t-4.1,39.8l71.5-11.7V80.3Q171.1,68,167.6,60.9Zm42.2-11.7q0-2.3,8.2.6a93.4,93.4,0,0,1,17.6,8.8q9.4,4.7,11.7,10t-1.2,14.6q-4.7,8.2-13.5-5.3T216.8,57.4Q208.6,50.4,209.8,49.2Zm25.8-17.6c0.8-.8,5.3.4,13.5,3.5s14.6,6.6,19.3,10.5,6,6.6,6.4,10.5a14.6,14.6,0,0,1-2.9,10.5q-4.7,4.7-11.1-4.7a136.3,136.3,0,0,0-15.8-18.7Q234.4,32.8,235.5,31.6Z"/></symbol>
        <symbol id="56"><path d="M151.2,42.2q8.2-4.7,14.1-1.2A62.4,62.4,0,0,1,177,50.4q4.7,5.9,5.9,10.5c0.8,3.1-1.2,5.9-5.9,8.2S156.8,80.7,133,96.7,81.6,130.5,50.4,150q46.9-8.2,75.6-15.2t41.6-9.4l28.1-5.9q11.7-2.3,21.1,2.3t7,8.2c-0.8,2.3-4.7,3.9-11.7,4.7s-15.1.2-21.7,0.6a59.5,59.5,0,0,0-20.5,5.3q-10.5,3.5-33.4,22.3t-24,37.5q-1.2,17.6,5.9,27.5a40.9,40.9,0,0,0,18.8,14.6q9.4,4.7,28.1,4.7t17.6,10.5q-2.4,9.4-19.9,10a57.8,57.8,0,0,1-32.8-8.8q-18.8-9.4-27.5-29.3T102,187.5q8.2-22.2,49.2-48-32.8,7-60.4,14.6T52.7,167.6q-11.7,4.7-19.9-3.5t-3.5-12.9q5.9-2.3,15.2-5.3t27-13.5q17.6-11.7,47.5-36.3t35.7-32.8q4.7-10.5.6-13.5t-29.9,7.6Q103.1,69.1,93.8,70.9a27,27,0,0,1-17.6-2.3A29.2,29.2,0,0,1,63.3,55.7q-4.7-8.8,7-6.4,9.4,2.4,20.5,5.9T123,52.7Q143,45.7,151.2,42.2ZM201.6,48q0-2.3,10,1.2a98.9,98.9,0,0,1,19.3,9.4c5.5,3.9,8.8,7.6,10,11.1a17.7,17.7,0,0,1,.6,10,8.9,8.9,0,0,1-5.3,6.4c-2.7,1.2-6.1-1.4-10-7.6a90.9,90.9,0,0,0-15.2-19.9C204.7,52.3,201.6,48.8,201.6,48Zm22.3-15.2c0-1.6,3.7-1.4,11.1.6a141.1,141.1,0,0,1,19.3,6.4c5.5,2.3,9.4,5.3,11.7,8.8s2.7,8,1.2,13.5-5.7,4.9-10,.6l-10-10A120.2,120.2,0,0,0,232.6,41Q222.6,34,223.8,32.8Z"/></symbol>
        <symbol id="57"><path d="M97.3,51.6q-2.4-11.7,6.4-8.8a37,37,0,0,1,14.6,8.8q5.9,4.7,1.8,9.4T109,96.1a163.2,163.2,0,0,0,27.5-13.5q12.3-7.6,21.7-4.1t0,8.2q-8.2,4.7-22.3,11.7a190.2,190.2,0,0,1-29.3,11.7q-15.2,69.2-27.5,98.4T60.9,248.4c-3.9,6.3-7.2,9.4-10,9.4s-4.5-3.1-5.3-9.4a22.3,22.3,0,0,1,4.7-17q5.9-7.6,16.4-31.1t24.6-86.7q-19.9,2.4-30.5.6t-17.6-6.4q-8.2-5.9,4.7-4.7t23.4,1.2a125.3,125.3,0,0,0,22.3-4.7q3.5-19.9,4.7-28.7A55.9,55.9,0,0,0,97.3,51.6Zm38.7,145.3q8.2-9.4,9.4-8.8t-4.7,13.5q-5.9,11.7-2.9,21.7t20.5,14.6a105.1,105.1,0,0,0,36.9,2.9q19.3-1.8,28.7-4.1t14.6,2.3c3.5,3.9,4.5,7,2.9,9.4s-5.3,3.1-11.1,4.7-15.4,2.7-28.7,3.5a204.7,204.7,0,0,1-40.4-4.1q-20.5-4.1-28.7-14.6T126,216.2Q127.7,206.3,135.9,196.9Zm72.7-91.4a16.8,16.8,0,0,1,12.3,0q6.4,2.4,13.5,9.4c4.7,4.7,7.2,8.6,7.6,11.7s-1.4,5.1-5.3,5.9a60.7,60.7,0,0,0-13.5,1.8q-7.6,1.8-24,8.8t-21.1,7.6q-4.7.6,9.4-8.8t19.9-14.6q5.9-5.3,5.9-8.8t-19.9,1.2q-19.9,5.9-28.1,3.5t-11.1-6.4q-2.9-4.1,8.8-2.9a122.3,122.3,0,0,0,24.6-2.9A196.7,196.7,0,0,0,208.6,105.5ZM198,50.4q0-2.3,14.6,4.7T234.4,68q5.9,5.9,4.1,13.5t-5.3,8.8q-3.5,0-10.5-10.5a94.6,94.6,0,0,0-16.4-18.7Q196.9,51.6,198,50.4Zm24.6-17.6q1.2-1.2,14.6,4.7t20.5,11.7a13.6,13.6,0,0,1,5.3,12.3c-0.4,5.1-1.8,8.4-4.1,10s-6.6-1-10.5-7.6A82.4,82.4,0,0,0,232,44.5Q220.3,34,222.7,32.8Z"/></symbol>
        <symbol id="58"><path d="M97.3,49.2q-3.5-9.4,1.8-9.4a21.8,21.8,0,0,1,11.1,3.5,23.8,23.8,0,0,1,9.4,6.4q3.5,4.1,0,12.3t-11.7,34a294.1,294.1,0,0,0,36.9-5.9q14.6-3.5,22.9-5.9a12.2,12.2,0,0,1,13.5,1.2q6.4,4.7,5.3,8.2T154.7,102q-29.3,4.7-49.2,7-18.8,64.5-19.9,70.3,23.4-18.7,41.6-26.4t31.1-10q12.9-2.3,28.1,1.8a56.7,56.7,0,0,1,25.8,14.6q10.5,9.4,11.1,25.8t-8.8,34q-10.5,17.6-37.5,28.1T127.7,259q-23.5,1.2-24-1.2t24-5.9a186,186,0,0,0,45.1-15.2q21.7-10.5,29.9-27t3.5-29.9q-3.5-12.3-16.4-19.3t-31.1-5.3q-18.2,2.9-36.9,13.5T93.2,191q-10,11.7-14.6,11.7t-8.2-10.5q-3.5-10.5,1.2-17.6T91.4,109q-22.3,0-34.6-4.1t-17-10Q34,89.1,44.5,92a132,132,0,0,0,21.1,4.1q9.4,1.2,28.1,1.2Q98.4,76.2,99,67.4A58.9,58.9,0,0,0,97.3,49.2Zm99.6,3.5c0.8-.8,5.1.6,12.9,4.1a111.5,111.5,0,0,1,21.1,12.3q8.2,7,6.4,15.2c-1.2,5.5-3.3,8.6-6.4,9.4s-6.4-2.1-10-8.8a106.6,106.6,0,0,0-14.6-20.5Q195.7,53.9,196.9,52.7ZM225,37.5q0-1.2,12.3,3.5a91.7,91.7,0,0,1,20.5,10.5q7,5.9,5.3,13.5t-5.3,8.8q-4.7,1.2-10.5-8.2A100.7,100.7,0,0,0,233.2,48Q223.8,38.7,225,37.5Z"/></symbol>
        <symbol id="59"><path d="M151.2,72.7Q175.8,68,198,75t34,23.4q11.7,16.4,9.4,43.9A82.1,82.1,0,0,1,220.3,191q-18.8,21.1-49.2,31.6t-53.9,11.7q-24.6,1.2-29.3-1.8t22.3-6.4a237.7,237.7,0,0,0,51-12.9q25.2-9.4,40.4-24.6T220.3,157q4.7-16.4,3.5-30.5t-9.4-25.2q-7-9.9-19.9-14.6t-30.5-4.1q-17.6.6-42.2,10T83.2,109q-14.1,7-23.4,12.9t-17-1.2a52.5,52.5,0,0,1-10-11.7q-3.5-7,7-5.9t27-3.5Q82,94.9,104.3,86.1A259.9,259.9,0,0,1,151.2,72.7Zm57.4-29.3c0.8-.8,5.5.6,14.1,4.1s14.4,6.4,17.6,8.8a35.7,35.7,0,0,1,7.6,7.6c1.9,2.7,2.5,6.4,1.8,11.1s-3.5,6.3-5.9,7-5.1-1.2-8.2-5.9a81.9,81.9,0,0,0-9.4-13.5,111.3,111.3,0,0,0-11.7-11.1Q207.4,44.5,208.6,43.4Zm25.8-15.2q3.5-1.2,15.8,2.9t19.3,10q7,4.7,5.3,12.9t-5.3,9.4q-3.5,0-7-5.3a75.7,75.7,0,0,0-9.4-11.1A152.8,152.8,0,0,0,238.5,34C233.4,30.1,232,28.1,234.4,28.1Z"/></symbol>
        <symbol id="60"><path d="M181.6,57.4q24.6-5.9,38.1-5.9t18.2,5.9c3.1,3.9,4.7,7.2,4.7,10s-2.3,4.1-7,4.1-13.1-.2-22.9,1.8S190.2,82,174.6,93.8s-26.8,22.5-33.4,32.2a117.1,117.1,0,0,0-14.6,28.7q-5.9,14.1-4.1,33.4t12.3,31.1A48.5,48.5,0,0,0,160,234.4q14.6,3.5,22.9,3.5a18.6,18.6,0,0,1,12.3,1.8,18.1,18.1,0,0,1,7.6,7.6q1.2,4.7-4.7,8.2t-23.4,2.3q-18.8-2.3-37.5-14.1t-27-34q-9.4-22.2-3.5-46.9t25.8-49.2q19.9-24.6,56.3-44.5-24.6,1.2-75,16.4T56.3,99.6c-4.7-.8-9.2-3.1-13.5-7s-6.1-7-5.3-9.4,5.9-3.7,15.2-1.8,29.3-.6,59.8-7.6S165.2,60.6,181.6,57.4Zm10.5,62.1q1.2-1.2,14.1,4.7t19.9,11.7c3.9,3.9,5.7,8.2,5.3,12.9s-2.2,8.2-5.3,10.5-6.3.4-9.4-5.9a88.2,88.2,0,0,0-9.4-15.2,147.9,147.9,0,0,0-10.5-11.7Q191,120.7,192.2,119.5Zm27-17.6q0-2.3,12.3,2.9A79.4,79.4,0,0,1,252,117.2c4.7,3.9,6.6,8.2,5.9,12.9s-2.3,8.2-4.7,10.5-6.3-.4-9.4-5.9a113.3,113.3,0,0,0-9.4-14.1,65.2,65.2,0,0,0-10.5-12.3Q218,103.1,219.1,102Z"/></symbol>
        <symbol id="61"><path d="M94.9,52.7Q91.4,41,99,42.8a44.5,44.5,0,0,1,14.6,6.4q7,4.7,4.7,11.1t-3.5,18.2q-2.4,11.7-.6,29.3t12.3,29.3Q157,121.9,170.5,116t17-12.9q2.3-7,9.4,1.2t7,14.1q0,5.9-17,10.5a267.8,267.8,0,0,0-35.7,12.9q-18.8,7-41.6,21.7T79.7,192.2q-8.2,14.1-2.9,29.9t29.9,20.5a186,186,0,0,0,46.3,3.5q22.9-1.2,35.7-7t17.6-2.3a20.8,20.8,0,0,1,8.2,8.2q1.2,3.5-11.1,10T150,261.3q-41,0-62.1-8.8T60.9,225q-5.9-18.7,4.7-39.3t48-41.6A71,71,0,0,1,100.2,109q-1.8-18.7-1.8-31.6A85.2,85.2,0,0,0,94.9,52.7Zm98.4,0q0-2.3,12.9,4.1T225,69.1c3.9,3.9,5.7,8.2,5.3,12.9s-2.2,8.2-5.3,10.5-6.3.2-9.4-6.4a135.7,135.7,0,0,0-9.4-17c-3.9-4.7-7.2-8.4-10-11.1S192.6,53.5,193.4,52.7Zm25.8-15.2c0.8-.8,5.3.4,13.5,3.5a69.1,69.1,0,0,1,20.5,11.7q7,5.9,5.9,13.5t-4.7,10q-4.7,1.2-8.8-5.3l-8.8-13.5a141.2,141.2,0,0,0-12.9-13.5C219.1,39.7,217.6,37.5,219.1,37.5Z"/></symbol>
        <symbol id="62"><path d="M43.4,59.8q-1.2-8.2,5.9-5.9a33.2,33.2,0,0,1,12.9,8.2q5.9,4.7,1.2,11.7T51.6,116q-8.2,34-11.1,58.6t1.8,42.2Q55.1,187.5,58,179.3t5.3-7c0.8,0,.2,4.5-1.8,13.5s-4.1,19.7-6.4,32.2-5.1,20.3-5.9,25.8-2,8.6-3.5,9.4-5.3-1.8-8.8-7.6-6.4-15-8.8-27.5-2.3-33.8,2.3-61.5,8.2-47.1,10.5-58,3.5-19.9,3.5-24.6A86.8,86.8,0,0,0,43.4,59.8Zm109-9.4c0-2.3,2.1-3.1,6.4-2.3a36.7,36.7,0,0,1,13.5,5.9q7,3.5,4.7,8.8t-3.5,14.6q-2.4,9.4-2.3,28.1,21.1-5.9,29.3-9.4t15.2,0q5.9,2.4,7,6.4T210.9,109q-12.9,2.4-39.8,9.4v89.1A142.2,142.2,0,0,1,201,223.2q12.3,8.8,14.6,17c0.8,4.7-.2,8.6-2.9,11.7s-6.8,1.2-12.3-5.9-16.4-16.4-30.5-25.8q-2.4,19.9-14.1,29.9a46.2,46.2,0,0,1-27,11.1q-15.2,0-26.4-5.3T87.9,237.9q-3.5-14.1,2.9-25.8T116,198q18.7-2.3,42.2,4.7v-82q-18.8,3.5-30.5,2.9T109,119.5q-8.2-3.5-8.2-5.3c0-1.2,5.9-1.4,17.6-.6s25-1.9,39.8-5.9q0-38.7-2.9-46.3T152.3,50.4ZM157,215.6q-10.5-5.9-27.5-7t-24,7q-7,8.2-3.5,18.2T116,246.1a40.3,40.3,0,0,0,20.5-.6q9.9-2.9,14.6-10T157,215.6ZM209.8,46.9q1.2-1.2,12.9,3.5a71,71,0,0,1,19.9,11.7c4.7,3.9,6.6,8.2,5.9,12.9s-2.3,7.8-4.7,9.4-4.9.2-7.6-4.1l-8.8-13.5A133,133,0,0,0,215,53.9Q208.6,48.1,209.8,46.9Zm24.6-17.6c2.3,0,7.2,1.6,14.6,4.7a72.3,72.3,0,0,1,18.2,10.5q5.9,4.7,5.3,11.1c-0.4,4.3-1.8,7.6-4.1,10s-5.9.6-8.2-2.9-5.5-8-9.4-13.5a163.1,163.1,0,0,0-13.5-14.1Q230.9,29.3,234.4,29.3Z"/></symbol>
        <symbol id="63"><path d="M87.9,59.8q11.7-5.9,16.4-7t10.5,4.7a29.8,29.8,0,0,1,8.2,9.4q2.3,4.7-4.7,9.4T102,89.6Q92.6,99.6,82,116a185.7,185.7,0,0,0-16.4,31.1,102.2,102.2,0,0,0-7,31.1,98.8,98.8,0,0,0,2.9,32.2,43.7,43.7,0,0,0,17,25.2,42.9,42.9,0,0,0,29.3,8.2q16.4-1.2,31.6-11.7t25.8-34a137.3,137.3,0,0,0,14.1-49.2q2.3-26.9,1.8-45.1T178.1,75q-3.5-10.5,2.3-13.5a28.6,28.6,0,0,1,12.9-2.9q5.9-1.2,8.8,14.6a111.7,111.7,0,0,0,10,29.9,153.8,153.8,0,0,0,14.1,26.4A101.7,101.7,0,0,0,243.8,150q9.4,8.2,8.2,11.7a18.5,18.5,0,0,1-4.7,7c-3.1,1.6-6.8,1.2-11.1-1.2s-10.4-9.4-18.2-21.1-16-31.6-24.6-59.8q3.5,53.9-1.8,80.3t-15.8,46.3q-11.7,19.9-28.1,31.1a80.4,80.4,0,0,1-36.3,13.5Q90.2,260.1,75,252T51.6,223.8q-9.4-19.9-7-48.6a126,126,0,0,1,17.6-54.5Q77.3,94.9,87.9,82.6t8.2-13.5q-2.4-1.2-17,4.7A192.7,192.7,0,0,0,56.3,84.4c-6.3,3.1-11.1,3.9-14.6,2.3s-6.8-4.7-10-9.4-1-6.8,6.4-6.4a102.8,102.8,0,0,0,24-1.8A170.5,170.5,0,0,0,87.9,59.8Zm123-16.4q1.2-1.2,12.3,3.5a56.3,56.3,0,0,1,18.2,11.7q7,5.9,6.4,13.5c-0.4,5.1-1.8,8.4-4.1,10s-5.7-.6-7.6-4.1-4.1-7.2-6.4-11.1a125.4,125.4,0,0,0-12.3-15.2C212.3,46.1,210.2,43.4,210.9,43.4ZM232,25.8c0-.8,3.7.2,11.1,2.9a82.6,82.6,0,0,1,19.3,10q7,5.9,7,12.3A18,18,0,0,1,266,62.1c-2.3,2.3-5.1,1-8.2-4.1a139.3,139.3,0,0,0-9.4-13.5,105.6,105.6,0,0,0-11.1-11.7Q230.9,27,232,25.8Z"/></symbol>
        <symbol id="64"><path d="M121.9,150q-7-12.9-2.9-24.6t29.9-30.5q-8.2-8.2-15.8-17a86.4,86.4,0,0,1-12.3-18.2c-3.9-6.2-5.3-9.8-4.1-10.5s4.9,2,11.1,8.2a146.9,146.9,0,0,0,19.3,16.4q9.9,7,18.2,11.7t8.8,10a21.1,21.1,0,0,1-.6,8.8q-1.2,3.5-8.2,4.1t-17.6,5.3a32.2,32.2,0,0,0-15.8,14.6q-5.3,10,1.8,22.9a245.1,245.1,0,0,0,14.1,21.1q17.6-8.2,32.8-7.6t28.7,11.7q13.5,11.2,19.3,25.2t2.3,23.4q-2.4,10.5-8.8,14.6t-10.5-2.9q-4.1-7-16.4-14.6t1.2-5.3q13.5,2.4,18.2-2.3t0-15.8q-4.7-11.1-18.7-22.9T150,177a74,74,0,0,1,14.1,18.8q3.5,8.2,4.1,22.3a36.4,36.4,0,0,1-7.6,24.6q-9.4,10.5-25.2,10.5t-27.5-11.7Q96.1,228.5,96.1,225t14.1,7q12.9,9.4,21.7,8.8a31.7,31.7,0,0,0,15.8-5.3q5.9-5.9,5.9-17.6a52.1,52.1,0,0,0-5.9-23.4l-9.4-12.9q-30.5,12.9-49.2,29.3Q75,223.8,66.2,232.6T50.4,243.8q-8.2,1.2-10-1.8t-0.6-8.8a167.6,167.6,0,0,0-1.2-17.6c-0.8-7-.8-11.3,0-12.9s2.5,0,5.3,7,4.5,11.3,5.3,12.9,2.7,1.6,5.9,0,9.8-5.5,19.9-11.7,18-12.1,23.4-15.2q4.7-3.5,37.5-18.7A296.1,296.1,0,0,1,121.9,150Zm80.9-72.7c0-1.6,3.7-.6,11.1,2.9A86.1,86.1,0,0,1,232,91.4q7,5.9,7,11.7a17.1,17.1,0,0,1-3.5,10.5q-4.7,3.5-8.8-3.5A110.2,110.2,0,0,0,218,97.3a85.6,85.6,0,0,0-10.5-12.9Q201.5,78.5,202.7,77.3Zm21.1-17.6c0.8-.8,5.5.6,14.1,4.1s14.8,7.2,18.8,11.1,5.7,7,5.3,11.7-1.8,7.8-4.1,9.4-4.5-.2-6.4-2.9-4.5-6.4-7.6-11.1A151.8,151.8,0,0,0,230.3,68Q222.6,60.9,223.8,59.8Z"/></symbol>
        <symbol id="65"><path d="M113.7,82q7-2.3,15.8,1.8t21.7,20.5q11.7,15.2,27,33.4t28.1,31.1a128.1,128.1,0,0,0,29.3,19.9q16.4,8.2,21.1,12.9a10.2,10.2,0,0,1,2.9,8.8c-0.4,3.5-3.3,5.7-8.8,6.4s-16-4.7-29.3-14.1-27.4-23.8-42.2-43.4-27-34.2-34-43.9S132,98.8,126.6,94.9s-11.1-3.5-17,1.2-14.3,14.5-25.2,29.3S65.6,150,60.9,154.7s-9.4,6.6-14.1,5.9a22.2,22.2,0,0,1-12.3-6.4q-5.3-5.3,2.9-7.6a69,69,0,0,0,15.2-7.6q8.2-5.3,19.9-17T94.3,96.7Q105.5,84.4,113.7,82Zm72.7-17.6q1.2-1.2,15.8,5.3t20.5,13.5c3.1,3.9,4.1,8,2.9,12.3s-2.9,7.2-5.3,8.8-4.7-1-7-5.3a85.7,85.7,0,0,0-9.4-13.5A141.2,141.2,0,0,0,191,72.1C186.3,67.8,184.8,65.2,186.3,64.5Zm23.4-15.2q1.2-1.2,12.9,2.9a106.9,106.9,0,0,1,21.1,10q8.2,5.9,6.4,14.1t-5.3,9.4q-3.5,1.2-7-4.1a149.9,149.9,0,0,0-9.4-12.3,102,102,0,0,0-12.9-12.9Q208.6,50.4,209.8,49.2Z"/></symbol>
        <symbol id="66"><path d="M51.6,53.9a22.3,22.3,0,0,1,12.3,6.4q5.3,5.3,1.8,13.5T53.9,106.6q-7,25.8-8.2,59.8t1.2,50.4q9.4-18.7,14.1-29.9t7-10q2.3,0-1.8,14.1a226.2,226.2,0,0,0-6.4,29.3q-3.5,15.2-4.7,24.6t-7,3.5q-7-7-12.3-22.3T31.6,184a323.8,323.8,0,0,1,5.3-57.4q5.3-29.3,10-43.4t0-22.9Q43.4,51.6,51.6,53.9ZM168.8,66.8q15.2-2.3,24-5.3c5.9-1.9,10.7-1.8,14.6.6s5.9,3.3,5.9,5.3-3.5,4.1-10.5,6.4-20.3,3.5-37.5,5.9q11.7,7,10,12.9c-1.2,3.9-1.8,9.4-1.8,16.4a265.1,265.1,0,0,0-1.2,28.1q24.6-4.7,31.6-7.6t11.7-1.8a13.1,13.1,0,0,1,7.6,5.3q2.9,4.1-2.9,6.4a176.3,176.3,0,0,1-17.6,4.7q-10.5,2.4-30.5,5.9v70.3q24.6,10.5,33.4,17.6t10,12.9a16,16,0,0,1-1.8,11.1q-2.9,5.3-13.5-6.4a152,152,0,0,0-29.3-22.3q-2.4,18.8-13.5,28.1t-28.7,10.5q-18.8,0-29.3-5.3T85.5,252a25.6,25.6,0,0,1-1.8-19.3,28.9,28.9,0,0,1,11.1-15.8q7-5.9,24.6-7.6t38.7,5.3V152.3a159.4,159.4,0,0,1-27.5,0q-11.2-1.2-18.2-5.9c-4.7-3.1-4.9-4.7-.6-4.7h19.3a178.3,178.3,0,0,0,27-2.3q1.2-46.9-4.7-58.6-15.2,0-21.7-.6a42.9,42.9,0,0,1-12.3-2.9,21.4,21.4,0,0,1-8.8-5.9c-2-2.3,1.8-3.1,11.1-2.3a145.8,145.8,0,0,0,22.3.6Q153.5,69.1,168.8,66.8Zm-34,152.3a68.7,68.7,0,0,0-21.7,1.2q-11.2,2.4-15.8,10.5t0,17q4.7,8.8,15.2,11.1t21.7,0q12.3-2.3,18.2-10.5a60.4,60.4,0,0,0,5.9-21.1Q144.1,220.3,134.8,219.1ZM214.5,91.4c0-.8,3.9.6,11.7,4.1a82.3,82.3,0,0,1,18.8,11.1q5.9,5.9,5.3,13.5c-0.4,5.1-1.8,8.4-4.1,10s-4.5-.4-6.4-3.5-4.5-7-7.6-11.7a166.3,166.3,0,0,0-12.3-15.2Q213.3,92.6,214.5,91.4Zm22.3-15.2c0.8-.8,5.9.6,15.2,4.1s16.4,7.2,21.1,11.1,4.7,8.8,2.3,14.6-5.5,6.1-9.4.6-8.6-9.8-11.7-12.9-7-6.6-11.7-10.5S235.1,76.2,236.7,76.2Z"/></symbol>
        <symbol id="67"><path d="M48,56.3q5.9,1.2,12.3,6.4t2.9,13.5q-4.7,8.2-9.4,24.6T44.5,143q-5.9,24.6-7,42.8T39.8,218q9.4-18.7,14.6-29.9c3.5-7.4,6-10.7,7.6-10s-0.2,5.5-2.9,16.4-4.9,21.1-6.4,30.5A169.4,169.4,0,0,0,48,246.7q-1.2,8.8-7,2.9T27.5,220.9Q21.1,198,27,165.2t10-51.6Q41,96.1,43.4,83.2t0-21.1C41.8,56.7,43.4,54.7,48,56.3ZM153.5,48c1.6-.8,4.3-0.8,8.2,0a27.9,27.9,0,0,1,11.7,5.9q4.7,4.7,2.3,9.4t-3.5,14.1q-1.2,8.2-1.2,28.1,15.2-3.5,21.1-5.3t11.7-2.9a14.7,14.7,0,0,1,10-1.2,14.9,14.9,0,0,1,8.8,5.9q3.5,4.7-11.1,7.6t-40.4,8.8v89.1q19.9,9.4,30.5,17.6t11.7,15.2c0.8,4.7,0,8.4-2.3,11.1s-6.6.6-12.9-6.4-15.6-16-28.1-24.6q-2.4,21.1-14.6,30.5t-29.9,9.4q-17.6,0-28.1-7.6T84.4,234.4a28.2,28.2,0,0,1,4.1-21.7q6.4-9.9,25.2-13.5t44.5,3.5v-82q-16.4,2.4-26.4,1.8a82.9,82.9,0,0,1-18.2-2.9q-9.4-3.5-12.3-7t13.5-1.2q15.2,1.2,43.4-3.5,1.2-37.5-3.5-48T153.5,48ZM157,215.6q-8.2-5.9-22.9-7T109,213.3Q98.4,218,97.9,226.8t7.6,14.6a26.9,26.9,0,0,0,15.8,6.4,43.1,43.1,0,0,0,18.2-2.9,24.5,24.5,0,0,0,12.3-11.1A49.8,49.8,0,0,0,157,215.6ZM226.2,35.2a21.8,21.8,0,0,1,17-2.3A32.1,32.1,0,0,1,257.8,41a21.9,21.9,0,0,1,4.7,14.1A33.6,33.6,0,0,1,259,70.3q-4.7,7-14.1,9.4a26.8,26.8,0,0,1-17.6-1.2Q218,73.8,215,65a28,28,0,0,1-.6-17Q216.8,39.9,226.2,35.2Zm15.2,4.7a17.9,17.9,0,0,0-11.7,1.8,12.2,12.2,0,0,0-7,8.8,21.3,21.3,0,0,0,0,10,14.7,14.7,0,0,0,5.9,8.8,18.5,18.5,0,0,0,8.2,2.9,16,16,0,0,0,9.4-1.8c3.1-1.6,5.3-4.9,6.4-10s0.6-9.6-1.8-13.5S245.3,40.6,241.4,39.8Z"/></symbol>
        <symbol id="68"><path d="M86.7,60.9q12.9-5.9,17.6-7t10.5,3.5a39.2,39.2,0,0,1,8.8,9.4q2.9,4.7-6.4,10.5T97.3,93.8a161.7,161.7,0,0,0-14.1,19.9q-5.9,7-12.9,21.1a125.5,125.5,0,0,0-10.5,31.6A100.2,100.2,0,0,0,58,198.6a54,54,0,0,0,12.3,28.7q9.4,12.9,23.4,16.4t31.6-2.3q16.4-5.9,31.6-27t21.1-52.7q5.9-31.6,4.7-49.8t-2.3-26.4a85.7,85.7,0,0,0-4.1-16.4q-2.9-8.2,10-10.5t15.2,10a160.7,160.7,0,0,0,8.2,27.5A134.7,134.7,0,0,0,223.2,126q8.8,14.7,19.3,22.9t7,15.2q-3.5,7-11.7,3.5t-21.7-23.4q-13.5-19.9-22.9-58.6,4.7,53.9-1.2,83.8T174.6,218a104.5,104.5,0,0,1-29.3,29.3,76.1,76.1,0,0,1-38.7,12.9q-21.1,1.2-36.3-10a57.1,57.1,0,0,1-21.1-28.7,103.9,103.9,0,0,1-6.4-39.8q0.6-21.1,12.3-46.9T83.2,89.1Q99.6,70.3,97.3,70.3T79.7,74.4q-15.2,4.1-24.6,10t-17-.6q-6.5-5.3-7.6-10t7.6-4.1q8.8,0.6,22.9-1.8A157.5,157.5,0,0,0,86.7,60.9ZM233.2,36.3A17.6,17.6,0,0,1,248.4,34a24.8,24.8,0,0,1,12.9,8.2A16,16,0,0,1,266,53.9,31.2,31.2,0,0,1,262.5,68q-3.5,5.9-12.3,8.2c-5.9,1.6-11.1,1.2-15.8-1.2a19.3,19.3,0,0,1-11.1-11.7c-2-5.5-2.2-10.5-.6-15.2A17.5,17.5,0,0,1,233.2,36.3Zm14.1,3.5a16,16,0,0,0-11.1,1.8c-3.5,2-5.7,4.5-6.4,7.6a18.9,18.9,0,0,0,0,9.4,17.3,17.3,0,0,0,4.7,8.2,18.5,18.5,0,0,0,8.2,2.9A16,16,0,0,0,252,68q3.5-2.3,5.3-9.4t-1.8-11.7C253.1,43,250.4,40.6,247.3,39.8Z"/></symbol>
        <symbol id="69"><path d="M120.7,150q-7-12.9-2.9-24.6t29.9-30.5q-8.2-8.2-15.8-17a86.4,86.4,0,0,1-12.3-18.2c-3.9-6.2-5.3-9.8-4.1-10.5s4.9,2,11.1,8.2a146.9,146.9,0,0,0,19.3,16.4q9.9,7,18.2,11.7t8.8,10a21.1,21.1,0,0,1-.6,8.8q-1.2,3.5-8.2,4.1t-17.6,5.3a32.2,32.2,0,0,0-15.8,14.6q-5.3,10,1.8,22.9a245.1,245.1,0,0,0,14.1,21.1q17.6-8.2,32.8-7.6T208,176.4q13.5,11.2,19.3,25.2t2.3,23.4q-2.4,10.5-8.8,14.6t-10.5-2.9q-4.1-7-16.4-14.6t1.2-5.3q13.5,2.4,18.2-2.3t0-15.8q-4.7-11.1-18.7-22.9T148.8,177a74,74,0,0,1,14.1,18.8q3.5,8.2,4.1,22.3a36.4,36.4,0,0,1-7.6,24.6q-9.4,10.5-25.2,10.5t-27.5-11.7Q94.9,228.5,94.9,225t14.1,7q12.9,9.4,21.7,8.8a31.7,31.7,0,0,0,15.8-5.3q5.9-5.9,5.9-17.6a52.1,52.1,0,0,0-5.9-23.4l-9.4-12.9q-30.5,12.9-49.2,29.3Q73.8,223.8,65,232.6T49.2,243.8q-8.2,1.2-10-1.8t-0.6-8.8a167.6,167.6,0,0,0-1.2-17.6c-0.8-7-.8-11.3,0-12.9s2.5,0,5.3,7,4.5,11.3,5.3,12.9,2.7,1.6,5.9,0,9.8-5.5,19.9-11.7,18-12.1,23.4-15.2q4.7-3.5,37.5-18.7A296.1,296.1,0,0,1,120.7,150Zm99.6-90.2a19.2,19.2,0,0,1,15.2-2.9,21.8,21.8,0,0,1,12.9,7.6,21.1,21.1,0,0,1,4.7,13.5,32.3,32.3,0,0,1-3.5,14.6,21.7,21.7,0,0,1-12.9,7.6,22.5,22.5,0,0,1-15.2-1.8,19.3,19.3,0,0,1-11.1-11.7c-2-5.5-2.2-10.5-.6-15.2A17.5,17.5,0,0,1,220.3,59.8Zm14.1,4.7a12.9,12.9,0,0,0-17.6,9.4,18.9,18.9,0,0,0,0,9.4,10.4,10.4,0,0,0,5.9,7,17.9,17.9,0,0,0,7.6,2.9c2.7,0.4,5.7-.6,8.8-2.9a13.4,13.4,0,0,0,5.3-10c0.4-4.3-.2-7.6-1.8-10S238.3,65.2,234.4,64.5Z"/></symbol>
        <symbol id="70"><path d="M112.5,83.2q5.9-3.5,15.8-.6t24,21.7l34,42.8q19.9,25.2,32.8,34.6a146.2,146.2,0,0,0,27.5,15.8q14.6,6.5,12.3,12.3c-2.3,3.9-6.3,5.9-11.7,5.9s-13.7-3.5-24.6-10.5-21.9-18.3-32.8-31.6S168,145.7,157,130.1s-20.3-27.5-25.8-33.4-11.3-6-17.6-.6S99,110.7,88.5,123.6s-18.2,22.1-22.9,27.5-9.8,7.4-12.9,8.2a13.1,13.1,0,0,1-9.4-1.2,28.3,28.3,0,0,1-8.8-7.6q-2.9-4.1,5.3-6.4a69.7,69.7,0,0,0,17.6-8.2,88.4,88.4,0,0,0,18.8-16.4Q84.4,109,94.9,97.9T112.5,83.2Zm97.3-22.3A22.5,22.5,0,0,1,225,59.2a21.8,21.8,0,0,1,12.9,7.6c3.1,3.1,4.7,7.2,4.7,12.3a32.3,32.3,0,0,1-3.5,14.6,19.2,19.2,0,0,1-12.9,7,32.6,32.6,0,0,1-15.2-1.2q-7-2.3-10.5-10.5a23.8,23.8,0,0,1-1.2-16.4A17.5,17.5,0,0,1,209.8,60.9Zm14.1,4.7A12.9,12.9,0,0,0,206.3,75a18.9,18.9,0,0,0,0,9.4,14.6,14.6,0,0,0,5.9,8.2,14.3,14.3,0,0,0,8.2,2.3,15.6,15.6,0,0,0,9.4-3.5c3.1-2.3,4.7-5.9,4.7-10.5s-0.8-8.2-2.3-10.5S227.7,66.4,223.8,65.6Z"/></symbol>
        <symbol id="71"><path d="M51.6,53.9a22.3,22.3,0,0,1,12.3,6.4q5.3,5.3,1.8,13.5T53.9,106.6q-7,25.8-8.2,59.8T46.9,218q9.4-19.9,14.1-30.5c3.1-7,5.5-10.1,7-9.4s0,5.9-2.3,15.2-4.3,19.2-5.9,29.3a194.4,194.4,0,0,0-4.7,24q-1.2,10-7,2.9T35.7,226.8q-5.3-15.8-4.1-42.8a323.8,323.8,0,0,1,5.3-57.4q5.3-29.3,10-43.4t0-22.9Q43.4,51.6,51.6,53.9ZM168.8,66.8q15.2-2.3,24-5.3c5.9-1.9,10.7-1.8,14.6.6s5.9,3.3,5.9,5.3-3.5,4.1-10.5,6.4-20.3,3.5-37.5,5.9q11.7,7,10,12.9c-1.2,3.9-1.8,9.4-1.8,16.4a265.1,265.1,0,0,0-1.2,28.1q24.6-4.7,31.6-7.6t11.7-1.8a13.1,13.1,0,0,1,7.6,5.3q2.9,4.1-2.9,6.4a176.3,176.3,0,0,1-17.6,4.7q-10.5,2.4-30.5,5.9v70.3q24.6,11.7,33.4,18.8t10,12.9a16,16,0,0,1-1.8,11.1q-2.9,5.3-14.6-6.4a140.6,140.6,0,0,0-28.1-23.4q-2.4,18.8-13.5,28.1t-28.7,10.5q-18.8,0-29.3-5.3T85.5,252a25.6,25.6,0,0,1-1.8-19.3,28.9,28.9,0,0,1,11.1-15.8q7-5.9,24.6-7.6t38.7,5.3V152.3a159.4,159.4,0,0,1-27.5,0q-11.2-1.2-18.2-5.9c-4.7-3.1-4.9-4.7-.6-4.7h19.3a178.3,178.3,0,0,0,27-2.3q1.2-46.9-4.7-58.6-15.2,0-21.7-.6a42.9,42.9,0,0,1-12.3-2.9,21.4,21.4,0,0,1-8.8-5.9c-2-2.3,1.8-3.1,11.1-2.3a145.8,145.8,0,0,0,22.3.6Q153.5,69.1,168.8,66.8Zm-34,152.3a68.7,68.7,0,0,0-21.7,1.2q-11.2,2.4-15.8,10.5t0,17q4.7,8.8,15.2,11.1t21.7,0q12.3-2.3,18.2-10.5a60.4,60.4,0,0,0,5.9-21.1Q144.1,220.3,134.8,219.1ZM239.1,73.8q8.2-4.7,16.4-2.9a21.8,21.8,0,0,1,12.9,7.6c3.1,3.9,4.7,8.8,4.7,14.6s-1.2,10.7-3.5,14.6-7.4,5.5-12.9,7a20.4,20.4,0,0,1-15.2-1.2A19.3,19.3,0,0,1,230.3,102a26.1,26.1,0,0,1-.6-16.4C230.5,80.1,233.6,76.2,239.1,73.8Zm15.2,4.7a12.9,12.9,0,0,0-17.6,9.4,18.9,18.9,0,0,0,0,9.4,14.6,14.6,0,0,0,5.9,8.2,15.4,15.4,0,0,0,8.8,2.3,16.3,16.3,0,0,0,10-3.5q3.5-3.5,3.5-10c0-4.3-.8-7.6-2.3-10S258.2,79.3,254.3,78.5Z"/></symbol>
    </defs>
    <g id="k1"><use xlink:href="#1"/></g>
    <g id="k2"><use xlink:href="#2"/></g>
    <g id="k3"><use xlink:href="#3"/></g>
    <g id="k4"><use xlink:href="#4"/></g>
    <g id="k5"><use xlink:href="#5"/></g>
    <g id="k6"><use xlink:href="#6"/></g>
    <g id="k7"><use xlink:href="#7"/></g>
    <g id="k8"><use xlink:href="#8"/></g>
    <g id="k9"><use xlink:href="#9"/></g>
    <g id="k10"><use xlink:href="#10"/></g>
    <g id="k11"><use xlink:href="#11"/></g>
    <g id="k12"><use xlink:href="#12"/></g>
    <g id="k13"><use xlink:href="#13"/></g>
    <g id="k14"><use xlink:href="#14"/></g>
    <g id="k15"><use xlink:href="#15"/></g>
    <g id="k16"><use xlink:href="#16"/></g>
    <g id="k17"><use xlink:href="#17"/></g>
    <g id="k18"><use xlink:href="#18"/></g>
    <g id="k19"><use xlink:href="#19"/></g>
    <g id="k20"><use xlink:href="#20"/></g>
    <g id="k21"><use xlink:href="#21"/></g>
    <g id="k22"><use xlink:href="#22"/></g>
    <g id="k23"><use xlink:href="#23"/></g>
    <g id="k24"><use xlink:href="#24"/></g>
    <g id="k25"><use xlink:href="#25"/></g>
    <g id="k26"><use xlink:href="#26"/></g>
    <g id="k27"><use xlink:href="#27"/></g>
    <g id="k28"><use xlink:href="#28"/></g>
    <g id="k29"><use xlink:href="#29"/></g>
    <g id="k30"><use xlink:href="#30"/></g>
    <g id="k31"><use xlink:href="#31"/></g>
    <g id="k32"><use xlink:href="#32"/></g>
    <g id="k33"><use xlink:href="#33"/></g>
    <g id="k34"><use xlink:href="#34"/></g>
    <g id="k35"><use xlink:href="#35"/></g>
    <g id="k36"><use xlink:href="#36"/></g>
    <g id="k37"><use xlink:href="#37"/></g>
    <g id="k38"><use xlink:href="#38"/></g>
    <g id="k39"><use xlink:href="#39"/></g>
    <g id="k40"><use xlink:href="#40"/></g>
    <g id="k41"><use xlink:href="#41"/></g>
    <g id="k42"><use xlink:href="#42"/></g>
    <g id="k43"><use xlink:href="#43"/></g>
    <g id="k44"><use xlink:href="#44"/></g>
    <g id="k45"><use xlink:href="#45"/></g>
    <g id="k46"><use xlink:href="#46"/></g>
    <g id="k47"><use xlink:href="#47"/></g>
    <g id="k48"><use xlink:href="#48"/></g>
    <g id="k49"><use xlink:href="#49"/></g>
    <g id="k50"><use xlink:href="#50"/></g>
    <g id="k51"><use xlink:href="#51"/></g>
    <g id="k52"><use xlink:href="#52"/></g>
    <g id="k53"><use xlink:href="#53"/></g>
    <g id="k54"><use xlink:href="#54"/></g>
    <g id="k55"><use xlink:href="#55"/></g>
    <g id="k56"><use xlink:href="#56"/></g>
    <g id="k57"><use xlink:href="#57"/></g>
    <g id="k58"><use xlink:href="#58"/></g>
    <g id="k59"><use xlink:href="#59"/></g>
    <g id="k60"><use xlink:href="#60"/></g>
    <g id="k61"><use xlink:href="#61"/></g>
    <g id="k62"><use xlink:href="#62"/></g>
    <g id="k63"><use xlink:href="#63"/></g>
    <g id="k64"><use xlink:href="#64"/></g>
    <g id="k65"><use xlink:href="#65"/></g>
    <g id="k66"><use xlink:href="#66"/></g>
    <g id="k67"><use xlink:href="#67"/></g>
    <g id="k68"><use xlink:href="#68"/></g>
    <g id="k69"><use xlink:href="#69"/></g>
    <g id="k70"><use xlink:href="#70"/></g>
    <g id="k71"><use xlink:href="#71"/></g>
</svg>