<svg xmlns="http://www.w3.org/2000/svg" xmlns:xlink="http://www.w3.org/1999/xlink" viewBox="0 0 300 300">
    <defs>
        <style>
            g {display: none; fill: #222}
            g:target,
            g:target g {display: inline}
        </style>
        <symbol id="1"><path d="M114.8,30.5q1.2-3.5,7.6-1.8c4.3,1.2,8.8,3.7,13.5,7.6s4.1,6.8.6,11.1-6.1,13.9-7.6,28.7q28.1-7,42.2-13.5t22.3-2.9c5.5,2.3,6.6,5.1,3.5,8.2s-26.2,10.5-69.1,22.3q-2.4,22.3-3.5,42.2a160.3,160.3,0,0,1,34-11.7,128,128,0,0,0-.6-13.5q-0.6-5.3,8.8-1.8t7,14.1a148.1,148.1,0,0,1,31.1,2.9,60.9,60.9,0,0,1,25.2,12.3,43.3,43.3,0,0,1,16.4,21.7q4.7,13.5,2.3,31.1T235,220.9q-11.2,17-32.2,29.9t-41.6,15.8q-20.5,4.1-20.5,2.9t18.2-8.8A173,173,0,0,0,198,241.4q18.7-14.1,28.1-32.2t7-36.9q-2.4-19.9-17-31.6t-43.9-10.5q-7,24.6-16.4,42.2a358.6,358.6,0,0,1-23.4,37.5q5.9,12.9,11.1,18.8t2.9,10.5c-1.6,2.3-4.7,3.7-9.4,4.1s-10.2-6.8-16.4-21.7a157.4,157.4,0,0,1-18.2,15.8,87,87,0,0,1-17,10,41,41,0,0,1-17,1.2q-8.8-1.2-15.8-14.1t2.9-38.7q9.9-24.6,55.7-57.4,1.2-21.1,2.3-45.7-14.1,1.2-22.9,1.2a88.9,88.9,0,0,1-19.3-2.3q-10.5-2.3-12.3-5.9c-1.2-2.3,1.8-3.1,8.8-2.3S81,83,88.5,82.6a265.2,265.2,0,0,0,26.4-2.9q3.5-31.6.6-39.3T114.8,30.5Zm-2.3,123a169.5,169.5,0,0,0-32.8,29.3q-14.1,16.4-15.2,31.6t5.3,18.8q7.6,3.5,18.2,0T116,207.4Q112.5,192.2,112.5,153.5ZM157,132.4q-16.4,3.5-32.8,14.1a416.8,416.8,0,0,0,2.3,48Q146.5,167.6,157,132.4Z"/></symbol>
        <symbol id="2"><path d="M52.7,75q2.3-2.3,10.5.6a28.3,28.3,0,0,1,12.9,8.8q4.7,4.7,0,11.7T68,118.4q-4.7,14.1-5.9,34.6t7,35.7q7,15.2,11.7,18.2t9.4-2.9q3.5-5.9,14.6-25.2T116,162.9q0,3.5-5.3,19.9a263,263,0,0,0-7.6,28.1,170.6,170.6,0,0,0-2.9,18.8c-0.4,4.7-2.2,7.4-5.3,8.2S84.6,234,75.6,226.2,59,207.4,52.7,193.4s-7.8-31.4-4.7-52.1,5.5-34.6,7-41.6S55.3,85.9,53.3,82,51.2,75.8,52.7,75ZM184,91.4q1.2-2.3,16.4,6.4a130,130,0,0,1,27,20.5,79.3,79.3,0,0,1,15.8,26.4,84.5,84.5,0,0,1,5.3,28.7q0,14.1-2.9,22.3a37.4,37.4,0,0,1-8.8,14.1q-5.9,5.9-11.1-1.8t-19.3-17q-14.1-10.5-15.2-12.9t11.7,2.3q12.9,3.5,19.3,4.7t8.8-1.2c0.8-1.6,1.2-5.3,1.2-11.1a106.9,106.9,0,0,0-2.3-20.5q-3.5-12.9-12.9-26.4a109.1,109.1,0,0,0-21.1-22.9Q182.8,92.6,184,91.4Z"/></symbol>
        <symbol id="3"><path d="M165.2,94.9q15.2-3.5,31.1,4.7t20.5,31.6q4.7,22.3-2.9,51t-25.2,47.5A127.5,127.5,0,0,1,150,258.4q-21.1,9.9-31.6,12.3t-11.7.6q0-1.8,25.8-13.5a144.4,144.4,0,0,0,42.8-34q18.2-21.1,24-45.7t2.9-41q-1.8-15.2-10-23.4t-21.7-7.6q-13.5.6-39.3,15.8L96.1,141.8a15.5,15.5,0,0,1-16.4,0q-8.2-5.9-9.4-8.8c-0.8-1.9,1.6-2.9,7-2.9A83.1,83.1,0,0,0,93.8,126q8.2-2.9,32.8-14.6T165.2,94.9ZM112.5,35.2q1.2-1.2,9.4,1.8t30.5,5.3q21.1,2.4,29.3,6.4c5.5,2.7,9,5.3,10.5,7.6a13.5,13.5,0,0,1,2.3,7.6c0,2.7-4.3,4.1-12.9,4.1a133.4,133.4,0,0,0-28.7,3.5c-10.5,2.3-16.2,3.1-17,2.3s1.2-2.3,5.9-4.7,9-4.7,12.9-7,4.7-4.3,4.7-5.9-3.5-2.7-10.5-3.5A128,128,0,0,1,130.7,48a63.3,63.3,0,0,1-13.5-7C112.5,37.9,110.9,35.9,112.5,35.2Z"/></symbol>
        <symbol id="4"><path d="M140.6,109q19.9-9.4,24-11.7t13.5,2.3q8.2,4.7,10.5,10c1.6,3.5.8,6.8-2.3,10s-10.5,9.2-19.9,20.5-24.2,29.5-44.5,54.5q18.7-7,27-2.3a26.9,26.9,0,0,1,11.7,12.9q3.5,8.2,4.1,23.4t4.1,21.1q3.5,4.7,15.2,4.7a101.8,101.8,0,0,0,22.3-2.3q9.4-3.5,15.8-6.4t14.6,1.8q7,4.7,6.4,8.2t-17,7a238.4,238.4,0,0,1-34,4.7q-17.6,1.2-28.1-3.5t-12.3-23.4q-1.8-17.6-2.9-24.6a20,20,0,0,0-5.3-11.1,13.6,13.6,0,0,0-10-4.1,23.8,23.8,0,0,0-12.9,1.2q-5.9,2.4-25.8,28.1T70.3,262.5q-4.7,7-8.2,7t-6.4-5.3a31.5,31.5,0,0,1-1.8-10q0-5.9,9.4-12.9t29.3-29.3q19.9-22.2,46.9-58t28.1-40.4q1.2-5.9-11.1-1.2t-32.2,14.1Q103.1,136,94.9,140t-15.2,1.8a32.2,32.2,0,0,1-12.9-9.4q-4.7-5.9,9.4-5.9a105.8,105.8,0,0,0,28.7-4.1Q119.5,118.4,140.6,109ZM123,43.4l18.2,4.1,17,4.1A46.4,46.4,0,0,1,173.4,58c3.9,2.7,6.6,5.3,8.2,7.6a8.8,8.8,0,0,1,1.2,7.6q-1.2,4.1-9.4,5.3t-26.4,4.1q-18.2,4.1-20.5,2.9t7.6-5.9a88.6,88.6,0,0,0,14.6-8.2c2.3-2.3,3.7-4.3,4.1-5.9s-1.8-3.1-6.4-4.7a155.9,155.9,0,0,1-21.1-11.7Q112.5,41,123,43.4Z"/></symbol>
        <symbol id="6"><path d="M116,52.7a37.4,37.4,0,0,1,12.9,5.9q7,4.7,8.2,9.4T131.8,82q-5.3,10.5-13.5,30.5,19.9-7,34-5.3T175.8,123q9.4,12.9-1.2,53.3T157,230.9q-8.2,12.9-15.2,18.8a56,56,0,0,1-16.4,9.4q-9.4,3.5-13.5-5.9a69.5,69.5,0,0,0-8.8-15.2L92,224.4q-5.3-6.4,2.9-2.9t15.2,7a66.3,66.3,0,0,0,15.2,4.7q7,1.2,15.2-10.5t15.2-36.3q7-25.8,7-40.4T157,125.4a19.9,19.9,0,0,0-14.6-5.9q-8.8,0-27.5,5.9-21.1,49.2-35.7,73.8T58.6,235.5q-7,10.5-11.7,14.6t-8.2-5.3q-3.5-10.5,2.9-16.4a102.6,102.6,0,0,0,11.1-11.7q4.7-7,18.2-31.1a394.6,394.6,0,0,0,25.2-55.7q-25.8,7-35.2,12.3t-16.4-1.8q-7-8.2-7.6-12.3c-0.4-2.7,1.8-4.1,6.4-4.1q25.8,2.4,57.4-8.2,8.2-21.1,10-30.5a83.8,83.8,0,0,0,1.8-14.1A60.9,60.9,0,0,0,110.7,58Q109,50.4,116,52.7Zm91.4,55.1q-2.4-3.5,17,8.2t31.1,24.6q11.7,12.9,14.6,24a41.5,41.5,0,0,1-.6,22.9q-3.5,11.7-10,17t-11.1-.6a85.4,85.4,0,0,0-14.1-11.1,190.6,190.6,0,0,0-17.6-10q-10.5-5.9-4.1-5.3t19.3,2.9q11.7,1.2,14.6,0t4.1-7q0-7-5.3-18.2A89.4,89.4,0,0,0,232,134.8q-9.4-10.5-16.4-17C210.9,113.5,208.2,110.2,207.4,107.8Z"/></symbol>
        <symbol id="7"><path d="M104.3,45.7a39.8,39.8,0,0,1,14.6-2.3q8.8,0,10,7c0,3.9,1.4,9.2,4.1,15.8a235.2,235.2,0,0,0,11.1,22.9,179,179,0,0,0,24.6-12.3q10.5-6.4,17.6-10A12.6,12.6,0,0,1,198,65.6c3.9,1.6,5.5,3.5,4.7,5.9S194.9,77,184,83.2a271.2,271.2,0,0,1-34,16.4q8.2,14.1,19.9,30.5L191,118.4q8.2-4.7,15.2-9.4t14.1-1.8q8.2,2.9,0,8.8l-18.2,10.5q-10,5.9-26.4,14.1,26.9,36.3,35.2,44.5T221.5,198c0.8,2.3.6,5.7-.6,10a21.9,21.9,0,0,1-5.3,10q-3.5,3.5-12.3-4.7t-33.4-16.4q-25.8-8.2-48-5.3T91.4,203.9q-8.2,8.2-5.9,19.9t15.2,22.3q12.9,9.4,34.6,9.4t33.4-2.3a96.4,96.4,0,0,1,19.3-4.1q7.6-.6,8.8,2.9t-6.4,9.4q-7.6,5.9-22.9,9.4a173.8,173.8,0,0,1-32.2,1.8,88.4,88.4,0,0,1-31.1-6.4q-15.2-7-24.6-18.2a51,51,0,0,1-11.7-24q-2.4-14.1,7-26.4t43.4-17q32.8-5.9,77.3,10.5-15.2-19.9-32.8-45.7a239.5,239.5,0,0,1-27.5,6.4,126.5,126.5,0,0,1-19.3,1.8,70.1,70.1,0,0,1-15.8-1.8c-5.1-1.2-8.8-2.5-11.1-4.1s-0.6-3.5,7.6-3.5a204.7,204.7,0,0,0,28.7-2.3,173.2,173.2,0,0,0,30.5-7l-18.7-30.5q-24.6,7-35.2,6.4t-17.6-4.1q-8.2-3.5-8.2-5.3c0-1.2,5.9-1.4,17.6-.6s23.4-2.3,37.5-7Q120.7,75,116,68a93.5,93.5,0,0,0-11.7-14.1Q97.3,46.9,104.3,45.7Z"/></symbol>
        <symbol id="8"><path d="M168.8,34q0-9.4,11.1-1.2T193.4,48c0.8,3.9-.6,7.6-4.1,11.1s-12.7,12.3-27.5,26.4-28.5,26.8-41,38.1-19.2,18.6-19.9,21.7,4.9,9.6,19.3,19.3,27.1,19,38.1,27.5,19.7,16.8,26.4,24.6,11.1,15.6,13.5,23.4,1.2,13.1-1.2,18.2-5.5,8-9.4,8.8-8.4-5.1-13.5-17.6a185.3,185.3,0,0,0-17-32.8q-9.4-14.1-25.2-28.7t-26.4-22.9q-11.7-9.4-14.6-16.4t24-34q25.8-26.9,37.5-42.8t14.1-21.7C167.2,45.7,168,40.2,168.8,34Z"/></symbol>
        <symbol id="9"><path d="M59.8,45.7q-2.4-9.4,6.4-5.9a43.2,43.2,0,0,1,14.6,9.4q5.9,5.9,2.3,14.6T75,89.1A378.4,378.4,0,0,0,63.3,126a113.8,113.8,0,0,0-3.5,42.8q1.2,21.1,5.9,29.3t9.4-1.2q3.5-10.5,11.7-29.3t9.4-14.1q0,4.7-4.7,22.3a270.1,270.1,0,0,0-7,36.3q-2.4,17.6-3.5,25.2t-10.5-.6q-9.4-8.2-17.6-25.8t-9.4-39.8Q42.2,147.7,51,116t10-41c0.8-7,1.2-12.3,1.2-15.8A51.5,51.5,0,0,0,59.8,45.7Zm126.6-7c0-2.3,2.1-3.1,6.4-2.3A36.7,36.7,0,0,1,205.1,41q5.9,2.4,8.2,5.3t0,7.6q-2.4,4.7-2.9,12.9t-0.6,24.6q25.8-4.7,31.6-7.6c3.9-1.9,8.2-1.8,12.9.6s6,4.5,6.4,6.4-0.6,3.7-2.9,5.3-8.8,2-17,3.5-18.6,3.1-31.1,4.7q0,50.4-3.5,75t-16.4,43.4q-14.1,17.6-36.9,29.3t-27.5,11.7q-4.7-1.2,14.6-13.5a135.8,135.8,0,0,0,33.4-29.9,105.5,105.5,0,0,0,17-39.8q4.1-21.1,4.1-73.8-27,2.4-41,1.2T133.6,102q-7-5.9,4.1-5.3t22.9,0.6q10.5,0,34-3.5,0-31.6-4.7-41.6C186.7,45.5,185.5,41,186.3,38.7Z"/></symbol>
        <symbol id="10"><path d="M73.8,166.4q10.5-17.6,6.4-7A85,85,0,0,0,75,182.8a37.7,37.7,0,0,0,2.9,23.4Q83.2,218,100.8,225t43.9,4.1q27.5-1.8,45.1-6.4t25.8-7.6q8.2-2.9,10.5,2.9c0.8,3.1,0,6.4-2.3,10s-7.8,6.8-16.4,10-22.7,5.5-42.2,7-37.5.8-53.9-2.3-28.3-8.8-35.7-17-11.5-17-12.3-26.4S66,178.1,73.8,166.4ZM94.9,62.1q-7-5.9,10.5-1.8t41,2.9q22.2-1.2,31.6-4.1c6.2-1.9,11.3-1.8,15.2.6a16.3,16.3,0,0,1,7.6,9.4q1.8,5.9-5.3,8.2a68.6,68.6,0,0,0-17.6,5.3q-9.4,4.1-27,13.5t-22.9,8.8q-5.3.6,4.1-6.4t27-22.3a205.5,205.5,0,0,1-28.7-1.8,155,155,0,0,1-20.5-4.1A55.1,55.1,0,0,1,94.9,62.1Z"/></symbol>
        <symbol id="11"><path d="M110.2,30.5a21.1,21.1,0,0,1,12.9-.6c3.9,1.2,4.7,3.3,2.3,6.4s-1.8,5.5,1.8,9.4,8,8.6,13.5,14.1,11.7,13.3,21.1,23.4q16.4-5.9,25.8-11.7l12.9-8.2q2.3-2.3,11.1,0t6.4,7q-3.5,4.7-19.3,12.3a251.6,251.6,0,0,1-29.9,12.3q21.1,24.6,33.4,42.2T218,162.9a32.6,32.6,0,0,1,1.2,14.6,36.5,36.5,0,0,1-4.7,12.3q-4.7,4.7-12.3-3.5a88.7,88.7,0,0,0-19.3-15.2q-11.7-7-28.1-10a126.2,126.2,0,0,0-31.6-1.8q-16.4,1.2-27,7.6a26.7,26.7,0,0,0-12.9,18.2q-3.5,10.5,5.3,22.9a44.7,44.7,0,0,0,24,17,99.1,99.1,0,0,0,32.8,4.1,182.5,182.5,0,0,0,29.3-2.9q10.5-3.5,12.9,1.8T184,239.1q-5.9,5.9-25.2,7t-32.2-1.2a106.9,106.9,0,0,1-28.7-9.4,62.6,62.6,0,0,1-24-19.9q-9.4-14.1-7.6-29.9t18.2-27.5q16.4-11.7,51-12.3t62.7,17q-18.8-30.5-43.4-63.3-22.3,5.9-35.2,7t-21.1-1.2q-9.4-2.3-14.6-8.2t7.6-4.7a174.4,174.4,0,0,0,28.7,0q15.8-1.2,25.2-4.7-10.5-11.7-21.1-24t-16.4-17c-4.7-3.9-6.8-7.4-6.4-10.5S104.7,31.3,110.2,30.5Z"/></symbol>
        <symbol id="12"><path d="M77.3,41q8.2,0,17.6,5.3t4.7,11.1Q93.7,63.3,90.8,99a597.6,597.6,0,0,0-1.8,69.7q0,34,2.9,49.2t18.2,24.6q14.1,8.2,38.7,1.2t52.7-29.3q26.9-22.2,28.7-20.5t-10,17a186.1,186.1,0,0,1-28.1,27,137.9,137.9,0,0,1-34,19.9,92,92,0,0,1-37.5,4.1q-19.9-1.8-32.8-15.8T73.2,194.5q-0.6-36.3.6-71.5t1.8-49.8q0.6-14.6-2.9-24T77.3,41Z"/></symbol>
        <symbol id="13"><path d="M150,36.3a42.9,42.9,0,0,1,14.6,2.3c4.3,1.6,7.2,3.5,8.8,5.9s1.6,4.3,0,8.2-2.3,16-2.3,36.3q44.5-5.9,60.4-7.6t24,1.8a16.4,16.4,0,0,1,10,8.2c1.9,3.9-.6,5.9-7.6,5.9s-19-1-33.4-.6-32.2,1.8-53.3,4.1q0,17.6,1.2,41,3.5,14.1,2.9,35.2a106.2,106.2,0,0,1-8.8,39.8A86.1,86.1,0,0,1,143,248.4q-15.2,12.9-30.5,18.8T92,271.9q-4.1-1.2,10-7t30.5-24q17.6-17,25.8-43.9-8.2,10.5-20.5,12.3t-19.3-5.3q-8.2-7-11.1-20.5a61,61,0,0,1-.6-25.2,43,43,0,0,1,9.4-19.9,31.7,31.7,0,0,1,17.6-10.5q10.5-2.3,24.6,5.9,0-11.7-1.2-31.6-34,4.7-52.7,8.2a304.5,304.5,0,0,0-30.5,7q-12.9,3.5-19.9,0a34.3,34.3,0,0,1-11.7-9.4q-5.9-7,11.1-5.9t41.6-2.3L157,90.2q-1.2-26.9-3.5-34a42.1,42.1,0,0,0-7-12.9Q141.8,36.3,150,36.3ZM138.3,139.5c-3.9,0-7.8,2.2-11.7,6.4a27.9,27.9,0,0,0-7,15.8,57.3,57.3,0,0,0,0,16.4,24.1,24.1,0,0,0,7,14.1q4.7,5.9,12.3,3.5a28.4,28.4,0,0,0,13.5-9.4q4.7-7,5.3-17.6c0.4-7,.2-12.5-0.6-16.4s-4.1-8-7.6-10A22.7,22.7,0,0,0,138.3,139.5Z"/></symbol>
        <symbol id="14"><path d="M179.3,62.1q-5.9-9.4,4.7-8.2t16.4,4.7q5.9,3.5,3.5,8.8c-1.6,3.5-2.3,8.8-2.3,15.8s-1.6,16.4-2.3,30.5q19.9-3.5,32.2-5.3t20.5,1.8q7,3.5,7,9.4t-14.1,4.7q-14.1-1.2-45.7,2.3a253.6,253.6,0,0,1-2.9,41q-2.9,17.6-10,25.8T174,201c-2.7.4-4.9-1.8-6.4-6.4a50.3,50.3,0,0,0-11.1-14.1q-7.6-7-6.4-8.2c0-.8,3.1-0.2,9.4,1.8s10.9,3.3,14.1,4.1,4.7-2.9,7-8.8,3.9-19.7,4.7-41.6l-71.5,11.7q0,58.6,3.5,71.5t12.9,19.9q8.2,7,25.2,8.2a184,184,0,0,0,35.7-1.2q18.7-2.3,26.4-4.1c5.1-1.2,8.4-.2,10,2.9s0.8,6.3-2.3,9.4-10.9,5.5-23.4,7-27.9,1-43.9.6-28.7-4.1-38.1-11.1-15.2-18.9-17.6-35.7-3.1-38.5-2.3-65q-29.3,5.9-39.8,8.8t-17.6-1.8c-4.7-3.1-7.4-6-8.2-8.8s1.9-4.1,8.2-4.1h17q7.6,0,40.4-5.9,0-32.8-1.2-39.8a36.4,36.4,0,0,0-5.9-14.1q-4.7-8.2,5.9-7T114.8,75c3.1,2.3,3.7,5.7,1.8,10s-2.9,18.6-2.9,42.8q37.5-5.9,71.5-11.7,0-22.2-.6-34T179.3,62.1Z"/></symbol>
        <symbol id="15"><path d="M175.8,42.2q8.2-4.7,14.1-1.2a62.4,62.4,0,0,1,11.7,9.4q4.7,5.9,5.9,10.5c0.8,3.1-1.2,5.9-5.9,8.2s-20.1,11.5-43.9,27.5S104.7,130.5,70.3,150q46.9-8.2,75.6-15.2t41.6-9.4q12.9-3.5,24.6-5.9t21.1,2.3q8.2,4.7,7,8.2c-0.8,2.3-4.7,3.9-11.7,4.7s-14.5.2-19.9,0.6-11.7,2.2-18.7,5.3-18.2,9.8-33.4,22.3-23.3,25-24,37.5,1.2,20.9,5.9,27.5A40.9,40.9,0,0,0,157,242.6q11.7,4.7,30.5,4.7t17.6,10.5q-2.4,9.4-19.9,10T150,259q-18.8-9.4-27.5-29.3t-0.6-42.2q8.2-22.2,49.2-48-32.8,7-60.4,14.6T72.7,167.6q-11.7,4.7-19.9-3.5t-3.5-12.9q5.9-2.3,15.2-5.3t27-13.5q22.2-11.7,52.1-36.3t35.7-32.8q4.7-10.5.6-13.5T150,57.4q-22.3,11.7-31.6,13.5a27,27,0,0,1-17.6-2.3A29.2,29.2,0,0,1,87.9,55.7q-4.7-8.8,7-6.4,9.4,2.4,20.5,5.9t32.2-2.3Q167.6,45.7,175.8,42.2Z"/></symbol>
        <symbol id="16"><path d="M102,50.4c-0.8-7.8,1-11.1,5.3-10s9.2,3.7,14.6,7.6,5.7,6.6,2.9,10.5a46.5,46.5,0,0,0-6.4,14.1q-2.4,8.2-5.9,23.4,17.6-5.9,27.5-11.7t18.2-5.9q8.2,0,9.4,5.3T146.5,98.4q-22.3,9.4-36.3,12.9-4.7,21.1-10,42.8a389.5,389.5,0,0,1-14.6,46.3q-9.4,23.5-17,36.9T57.4,255.5c-2.3,3.1-5.3,2-8.8-3.5s-2.2-12.1,4.1-19.9,11.7-19.9,18.8-36.3,14.8-43.7,23.4-82q-15.2,1.2-21.7.6a78.9,78.9,0,0,1-14.6-2.9q-8.2-2.3-11.7-5.9t11.7-2.3q15.2,0,38.7-3.5a218.9,218.9,0,0,0,4.7-27A107.7,107.7,0,0,0,102,50.4Zm41,143c3.1-5.5,5.1-7.6,5.9-6.4s0,6.1-2.3,14.6-3.7,16.4-1.8,23.4,7.2,12.1,15.8,15.2,19.5,3.1,32.8,2.3,22.7-1.6,28.1-2.3a61,61,0,0,1,12.9-2.9q5.9-.6,11.7,5.3t0,10q-5.9,4.1-38.7,5.3T157,252q-16.4-5.9-21.1-17.6t-1.8-23.4A46.1,46.1,0,0,1,143,193.4Zm52.7-83.2,22.3-5.3q7-1.8,15.2,4.1c5.5,3.1,9.4,6.1,11.7,8.8s3.5,5.3,3.5,7.6-4.1,3.9-10,4.7a83.3,83.3,0,0,0-18.2,4.7,204,204,0,0,0-22.9,9.4c-8.2,3.9-12.7,5.5-13.5,4.7s1-3.7,7.6-8.8,13.1-9.6,19.3-13.5,7.6-6.6,6.4-8.2-7.2-1.6-18.2,0l-24.6,3.5q-8.2,1.2-14.1-3.5t5.9-5.3Q179.3,112.5,195.7,110.2Z"/></symbol>
        <symbol id="17"><path d="M111.3,43.4q-2.4-10.5,5.3-8.8a45.2,45.2,0,0,1,15.8,7.6q7,5.9,1.8,12.3T121.9,87.9q26.9-3.5,39.3-6.4t20.5-5.3q8.2-2.3,14.6,4.1t-1.8,8.8q-9.4,2.4-31.1,5.9t-43.9,5.9q-22.3,66.8-19.9,70.3a111.5,111.5,0,0,1,38.7-27q22.2-9.4,42.2-10.5t35.2,7.6q15.2,8.8,21.1,22.9t0,34q-5.9,19.9-25.8,34T157,247.9q-34,2.9-36.3.6t22.9-6.4q25.2-2.9,45.1-12.3T215,203.9q7.6-16.4,5.3-28.1A32.2,32.2,0,0,0,208,155.3q-10-7.6-26.4-8.8t-40.4,8.8q-24,11.2-34.6,25.2T90.8,196.3c-3.5,1.2-6.4-1.4-8.8-7.6s-2.3-13.5,0-19.3S92.2,141,105.5,102q-16.4,1.2-24,.6a78.4,78.4,0,0,1-15.8-2.9,40.4,40.4,0,0,1-12.9-8.2q-4.7-4.7,5.9-2.3a194.7,194.7,0,0,0,21.7,1.2q11.1,0,27.5-1.2a151.1,151.1,0,0,0,4.7-24.6A62.1,62.1,0,0,0,111.3,43.4Z"/></symbol>
        <symbol id="18"><path d="M175.8,71.5a84.3,84.3,0,0,1,41,8.2q19.9,9.4,29.3,25.8a70.7,70.7,0,0,1,8.2,34q0,18.8-11.7,41t-39.3,36.9q-27.5,15.8-63.9,20.5t-41,0q-4.7-3.5,19.9-5.9T167,219.7a149.2,149.2,0,0,0,43.9-26.4q17.6-16.4,22.9-38.7T232,117.2q-8.2-16.4-18.7-24t-31.6-8.8Q160.5,82,132.4,92t-41,17a125.3,125.3,0,0,0-24,12.9q-10,7-17,1.2a45.5,45.5,0,0,1-12.3-12.3q-4.1-6.4,10-6.4a84.3,84.3,0,0,0,25.8-4.1q12.9-4.1,27-10t34-12.3A132.8,132.8,0,0,1,175.8,71.5Z"/></symbol>
        <symbol id="19"><path d="M189.8,58.6q28.1-5.9,38.1-5.9t15.8,5.9c3.1,3.9,4.7,7.6,4.7,11.1s-2.3,5.3-7,5.3-15.1.2-28.7,2.9-27.5,10-41.6,21.7-25.6,23.1-32.2,36.3-10,25.8-10,37.5a69.6,69.6,0,0,0,5.9,33.4q7,15.8,19.9,22.9t23.4,8.2a74.5,74.5,0,0,0,18.8,0c4.7-.8,8.2.6,10.5,4.1s1.2,6.8-3.5,10-11.5,4.5-20.5,4.1-19.3-3.3-31.1-8.8-21.3-15.8-28.7-28.7-10.7-27.9-10-45.1,6.6-35.2,19.9-53.9S167.2,84,194.5,69.1a695,695,0,0,0-70.3,14.6q-38.7,10-50.4,12.3T53.9,93.2q-8.2-4.1-9.4-7.6t17.6-4.7q18.7,0,58.6-8.2Z"/></symbol>
        <symbol id="20"><path d="M106.6,43.4q2.3-3.5,10.5,0a41.1,41.1,0,0,1,12.9,8.2q3.5,4.7,0,10.5t-4.7,18.8q-2.4,12.9,1.2,28.7a59.8,59.8,0,0,0,14.1,27.5q36.3-16.4,44.5-20.5t9.4-7.6a12.5,12.5,0,0,1,4.1-7c1.9-1.6,5.3-.4,10,3.5s7,8,7,12.3-5.5,8.4-16.4,12.3a293.5,293.5,0,0,0-31.1,10q-13.5,5.3-29.9,13.5a198.7,198.7,0,0,0-30.5,18.8q-14.1,10.5-18.7,23.4a32.6,32.6,0,0,0-.6,26.4q5.3,13.5,24,19.3t46.3,2.9q27.5-1.8,41.6-6.4t17.6-1.8a12.5,12.5,0,0,1,5.9,7.6q1.2,4.7-10,10.5t-52.1,7q-41,1.2-63.3-9.4T72.7,222.7A55.5,55.5,0,0,1,77.3,184q9.4-18.7,49.2-39.8-12.9-18.7-15.8-38.1T109,75q1.2-12.9-1.8-21.1T106.6,43.4Z"/></symbol>
        <symbol id="21"><path d="M121.9,49.2c-0.8-3.1-.4-5.5,1.2-7s4.3-1.2,8.2,1.2a42,42,0,0,1,10,8.2q4.1,4.7.6,9.4T121.9,93.8q14.1-2.3,22.3-5.9a161.2,161.2,0,0,0,16.4-8.2q7-4.7,14.1,0t3.5,8.2q-3.5,2.4-19.3,8.8T116,105.5q-21.1,39.9-34.6,60.9T60.9,194.5c-4.7,4.7-8.4,7.4-11.1,8.2s-4.5,0-5.3-2.3-1.6-7.4,0-12.9,5.1-10.1,10.5-14.1,11.1-11.9,19.3-21.7,17.8-25.2,28.7-46.3q-21.1-1.2-31.1-7t-10-8.2q-1.2-3.5,5.3-1.2a71.8,71.8,0,0,0,15.8,3.5A218.1,218.1,0,0,0,109,93.8q9.4-17.6,11.1-29.3A134.9,134.9,0,0,0,121.9,49.2Zm68,43.4q2.3-2.3,21.7,4.1t29.9,15.8q9.4,9.4,10.5,17.6t-1.2,11.7q-2.4,3.5-10.5-1.2a46.7,46.7,0,0,0-16.4-5.9,48.9,48.9,0,0,0-17,.6q-7.6,1.8-14.6,8.8t-8.8,23.4q-0.6,17.6,1.8,49.2a171.5,171.5,0,0,1,22.3,12.9,65.1,65.1,0,0,1,12.9,11.7,30.5,30.5,0,0,1,4.1,13.5q0.6,7.6-2.9,11.1t-14.1-10.5A84,84,0,0,0,184,232q-3.5,17.6-16.4,27t-30.5,9.4q-18.8,0-30.5-6.4T91.4,243.8q-4.7-12.9,5.9-25.2t29.3-14.6q17.6-2.3,44.5,7-3.5-32.8-1.2-53.3T191,128.9a69.1,69.1,0,0,1,39.8-4.7,53.8,53.8,0,0,0-15.2-15.8,88.3,88.3,0,0,0-18.7-10Q187.5,93.8,189.8,92.6ZM150,215.6a82,82,0,0,0-23.4-1.2Q116,215.6,109,225t-3.5,17q4.7,8.8,16.4,12.3a63.2,63.2,0,0,0,22.9.6q12.3-1.8,19.3-10a47.1,47.1,0,0,0,7-19.9A51.8,51.8,0,0,0,150,215.6Z"/></symbol>
        <symbol id="22"><path d="M66.8,70.3q5.9,2.4,12.9,10t1.2,19.3a197.6,197.6,0,0,0-11.1,24q-5.3,13.5-7.6,33.4a120.8,120.8,0,0,0-1.8,35.2,77.8,77.8,0,0,0,8.8,29.3l11.7-25.8q5.9-12.9,8.2-14.1t-0.6,11.7a209,209,0,0,0-4.1,23.4A130,130,0,0,0,81.4,235c-0.4,5.1-.6,9.6-0.6,13.5s-1.2,6.3-3.5,7-5.9-1.6-10.5-7-9.2-13.5-13.5-24-6.8-23.2-7.6-38.1A158.9,158.9,0,0,1,50.4,140q5.9-24,9.4-35.7t1.2-21.1c-1.6-5.5-2-9.4-1.2-11.7S62.9,68.8,66.8,70.3ZM123,185.2c3.9-7,6.4-10.1,7.6-9.4s0.2,6.3-2.9,16.4-2.9,18,.6,25.8,11.1,13.7,22.9,17.6a105.8,105.8,0,0,0,35.7,3.5,114.8,114.8,0,0,0,34.6-7q15.2-5.9,17.6.6t-3.5,12.3q-7,5.9-24.6,8.2a205.3,205.3,0,0,1-38.7,1.2q-21.1-2.3-34-8.8t-18.7-18.2q-5.9-11.7-4.1-22.3A53.9,53.9,0,0,1,123,185.2ZM199.2,73.8q9.4-3.5,14.1-2.9t10.5,5.3c3.1,3.1,4.7,6.3,4.7,9.4s-2.3,5.1-7,5.9-12.3,3.5-20.5,8.2a132.4,132.4,0,0,0-20.5,14.1q-9.4,5.9-14.1,8.2t-3.5,0q1.2-3.5,11.7-14.6T191,89.1q5.9-7-5.3-4.1l-24,6.4q-14.1,3.5-19.9.6t-7-7.6c-1.6-3.1,1.2-4.1,8.2-2.9s16.4,0.6,28.1-1.8S192.2,75.4,199.2,73.8Z"/></symbol>
        <symbol id="23"><path d="M127.7,59.8c-2.3-6.2-1-9,4.1-8.2a30.1,30.1,0,0,1,14.6,7q5.9,4.7,2.9,11.1t-5.3,20.5q30.5-8.2,57.4,2.3t36.3,41q8.2,30.5-9.4,72.7,14.1,8.2,21.7,14.6t8.8,13.5q0,7-4.1,11.1t-11.1-6.4a104.3,104.3,0,0,0-21.1-19.9,81.4,81.4,0,0,1-22.3,21.1q-12.9,8.2-30.5,7t-24.6-10.5q-7-9.4-5.9-19.9T150,198.6q9.4-7.6,29.3-7.6a85.2,85.2,0,0,1,36.3,8.2q9.4-21.1,9.4-39.8t-4.7-30.5a50.6,50.6,0,0,0-16.4-20.5,48.1,48.1,0,0,0-24.6-8.8Q165.2,97.3,143,102a355.6,355.6,0,0,1-14.6,47.5,268.4,268.4,0,0,1-24,48.6,49,49,0,0,0,15.2,12.3c5.5,2.7,7,6.1,4.7,10a10.8,10.8,0,0,1-11.1,2.9q-6.5-1.8-15.8-13.5a150.2,150.2,0,0,1-24,27q-12.3,10.5-22.9,7T35.7,223.8q-4.1-15.2.6-32.8t24.6-48q-4.7-21.1-6.4-31.1a82.6,82.6,0,0,0-5.3-18.2q-4.7-9.4,0-10t14.1,4.1q8.2,3.5,5.9,14.1t2.3,31.6q19.9-19.9,58.6-39.8c0.8-9.4,1.2-16,1.2-19.9S130.1,65.2,127.7,59.8ZM66.8,157q-12.9,18.8-17.6,33.4t-2.3,24c0.8,6.3,2.5,11.1,5.3,14.6s7.2,3.3,13.5-.6,13.3-14.1,23.4-28.1Q77.3,185.2,66.8,157Zm60.9-49.2q-28.1,12.9-51.6,38.7,5.9,19.9,19.9,41A288.3,288.3,0,0,0,127.7,107.8Zm58.6,96.1a58,58,0,0,0-20.5,1.2q-8.8,2.4-11.1,10.5t1.2,12.9q4.7,5.9,15.2,7a39.9,39.9,0,0,0,20.5-5.9q9.9-5.9,18.2-17.6Q196.9,203.9,186.3,203.9Z"/></symbol>
        <symbol id="24"><path d="M75,48q-3.5-8.2,3.5-7a36.4,36.4,0,0,1,14.1,5.9q7,3.5,4.7,11.1a43.9,43.9,0,0,0-2.3,12.3q-1.2,3.5-2.3,28.1,12.9-5.9,13.5-1.2T92.6,109v24.6q25.8-26.9,53.3-39.3t51-7.6q22.2,4.7,35.7,32.2t-2.9,86.1q19.9,8.2,28.1,14.1t9.4,12.9a12.7,12.7,0,0,1-2.3,10.5q-3.5,4.7-12.9-4.7t-27-18.7q-12.9,18.8-30.5,27t-34,5.9q-17.6-3.5-23.4-15.2a27.4,27.4,0,0,1-1.2-23.4q3.5-12.9,24-19.9t55.7,5.9a157.9,157.9,0,0,0,7-36.9q1.2-18.2-1.2-31.1a53.3,53.3,0,0,0-12.9-24q-9.4-9.9-25.8-10T140,110.2q-25.2,14.1-47.5,37.5,0,58.6.6,68t1.8,18.8a29.8,29.8,0,0,1-4.1,15.2A35.3,35.3,0,0,1,82,260.2q-5.9,2.3-8.8-7a81.9,81.9,0,0,0-8.8-18.7A124.9,124.9,0,0,0,48,212.1Q41,225,37.5,232t-7,7q-3.5,0-5.3-8.2t6.4-18.7q8.2-11.7,23.4-39.3a368.9,368.9,0,0,0,25.8-58,136.2,136.2,0,0,0-15.2,7.6q-4.7,2.9-12.9,7.6t-15.2,1.2q-7-3.5-7-7c-0.8-2.3.8-3.7,4.7-4.1s9.4-1.8,16.4-4.1,16.8-7,29.3-14.1q0-25.8-1.2-35.7A65.6,65.6,0,0,0,75,48Zm5.9,110.2q-18.8,29.3-30.5,49.2Q71.5,223.8,75,227.3t4.7-4.7a98.8,98.8,0,0,0,1.2-12.9V158.2Zm106.6,46.9a50.3,50.3,0,0,0-22.9.6q-11.2,2.9-14.6,11.1t1.2,14.6q4.7,6.5,16.4,6.4t22.3-5.3q11.7-5.3,21.1-20.5Q198,206.3,187.5,205.1Z"/></symbol>
        <symbol id="25"><path d="M152.3,44.5a131.3,131.3,0,0,1,41,4.1,79.6,79.6,0,0,1,34,18.2,75.3,75.3,0,0,1,19.3,27.5,107.2,107.2,0,0,1,7.6,33.4,155.4,155.4,0,0,1-2.3,36.9q-3.5,20.5-18.7,40.4a103,103,0,0,1-36.3,28.7q-21.1,10-38.7,13.5t-21.7.6q-2.9-1.8,21.7-8.8a139,139,0,0,0,45.1-25.2q20.5-17,27.5-36.9t6.4-38.1a128.3,128.3,0,0,0-5.3-33.4,68.4,68.4,0,0,0-16.4-28.7q-11.7-12.3-31.6-17a121.3,121.3,0,0,0-44.5-1.2q12.9,35.2,10.5,65a165,165,0,0,1-14.1,55.7q-12.9,24.6-27.5,37.5T82,230.9q-12.9,1.2-24.6-8.2t-17.6-34Q34,164.1,41,135.4T66.8,86.7q17.6-21.1,41-31.1T152.3,44.5ZM132.4,59.8Q99.6,69.2,80.3,90.8T55.1,138.3q-5.9,25.8-2.3,42.8t10.5,26.4a18.4,18.4,0,0,0,15.8,8.2q9.9,0,22.9-10.5t21.7-32.8a159.9,159.9,0,0,0,13.5-46.9Q140.6,98.4,132.4,59.8Z"/></symbol>
        <symbol id="26"><path d="M58.6,65.6q-2.4-12.9,5.3-10.5T77.3,65.6q5.9,8.2,1.2,15.2T64.5,125.4q-10.5,36.3-12.3,56.8t4.1,36.9q9.4-21.1,15.2-34t5.9-9.4q0,2.4-4.7,25.8t-4.7,34q0,10.5-1.8,15.8t-11.1-4.1q-10.5-10.5-15.8-31.6t5.3-64.5Q53.9,106.6,57.4,92T58.6,65.6Zm109-19.9c0.8-2.3,4.1-2.5,10-.6s10.3,4.5,13.5,7.6,2.5,5.3.6,8.8-2.9,8.8-2.9,15.8a265.1,265.1,0,0,0-1.2,28.1q17.6-4.7,28.1-9.4t18.8,0q8.2,4.7-4.1,10t-42.8,12.3q1.2,51.6,1.2,89.1a117,117,0,0,1,28.7,14.6q12.3,8.8,13.5,17T226.8,252q-4.1,4.7-13.5-8.2t-25.8-22.3Q184,241.4,172.3,252t-30.5,11.7q-19.9,0-31.1-8.8A31.2,31.2,0,0,1,98.4,232q-1.2-14.1,9.4-24t30.5-10a95.4,95.4,0,0,1,36.3,4.7q0-30.5-1.2-80.9-24.6,3.5-35.7,1.8t-17-5.3q-7-4.7,3.5-4.7H143q8.2,0,30.5-4.7,0-36.3-3.5-48C167.6,53.1,166.8,48,167.6,45.7Zm5.9,169.9q-10.5-4.7-25.8-6.4t-25.8,4.1q-10.5,5.9-9.4,16.4t8.2,15.2q7,4.7,17.6,5.3t21.1-5.3Q169.9,237.9,173.4,215.6Z"/></symbol>
        <symbol id="27"><path d="M97.3,59.8q10.5-5.9,15.8-7c3.5-.8,7.2.8,11.1,4.7s6.4,7.2,7.6,10-1,5.7-6.4,8.8S113.7,84.6,106.6,92s-14.1,17.4-21.1,29.9-12.1,21.7-15.2,29.9-4.7,17.8-4.7,28.7a86.8,86.8,0,0,0,7,33.4q7,17,18.8,25.2t31.6,4.7q19.9-2.3,38.7-25.8t25.2-60.4q6.4-35.7,4.1-53.3t-5.3-27.5Q182.8,68,184,64.5t9.4-5.3c5.5-1.2,9.8-.2,12.9,2.9s4.7,7.6,7,15.8a239.1,239.1,0,0,0,9.4,26.4,140.5,140.5,0,0,0,11.7,24.6A90,90,0,0,0,252,150q10.5,8.2,7,14.1t-10.5,3.5q-8.2-2.3-19.3-17.6T202.7,86.7q4.7,50.4-2.3,80.3t-18.7,49.8q-11.7,18.8-28.1,29.3A83.5,83.5,0,0,1,118.4,259a59.2,59.2,0,0,1-35.2-8.8q-16.4-9.9-24.6-31.1a106.6,106.6,0,0,1-7-44.5q1.2-23.4,15.2-48T93.2,86.1q13.5-15.8,12.3-17t-17,4.7Q73.8,79.7,65.6,85.5t-17-.6Q41,79.7,39.8,75t7.6-4.1q9.9,0.6,24-2.9A199.6,199.6,0,0,0,97.3,59.8Z"/></symbol>
        <symbol id="28"><path d="M128.9,150q-7-12.9-2.9-24.6t29.9-30.5q-8.2-8.2-15.8-17a86.4,86.4,0,0,1-12.3-18.2c-3.9-6.2-5.3-9.8-4.1-10.5s4.9,2,11.1,8.2a146.9,146.9,0,0,0,19.3,16.4q9.9,7,18.2,11.7t8.8,10a21.1,21.1,0,0,1-.6,8.8q-1.2,3.5-8.2,4.1t-17.6,5.3a32.2,32.2,0,0,0-15.8,14.6q-5.3,10,1.8,22.9a245.1,245.1,0,0,0,14.1,21.1q17.6-8.2,32.8-7.6t28.7,11.7q13.5,11.2,19.3,25.2t2.3,23.4q-2.4,10.5-8.8,14.6t-10.5-2.9q-4.1-7-16.4-14.6t1.2-5.3q13.5,2.4,18.2-2.3t0-15.8q-4.7-11.1-18.7-22.9T157,177a74,74,0,0,1,14.1,18.8q3.5,8.2,4.1,22.3a36.4,36.4,0,0,1-7.6,24.6q-9.4,10.5-25.2,10.5t-27.5-11.7q-11.7-12.9-11.7-16.4t14.1,7q12.9,9.4,21.7,8.8a31.7,31.7,0,0,0,15.8-5.3q5.9-5.9,5.9-17.6a52.1,52.1,0,0,0-5.9-23.4l-9.4-12.9q-30.5,12.9-49.2,29.3Q82,223.8,73.2,232.6T57.4,243.8q-8.2,1.2-10-1.8t-0.6-8.8a167.6,167.6,0,0,0-1.2-17.6c-0.8-7-.8-11.3,0-12.9s2.5,0,5.3,7,4.5,11.3,5.3,12.9,2.7,1.6,5.9,0,9.8-5.5,19.9-11.7,18-12.1,23.4-15.2q4.7-3.5,37.5-18.7A296.1,296.1,0,0,1,128.9,150Z"/></symbol>
        <symbol id="29"><path d="M112.5,80.9q7-4.7,16.4,1.2t23.4,23.4q12.9,16.4,29.3,35.7t30.5,31.1A133.5,133.5,0,0,0,237.9,191q12.9,7,17.6,11.7t1.8,8.8q-2.9,5.3-17,1.8t-31.1-21.1a385.5,385.5,0,0,1-34.6-38.7q-18.8-23.4-29.3-37.5T127.7,96.1q-7-7-14.6-.6T90.2,121.9Q75,141.8,68.6,148.2A33.3,33.3,0,0,1,52.7,157q-10.5,2.4-17-3.5t0.6-8.2a97.3,97.3,0,0,0,16.4-7.6q9.4-5.3,21.1-17L94.9,97.3Q105.5,85.6,112.5,80.9Z"/></symbol>
        <symbol id="30"><path d="M70.3,53.9a28.2,28.2,0,0,1,13.5,8.2c3.5,3.9,4.1,8.2,1.8,12.9s-7.6,18.4-13.5,43.4-9.6,45.3-11.1,60.9-0.8,28.1,2.3,39.8q12.9-22.2,17.6-31.6t7-8.2-3.5,14.6q-4.7,14.7-8.2,28.7a162.6,162.6,0,0,0-4.7,22.3q-1.2,9.4-4.7,8.2t-10-12.9q-6.5-11.7-8.8-29.3t4.7-63.3q8.2-44.5,11.7-57.4t0-26.4Q60.9,51.6,70.3,53.9ZM192.2,66.8q14.1-3.5,21.1-5.9a17.8,17.8,0,0,1,14.1,1.2c4.7,1.6,6.4,3.5,5.3,5.9s-5.3,4.3-12.3,5.9-20.7,3.5-38.7,5.9q14.1,5.9,11.7,12.3t-3.5,19.3q-1.2,11.7-1.2,28.1a102.3,102.3,0,0,0,23.4-7q10.5-4.7,16.4-5.9t11.1,1.8q6.4,4.1-8.8,12.3t-42.2,11.7v66.8q19.9,9.4,30.5,17T232,250.8a11.4,11.4,0,0,1-1.2,11.1q-3.5,5.3-14.1-6.4A128.9,128.9,0,0,0,187.5,232q-4.7,18.8-16.4,28.7a46.3,46.3,0,0,1-27,11.1,63.3,63.3,0,0,1-27.5-5.9q-12.3-5.9-14.6-17.6a30.2,30.2,0,0,1,2.9-24q6.4-11.1,24-14.6t46.9,4.7V153.5a248,248,0,0,1-27.5-1.2c-6.6-.8-11.9-2.3-15.8-4.7s-5.3-4.1-4.1-5.3,6.8-1.4,17-.6,19.5-.4,30.5-1.2q1.2-48-3.5-59.8Q148.8,82,140,79.1c-5.9-1.9-9.2-3.7-10-5.3s1.9-3.5,10.5-3.5h24.6Q176.9,69.2,192.2,66.8Zm-41,153.5a50.9,50.9,0,0,0-21.7,0q-11.2,2.4-14.6,11.7a20.3,20.3,0,0,0-.6,15.8q2.9,7.6,14.6,11.1a45.6,45.6,0,0,0,20.5,0,31.4,31.4,0,0,0,17-10.5q5.9-8.2,8.2-21.1Q161.7,221.5,151.2,220.3Z"/></symbol>
        <symbol id="31"><path d="M150,38.7a32.4,32.4,0,0,1,13.5,4.7c3.5,2.3,4.9,5.5,4.1,9.4s-2.7,9.4-3.5,16.4a212.2,212.2,0,0,0-1.2,23.4,123.7,123.7,0,0,0,25.8-7l17.6-7q5.9-2.3,10.5,0c3.1,1.6,5.1,3.5,5.9,5.9s-2,3.7-8.2,6.4a185.8,185.8,0,0,1-21.1,7.6,306.9,306.9,0,0,1-30.5,7v39.8q19.9-4.7,28.7-8.8a83.5,83.5,0,0,1,13.5-5.3c2.3-.8,5.5,0,9.4,2.3s3.1,5.1-2.3,8.2a180.6,180.6,0,0,1-21.1,8.8,234.3,234.3,0,0,1-28.1,7.6v49.2Q185.1,218,195.7,225a195.9,195.9,0,0,1,18.8,14.1q7,5.9,8.2,11.7a16.1,16.1,0,0,1-2.3,11.7q-4.7,5.9-13.5-4.7a125.4,125.4,0,0,0-19.3-18.7,296.7,296.7,0,0,0-25.8-17.6q-4.7,22.3-18.2,32.2t-28.7,10q-16.4,0-26.4-5.3T73.8,240.2q-5.9-12.9,1.8-25.8T104.3,198q21.1-3.5,44.5,4.7V160.5q-23.5,2.4-35.7.6t-18.2-6.4q-7-5.9,5.3-4.7t20.5,1.2l28.1-3.5v-41c-8.6.8-15.2,1-19.9,0.6s-10.2-1-16.4-1.8a37.4,37.4,0,0,1-17-6.4q-7.6-5.3,5.3-4.1a167.2,167.2,0,0,0,24.6.6q12.9-.6,23.4-1.8V71.5a89.6,89.6,0,0,0-1.2-16.4L143,43.4Q140.6,37.5,150,38.7ZM130.1,209.8a140.7,140.7,0,0,0-17-1.2c-5.1,0-10.4,1.6-15.8,4.7s-10.2,6.1-11.7,11.1-0.4,10.4,3.5,15.8,9.4,8.8,18.8,10a39.3,39.3,0,0,0,25.8-5.3q10.5-8.2,14.1-29.3A58.8,58.8,0,0,0,130.1,209.8Z"/></symbol>
        <symbol id="32"><path d="M159.4,46.9c3.1-2.3,6.4-2.3,10,0a75.6,75.6,0,0,1,11.1,9.4q4.7,4.7,0,9.4a44.6,44.6,0,0,0-8.2,11.7q-4.7,5.9-14.1,22.9t-24.6,43.9q24.6,4.7,36.3,8.8A254.9,254.9,0,0,1,198,165.2a86.7,86.7,0,0,0,6.4-21.7c1.2-7.4,1.4-13.5.6-18.2s1-7.8,5.3-7,8.8,3.1,13.5,7,4.9,7.4,2.9,10.5a54.6,54.6,0,0,0-5.3,11.7q-3.5,7-10.5,23.4,26.9,16.4,32.8,25.8t2.3,17.6q-4.7,7-11.1-.6t-10-12.3q-4.7-4.7-19.9-16.4-17.6,28.1-35.7,43.4T135.9,252q-15.2,7-16.4,5.3t15.2-13.5q16.4-11.7,34-31.6t23.4-34a143.1,143.1,0,0,0-38.1-17q-19.3-5.3-26.4-6.4a411.7,411.7,0,0,1-24.6,38.1A229.5,229.5,0,0,1,82,218q-9.4,9.4-20.5,12.3t-19.3-2.9q-8.2-7-8.2-22.3a57.3,57.3,0,0,1,8.2-29.3q8.2-15.2,29.3-24.6t46.9-8.2q10.5-17.6,19.9-35.2t22.3-46.9q-39.9,9.4-46.9,11.7A38.3,38.3,0,0,1,102,75a40.6,40.6,0,0,1-10-4.1c-3.5-1.9-5.7-4.1-6.4-6.4s0.2-3.5,5.3-3.5h17q8.2,0,27-5.3T159.4,46.9ZM112.5,153.5a86.1,86.1,0,0,0-32.2,5.9q-14.7,5.9-21.7,15.2A54.7,54.7,0,0,0,48,193.9q-3.5,11.2,0,18.2c2.3,4.7,5.7,6.8,10,6.4s10.7-4.9,19.3-13.5S97.7,178.5,112.5,153.5Z"/></symbol>
        <symbol id="33"><path d="M87.9,59.8q-4.7-11.7,4.1-10a46,46,0,0,1,14.6,5.3q5.9,3.5,3.5,8.8A51.5,51.5,0,0,0,106.6,75q-1.2,5.9-1.2,23.4A105.4,105.4,0,0,0,123,93.2c4.7-1.9,9.4-4.1,14.1-6.4s9-2.5,12.9-.6,4.7,4.5,2.3,7.6-8.2,5.5-17.6,9.4a124.8,124.8,0,0,1-29.3,8.2v39.8q7,11.7,2.3,30.5a233.7,233.7,0,0,1-10.5,32.8q-7,14.1-7,21.7t12.9,13.5q11.7,4.7,34,3.5a214.8,214.8,0,0,0,41-5.9q18.7-4.7,25.2-9.4c4.3-3.1,6.4-5.9,6.4-8.2a92,92,0,0,0-.6-10q-0.6-5.3-4.1-18.2t-1.8-13.5c1.2-.4,3.7,2.9,7.6,10a154.6,154.6,0,0,0,11.1,17.6q5.3,7,8.8,9.4a4.2,4.2,0,0,1,2.3,4.1c0,2-1.6,5.3-4.7,10s-9.6,8.2-19.3,12.9a134.4,134.4,0,0,1-33.4,10.5,248.5,248.5,0,0,1-38.1,4.1,149.2,149.2,0,0,1-35.7-2.9Q85.5,259,80.3,251.4T75,236.7q0-8.2,9.4-28.1-15.2,5.9-27,1.2T43.4,194.5a55.9,55.9,0,0,1,0-22.9,35.2,35.2,0,0,1,9.4-18.2q5.9-8.2,17-12.3A25,25,0,0,1,91.4,143V113.7q-14.1,1.2-24.6-1.2t-15.2-7q-5.9-4.7,2.3-4.1c5.5,0.4,11.3.6,17.6,0.6s12.1-.4,19.9-1.2Q92.6,71.5,87.9,59.8Zm-4.7,91.4q-7-2.3-15.2,3.5a26.4,26.4,0,0,0-10.5,16.4q-3.5,9.4-2.3,16.4c0.8,4.7,2.3,7.8,4.7,9.4a19.3,19.3,0,0,0,8.8,2.9A22.7,22.7,0,0,0,79.7,198q5.9-2.3,8.2-12.3t3.5-18.2a80.3,80.3,0,0,0-.6-12.3C90.4,153.3,87.9,152,83.2,151.2ZM194.5,87.9q2.3-1.2,18.2,10t22.9,21.7q5.9,9.4,4.7,17c-0.8,5.1-2.7,8.8-5.9,11.1s-6.1-.8-8.8-7-6.4-13.7-11.1-22.3a186.5,186.5,0,0,0-15.8-21.7C193.5,90.8,192.2,87.9,194.5,87.9Z"/></symbol>
        <symbol id="34"><path d="M155.9,58.6q-2.4-9.4,7-6.4T177,59.8q3.5,4.7,0,10t-9.4,27.5q29.3,1.2,48,14.1T241.4,143q7,18.8,0,44.5T210.9,232q-23.5,18.8-49.8,25.8t-28.7,4.7q-2.4-2.4,12.3-6.4t34.6-14.6a138.2,138.2,0,0,0,32.2-27.5,74.9,74.9,0,0,0,17-36.9q3.5-21.1-4.7-35.7a57.6,57.6,0,0,0-23.4-22.9q-15.2-8.2-35.2-9.4a290.9,290.9,0,0,1-37.5,84.4,98.2,98.2,0,0,0,12.9,11.1q5.9,4.1,2.3,8.8a11.7,11.7,0,0,1-10,2.3q-5.3-1.2-13.5-10.5a120,120,0,0,1-18.2,18.8,102.4,102.4,0,0,1-21.7,12.9q-14.1,4.7-24.6-.6T42.2,214.5q-3.5-16.4,5.9-39.8t32.8-45.7Q75,110.2,71.5,98.4a67.7,67.7,0,0,0-9.4-19.9q-7-9.4-1.8-11.1c3.5-1.2,8.4-1,14.6.6s9.2,4.1,8.8,7.6,0.2,8.8,1.8,15.8,3.1,16.8,7,29.3q10.5-8.2,28.1-15.8t32.8-7.6q2.3-11.7,3.5-21.1A44,44,0,0,0,155.9,58.6Zm-70.3,82q-29.3,30.5-31.6,66.8,1.2,14.1,11.7,17.6,19.9,1.2,45.7-30.5Q97.3,177,85.5,140.6ZM151.2,109a90.8,90.8,0,0,0-27,6.4,149.9,149.9,0,0,0-28.1,15.8q7,23.5,12.9,34t10.5,17.6Q138.3,154.7,151.2,109Z"/></symbol>
        <symbol id="35"><path d="M126.6,44.5q-2.4-7,5.3-5.3a35.4,35.4,0,0,1,14.6,7.6q5.9,5.9,2.3,11.7A58.8,58.8,0,0,0,143,72.7q-2.4,8.2-8.2,36.3,16.4,0,23.4-.6t11.7,1.8q3.5,2.4,3.5,5.3c0,2-2.7,3.7-8.2,5.3s-17.2,2-32.8,1.2l-10.5,56.3q23.4,1.2,31.6,0t12.9,1.2a13.8,13.8,0,0,1,6.4,5.9q1.8,3.5-11.1,5.9t-42.2-1.2a84.7,84.7,0,0,0-.6,26.4,48.6,48.6,0,0,0,10,24A29.5,29.5,0,0,0,146.5,252a96.3,96.3,0,0,0,21.1,2.3q9.4-1.2,19.9-7.6t17.6-22.9q7-16.4,6.4-40.4t-1.8-32.2q-1.2-9.4,4.1,4.1t7.6,34.6a84.6,84.6,0,0,1-4.7,39.3q-7,19.3-19.9,28.7a63,63,0,0,1-29.9,9.4,74.7,74.7,0,0,1-32.2-4.7q-16.4-5.9-25.2-25.2t-4.1-49.8q-12.9-2.3-21.1-7a37.2,37.2,0,0,1-12.9-11.7q-5.9-8.2,1.2-4.7a170.7,170.7,0,0,0,16.4,7q8.2,2.4,18.8,4.7l10.5-55.1a73.9,73.9,0,0,1-21.7-7q-8.8-4.7-13.5-10.5t2.9-3.5l15.8,4.7a87.7,87.7,0,0,0,18.8,3.5q4.7-25.8,5.9-34.6a116.6,116.6,0,0,0,1.2-14.6A86.8,86.8,0,0,0,126.6,44.5Z"/></symbol>
        <symbol id="36"><path d="M75,69.1q8.2-7,17.6-4.7T102,68t-5.3,1.8a19.7,19.7,0,0,0-8.8,4.1q-4.7,3.5-2.3,10.5l17.6,35.2q41-21.1,70.3-28.7t46.9-6.4q17.6,1.2,27.5,7.6a40.6,40.6,0,0,1,14.6,15.8q3.5,9.4,1.8,24a57.1,57.1,0,0,1-10,26.4q-8.2,11.7-24,17t-35.7.6q-21.1-5.9-34-19.9t-11.7-15.2c0-.8,3.1,1.2,9.4,5.9a136.7,136.7,0,0,0,21.1,12.9,59.3,59.3,0,0,0,24,6.4,74.3,74.3,0,0,0,21.7-1.8q8.2-3.5,14.6-12.3a51.5,51.5,0,0,0,8.8-19.3,43.3,43.3,0,0,0-3.5-21.7q-4.7-11.1-21.1-12.3T180.5,102q-27,5.9-71.5,29.3,7,14.1,17.6,34.6t18.8,39.3a236.4,236.4,0,0,1,10.5,32.2Q159.4,252,157,259c-2.3,3.9-5.1,6-8.2,6.4s-5.9-5.3-8.2-17-8-26.6-14.6-44.5-16.6-39.8-29.9-65.6q-22.3,12.9-34.6,21.1t-18.2,7A19.4,19.4,0,0,1,31.6,160q-4.7-5.3,5.9-7.6a117.6,117.6,0,0,0,21.7-8.2,324.6,324.6,0,0,0,31.1-17.6L71.5,89.1Q65.6,75,75,69.1Zm60.9-25.8q2.3-1.2,14.6,3.5t19.3,11.7q7,5.9,7,14.1a23.4,23.4,0,0,1-5.9,15.2q-5.9,5.9-11.7,0T143,76.2c-7-3.9-10.4-6.4-10-7.6s3.7-.6,10,1.8A126.1,126.1,0,0,0,157,73.2c3.1,0.4,4.3-1,3.5-4.1s-3.3-6.8-7.6-11.1a52.6,52.6,0,0,0-13.5-10Q132.4,44.5,135.9,43.4Z"/></symbol>
        <symbol id="37"><path d="M151.2,49.2q9.4-2.3,21.1,5.9t14.1,25.8q32.8,2.4,52.7,21.1t21.1,49.2q0,29.3-10.5,48t-34,28.1a87.6,87.6,0,0,1-49.2,4.7,107.7,107.7,0,0,1-24.6,22.3,152.5,152.5,0,0,1-24.6,12.9q-12.9,3.5-19.9,3.5t5.9-4.7a207.5,207.5,0,0,0,25.2-15.2,105,105,0,0,0,24-23.4,67.8,67.8,0,0,1-25.8-25.8q-9.4-16.4-11.7-31.6t-1.2-16.4q2.3-1.2,5.9,10.5t11.1,25.8q8.8,15.2,27.5,25.8,7-11.7,12.9-46.9t2.3-75q-36.3,8.2-54.5,30.5T92.6,166.4Q84.4,185.2,82,197.5a116.6,116.6,0,0,0-2.3,21.7q-1.2,8.2-3.5,11.1t-8.2-.6q-5.9-3.5-11.1-15.8t-6.4-32.2a175.8,175.8,0,0,1,2.9-42.8q4.1-21.7,7.6-33.4t0-22.3c-1.6-6.2,0-9,4.7-8.2s7.8,2,11.7,5.9,5.1,8.2,3.5,12.9-3.9,10.5-7,19.9-5.9,21.9-8.2,37.5A118.6,118.6,0,0,0,68,198q5.9-26.9,16.4-46.9a162.2,162.2,0,0,1,23.4-34q12.9-15.2,27.5-22.9T171.1,82a36.7,36.7,0,0,0-4.7-12.9,19.2,19.2,0,0,0-9.4-8.2,19.1,19.1,0,0,0-14.6-1.2,83.6,83.6,0,0,0-10,3.5c-2.3,0-1.6-1.9,2.3-5.9S144.1,50.8,151.2,49.2Zm36.3,43.4a314,314,0,0,1-1.2,71.5q-4.7,36.3-14.1,56.3a86,86,0,0,0,32.2-3.5,53,53,0,0,0,24-15.2,52.4,52.4,0,0,0,12.3-23.4,116.6,116.6,0,0,0,2.9-25.8,96.4,96.4,0,0,0-5.3-25.2q-4.1-11.1-15.8-20.5T187.5,92.6Z"/></symbol>
        <symbol id="38"><path d="M146.5,192.2q-2.4,23.5-12.3,34.6t-28.7,12.3q-18.8,1.2-29.9-8.2t-8.8-24.6q2.3-16.4,18.8-24t48-5.3q2.3-58.6,2.9-79.1t-0.6-28.7q-2.4-9.4-4.7-17t7-5.3a32.5,32.5,0,0,1,14.6,5.9q6.4,4.7,4.1,10.5t-5.9,27q22.2,1.2,38.1-1.8t21.7-.6q4.7,1.2,2.3,5.9T201.6,102a92.2,92.2,0,0,1-22.3,2.3q-12.9,0-28.1-5.9-2.4,52.7-3.5,80.9,23.4,5.9,37.5,17T198,216.8q-1.2,8.2-5.3,8.2c-2.7,0-5.7-1.9-8.8-5.9s-7.8-9.6-14.1-14.6A74.2,74.2,0,0,0,146.5,192.2Zm-14.1-3.5q-16.4-1.2-28.7,1.2T85.5,198a13.5,13.5,0,0,0-5.3,12.3,16.6,16.6,0,0,0,6.4,12.3q5.9,3.5,17,3.5a28.8,28.8,0,0,0,19.3-7Q130.1,211,132.4,188.7Z"/></symbol>
        <symbol id="39"><path d="M130.1,37.5q1.2-1.2,7.6,7a83.2,83.2,0,0,0,15.8,15.2,62.3,62.3,0,0,0,19.3,11.1Q184,75,187.5,78.5t1.8,11.1a33.7,33.7,0,0,1-2.9,12.3c-1.6,2.3-5.3,1.6-11.1-2.3a56.9,56.9,0,0,0-20.5-8.2q-12.9-3.5-28.7,3.5t-22.9,27q-7,19.9-12.9,53.9,36.3-28.1,67.4-29.3t48.6,8.2q16.4,9.4,20.5,25.8a71.7,71.7,0,0,1,.6,32.8,56.4,56.4,0,0,1-16.4,25.8q-11.7,10.5-36.3,17.6a177.5,177.5,0,0,1-51,6.4q-25.2-.6-26.4-2.9c-0.8-1.6,4.1-2.5,14.6-2.9a293.6,293.6,0,0,0,36.9-4.1,148.5,148.5,0,0,0,36.3-13.5q16.4-8.8,22.3-19.3a58.8,58.8,0,0,0,4.7-24q0-13.5-7-22.9t-25.8-12.9a87,87,0,0,0-37.5,1.2,84.7,84.7,0,0,0-34.6,18.2q-15.8,13.5-20.5,20.5t-10.5,2.9c-3.9-2.7-5.9-5.7-5.9-8.8s0-8.6,2.3-14.1S78.1,164.8,82,150a182.7,182.7,0,0,1,12.9-39.8q8.2-17.6,28.1-24.6t41-1.2a177.4,177.4,0,0,1-19.3-17.6,74.1,74.1,0,0,1-12.3-17.6Q127.7,38.7,130.1,37.5Z"/></symbol>
        <symbol id="40"><path d="M104.3,41c3.1,0,7.4,2.2,12.9,6.4s7,8.8,4.7,13.5q-3.5,2.4-5.9,10t-4.7,19.3q9.4-15.2,32.8-30.5,17.6-9.4,30.5-8.2T198,62.1q9.4,9.4,12.9,38.1t-3.5,63.9q-7,34-25.2,59.2T143,262.5q-22.3,14.1-26.4,13.5t14.6-13.5q17.6-14.1,34.6-37.5a149.7,149.7,0,0,0,24-50.4q7-28.1,7-48a191.1,191.1,0,0,0-3.5-37.5q-3.5-17.6-11.7-22.9T157,65.6q-12.9,4.7-32.8,21.1t-20.5,45.7q-0.6,29.3,9.4,38.1t6.4,14.1q-3.5,5.3-11.7,0T93.8,165.2a97.6,97.6,0,0,1-4.7-31.1q0-17,4.7-27.5A152,152,0,0,0,102,77.3q2.3-14.1-1.2-25.8Q99.6,41,104.3,41Z"/></symbol>
        <symbol id="41"><path d="M165.2,57.4q12.9-7,19.9-7.6t14.1,8.8q5.9,8.2,5.9,11.7c0,2.3-2.3,5.1-7,8.2s-15.2,12.9-31.6,29.3-32,33.6-46.9,51.6q31.6-15.2,58.6-14.6T220.3,157a44.8,44.8,0,0,1,17.6,27.5q3.5,17-3.5,35.7t-24.6,29.3a97.9,97.9,0,0,1-38.7,15.2q-22.3,3.5-36.3.6t-22.3-12.3q-9.4-9.4-10.5-19.9t7-18.7q8.2-9.4,24-7.6t28.7,13.5A46.8,46.8,0,0,1,177,249.6q30.5-9.4,40.4-30.5t1.8-38.7q-8.2-17.6-27-21.1a94.7,94.7,0,0,0-36.3,0,94,94,0,0,0-33.4,11.1q-15.8,8.8-25.2,17a127.5,127.5,0,0,0-18.2,17q-7.6,8.8-11.1,2.9A26.1,26.1,0,0,1,65,193.4q0.6-7,13.5-15.2t34-29.9q22.2-21.7,42.2-45.1t24.6-30.5c3.1-4.7,3.5-7.4,1.2-8.2s-9.8.8-19.9,4.7-18,7-23.4,9.4a147.4,147.4,0,0,0-21.7,7.6Q103.1,91.4,92.6,82t0-9.4a189.5,189.5,0,0,0,21.1-1.2l24-5.3A158.4,158.4,0,0,0,165.2,57.4ZM139.5,220.3c-6.3-1.6-11.7-1.4-16.4.6s-6.6,6.1-5.9,12.3,3.9,10.7,11.7,15.8,21.5,6.1,41,2.9q-5.9-14.1-14.1-22.3T139.5,220.3Z"/></symbol>
        <symbol id="42"><path d="M79.7,43.4c0.8-1.6,2.3-2.1,4.7-1.8a50,50,0,0,1,9.4,2.9c3.9,1.6,6.6,3.5,8.2,5.9s1.2,6.3-1.2,11.7-3.5,17.6-3.5,36.3q9.4-2.3,12.9-.6c2.3,1.2,3.5,2.5,3.5,4.1s-2,4.1-5.9,7.6a92.4,92.4,0,0,0-10.5,11.1v8.2q23.4-21.1,35.2-31.1t21.1-14.6a69.5,69.5,0,0,1,17.6-7q9.4-2.3,18.8,3.5t10,14.6q1.8,8.8.6,25.2t-7,42.2q-4.7,27-4.7,42.2t4.1,22.9q5.3,7.6,18.2,6.4t25.2-11.1a194.5,194.5,0,0,0,21.7-18.2q7-8.2,8.8-7t-8.8,17.6a80.4,80.4,0,0,1-28.7,25.2q-17,8.8-32.2,5.3T177,226.2q-4.7-15.2,1.2-52.7t7.6-52.7q1.8-15.2-.6-23.4c-1.6-5.5-4.7-8.4-9.4-8.8s-12.1,2.9-22.3,10S123.8,119.5,97.3,143q1.2,64.5,1.2,76.2t1.2,16.4q0,4.7-3.5,12.9c-2.3,5.5-5.1,9.4-8.2,11.7s-6.8.6-8.8-5.3a142.4,142.4,0,0,0-7.6-18.2q-5.9-9.4-16.4-23.4A211.4,211.4,0,0,0,44.5,235q-3.5,8.8-7,7.6T31.1,235q-1.8-6.4,1.8-11.1t10-17.6q7.6-11.7,20.5-38.7t17.6-38.7c3.1-7.8,4.7-12.1,4.7-12.9s-4.9.8-12.3,4.7-13.1,7-17,9.4-9.2,2.3-13.5,0-6.8-4.7-7.6-7,1.6-3.7,7-4.1A101.7,101.7,0,0,0,59.8,116q9.4-3.5,25.8-12.9,0-12.9-.6-27.5T80.9,52.7C78.5,47.3,78.1,44.1,79.7,43.4Zm5.9,116q-14.1,23.5-27,49.2,18.7,18.8,22.3,19.3c2.3,0.4,3.9-1,4.7-4.1V159.4Z"/></symbol>
        <symbol id="43"><path d="M145.3,59.8q29.3-9.4,34.6-10.5c3.5-.8,7.2,1.6,11.1,7s6.2,9.8,7,12.9-1.2,5.5-5.9,7S159.8,103.9,109,157q30.5-17.6,60.9-17.6t48,9.4a43,43,0,0,1,21.1,27.5q4.7,18.2-3.5,39.3T208,246.1a111.4,111.4,0,0,1-39.3,11.7,141.5,141.5,0,0,1-38.7-.6q-17.6-2.9-16.4-5.3t25.8-1.8a129,129,0,0,0,48-7.6q21.1-9.4,28.7-24t8.8-25.2a52.9,52.9,0,0,0-5.3-22.9q-5.3-11.1-25.2-15.8a94.3,94.3,0,0,0-41.6-2.3q-20.5,3.5-41.6,16.4T79.1,190.4q-10,8.8-14.6,10t-6.4-10q-0.6-11.1,12.3-17t31.1-25.8q19.3-18.7,40.4-41T168.2,75q5.3-9.4,5.3-11.7t-9.4,0q-8.2,2.4-23.4,8.2t-28.1,9.4q-11.7,4.7-23.4-4.7t7.6-9.4Q116,68,145.3,59.8Z"/></symbol>
        <symbol id="44"><path d="M86.7,51.6Q82,42.2,92,43.9t15.8,5.3q4.7,3.5,1.8,10.5T106.6,102q8.2-4.7,11.1-2.3a7.3,7.3,0,0,1,2.9,5.9,82.5,82.5,0,0,1-6.4,9.4,92.4,92.4,0,0,0-8.8,14.1v5.9q24.6-22.2,45.7-29.3a94.6,94.6,0,0,1,44.5-3.5A72.2,72.2,0,0,1,235,118.4q17,14.1,20.5,34T252,195.1q-7,22.9-25.8,35.7t-38.1,17.6q-19.3,4.7-20.5,2.3t12.9-6.4q14.1-4.1,30.5-14.6a72.3,72.3,0,0,0,23.4-26.4q8.2-15.8,8.2-36.9t-14.1-35.2a59.1,59.1,0,0,0-31.6-16.4,99.5,99.5,0,0,0-38.7.6q-19.9,4.1-52.7,35.7v72.7q2.3,21.1-2.9,29.9t-7.6,8.8q-3.5,0-8.8-11.1T59.8,219.1q-4.7,9.4-7,15.2c-1.6,3.9-3.5,6.6-5.9,8.2s-5.9-1.2-8.2-8.2-1.2-13.7,3.5-19.9,12.1-18.2,22.3-35.7,19.5-34.6,28.1-51v-9.4q-8.2,4.7-17,9.4a108.1,108.1,0,0,0-13.5,8.2q-4.7,2.4-11.1,0t-8.8-5.9c-2.3-3.1-.4-5.1,5.9-5.9a86.1,86.1,0,0,0,21.1-5.9l23.4-10.5q0-26.9-.6-37.5A42.3,42.3,0,0,0,86.7,51.6Zm4.7,113.7q-4.7,5.9-29.3,49.2,22.2,16.4,26.4,17t2.9-17V165.2Z"/></symbol>
        <symbol id="45"><path d="M201,123.6q13.5,1.8,18.2,10.5t-1.2,17q-5.9,8.2-22.3,16.4T160.5,184q0,27-1.8,34.6c-1.2,5.1-3.3,8.8-6.4,11.1s-5.9,2.2-8.2-.6-2.7-6.8-1.2-12.3,2.7-15.6,3.5-28.1q-25.8,11.7-38.7,22.9t-15.2,17q-2.4,5.9.6,14.1t13.5,12.9q12.9,4.7,42.2,4.1t41-4.1c7-2.3,12.1-3.1,15.2-2.3s4.7,3.1,4.7,7-4.1,6.2-10,9.4-19,4.7-39.3,4.7-36.3-1.4-45.7-4.1S98.4,263.7,93.8,259a36.4,36.4,0,0,1-8.2-22.9q0-12.3,10.5-21.7,12.9-12.9,50.4-31.6,0-25.8-5.3-32.8c-3.5-4.7-8-7-13.5-7s-12.1,1.8-19.9,5.3a75.4,75.4,0,0,0-22.3,15.8q-11.7,9.4-18.2,17.6t-10,3.5q-3.5-5.9-1.8-14.6t14.6-18.2Q82,141.8,109,100.8q-21.1,0-30.5-5.3T68,85.5q-2.4-4.7,11.7-.6T116,89.1a147.1,147.1,0,0,0,10.5-20.5,115.3,115.3,0,0,0,4.7-13.5q0-4.7-.6-11.1c-0.4-4.3,1.8-5.7,6.4-4.1A30.6,30.6,0,0,1,148.2,48q5.3,5.9.6,12.9T131.3,89.1q8.2,0,24.6-4.7t25.8-8.2q9.4-4.7,15.8-1.2c4.3,2.3,5.3,5.1,2.9,8.2s-11.9,6.1-28.7,11.1-32.6,7.6-47.5,7.6L87.9,152.3q26.9-19.9,40.4-21.1t24,12.9Q187.5,121.9,201,123.6ZM160.5,177q14.1-8.2,23.4-14.6A148,148,0,0,0,199.8,150c4.3-3.9,5.9-8,4.7-12.3s-3.7-6.4-7.6-6.4-8.8,1-14.6,2.9-15.1,6.4-27.5,13.5Q159.4,157,160.5,177Z"/></symbol>
        <symbol id="46"><path d="M124.2,50.4q1.2-3.5,7.6.6a37.9,37.9,0,0,1,10,8.8c1.6,3.1,2.3,5.7,2.3,7.6s-2,5.7-5.9,11.1S114.8,119.1,82,184q19.9-19.9,31.1-25.8t20.5-5.9a24.3,24.3,0,0,1,17.6,4.7q8.2,5.9,9.4,21.1T160,211.5q-0.6,18.2,1.8,26.4a16.3,16.3,0,0,0,7,11.1q5.9,4.1,17.6,2.9t24-14.6q12.3-12.3,26.4-35.7t13.5-22.3q0.6,2.4-4.1,17.6t-16.4,34q-11.7,18.8-22.3,25.8a77.9,77.9,0,0,1-21.7,8.2,40.9,40.9,0,0,1-21.7-1.2,26.4,26.4,0,0,1-15.8-17q-4.1-12.3-2.9-32.2t-0.6-33.4q-0.6-12.3-7.6-14.6t-21.7,5.3q-14.7,8.8-27.5,27.5a282.5,282.5,0,0,0-26.4,39.8q-12.3,22.3-17,23.4c-3.1,0-6.1-2.7-8.8-8.2s-0.6-13.3,6.4-23.4S62.5,194.5,82,154.7s31.2-64.8,35.2-75,5.7-17,5.3-20.5A12.7,12.7,0,0,1,124.2,50.4Z"/></symbol>
    </defs>
    <g id="k1"><use xlink:href="#1"/></g>
    <g id="k2"><use xlink:href="#2"/></g>
    <g id="k3"><use xlink:href="#3"/></g>
    <g id="k4"><use xlink:href="#4"/></g>
    <g id="k5"><use xlink:href="#5"/></g>
    <g id="k6"><use xlink:href="#6"/></g>
    <g id="k7"><use xlink:href="#7"/></g>
    <g id="k8"><use xlink:href="#8"/></g>
    <g id="k9"><use xlink:href="#9"/></g>
    <g id="k10"><use xlink:href="#10"/></g>
    <g id="k11"><use xlink:href="#11"/></g>
    <g id="k12"><use xlink:href="#12"/></g>
    <g id="k13"><use xlink:href="#13"/></g>
    <g id="k14"><use xlink:href="#14"/></g>
    <g id="k15"><use xlink:href="#15"/></g>
    <g id="k16"><use xlink:href="#16"/></g>
    <g id="k17"><use xlink:href="#17"/></g>
    <g id="k18"><use xlink:href="#18"/></g>
    <g id="k19"><use xlink:href="#19"/></g>
    <g id="k20"><use xlink:href="#20"/></g>
    <g id="k21"><use xlink:href="#21"/></g>
    <g id="k22"><use xlink:href="#22"/></g>
    <g id="k23"><use xlink:href="#23"/></g>
    <g id="k24"><use xlink:href="#24"/></g>
    <g id="k25"><use xlink:href="#25"/></g>
    <g id="k26"><use xlink:href="#26"/></g>
    <g id="k27"><use xlink:href="#27"/></g>
    <g id="k28"><use xlink:href="#28"/></g>
    <g id="k29"><use xlink:href="#29"/></g>
    <g id="k30"><use xlink:href="#30"/></g>
    <g id="k31"><use xlink:href="#31"/></g>
    <g id="k32"><use xlink:href="#32"/></g>
    <g id="k33"><use xlink:href="#33"/></g>
    <g id="k34"><use xlink:href="#34"/></g>
    <g id="k35"><use xlink:href="#35"/></g>
    <g id="k36"><use xlink:href="#36"/></g>
    <g id="k37"><use xlink:href="#37"/></g>
    <g id="k38"><use xlink:href="#38"/></g>
    <g id="k39"><use xlink:href="#39"/></g>
    <g id="k40"><use xlink:href="#40"/></g>
    <g id="k41"><use xlink:href="#41"/></g>
    <g id="k42"><use xlink:href="#42"/></g>
    <g id="k43"><use xlink:href="#43"/></g>
    <g id="k44"><use xlink:href="#44"/></g>
    <g id="k45"><use xlink:href="#45"/></g>
    <g id="k46"><use xlink:href="#46"/></g>
</svg>